<?xml version="1.0" encoding="UTF-8"?>
<svg id="Layer_1" data-name="Layer 1" xmlns="http://www.w3.org/2000/svg" xmlns:xlink="http://www.w3.org/1999/xlink" viewBox="0 0 22 22">
  <defs>
    <style>
      .cls-1 {
        fill: #fff;
      }

      .cls-2 {
        fill: #ed2224;
      }

      .cls-3 {
        clip-path: url(#clippath);
      }

      .cls-4 {
        fill: none;
      }

      .cls-5 {
        fill: #2a2d7c;
      }
    </style>
    <clipPath id="clippath">
      <circle class="cls-4" cx="11" cy="11" r="11"/>
    </clipPath>
  </defs>
  <g class="cls-3">
    <g>
      <path class="cls-5" d="m-3.88-.16h29.76v22.32H-3.88V-.16Z"/>
      <path class="cls-1" d="m-2.14-.16L3.54,4.05,9.19-.16h1.81v1.44l-5.58,4.16,5.58,4.14v1.42h-1.86L3.56,6.84-2,11h-1.88v-1.4L1.68,5.47-3.88,1.33V-.16h1.74Z"/>
      <path class="cls-2" d="m5.98,6.37l5.02,3.7v.93l-6.3-4.63h1.28Zm-4.28.47l.14.81-4.46,3.35h-1.26L1.7,6.84ZM11-.16v.07l-5.79,4.37.05-1.02L9.84-.16h1.16ZM-3.88-.16L1.68,3.93H.28L-3.88.82V-.16Z"/>
      <path class="cls-1" d="m1.72-.16v11.16h3.72V-.16H1.72ZM-3.88,3.56v3.72h14.88v-3.72H-3.88Z"/>
      <path class="cls-2" d="m-3.88,4.33v2.23h14.88v-2.23H-3.88ZM2.47-.16v11.16h2.23V-.16h-2.23Z"/>
      <path class="cls-1" d="m20.63,18.29l-.95.12.1.95-.69-.67-.68.67.09-.95-.95-.11.8-.52-.51-.81.91.3.32-.91.33.9.91-.31-.5.82.81.52h0Zm-.17-5.45l.13-.6-.46-.42.61-.07.26-.56.26.56.61.07-.46.42.13.6-.54-.31-.54.31h0Zm-4.84-2.79l-.94.1.08.94-.67-.67-.69.66.11-.94-.94-.13.8-.5-.49-.81.9.32.33-.89.31.9.9-.29-.51.8.8.52h0Zm9.48-1.53l-.97.13.11.97-.7-.68-.7.69.1-.98-.97-.11.82-.53-.52-.83.93.31.33-.92.33.92.93-.32-.51.84.83.53h0Zm-4.47-3.88l-.96.11.09.97-.68-.69-.7.67.11-.96-.96-.13.82-.51-.5-.83.92.32.34-.91.32.92.92-.3-.52.82.81.53h0Zm-13.62,13.14l-2.13.25.21,2.13-1.53-1.51-1.53,1.5.23-2.13-2.13-.27,1.81-1.15-1.12-1.83,2.03.7.73-2.02.72,2.02,2.03-.68-1.13,1.82,1.8,1.17h0Z"/>
    </g>
  </g>
</svg>