<?xml version="1.0" encoding="UTF-8"?>
<svg id="Layer_1" data-name="Layer 1" xmlns="http://www.w3.org/2000/svg" xmlns:xlink="http://www.w3.org/1999/xlink" viewBox="0 0 22 22">
  <defs>
    <style>
      .cls-1 {
        fill: #fff;
      }

      .cls-2 {
        fill: #d42e27;
      }

      .cls-3 {
        clip-path: url(#clippath);
      }

      .cls-4 {
        fill: none;
      }
    </style>
    <clipPath id="clippath">
      <circle class="cls-4" cx="11" cy="11" r="11"/>
    </clipPath>
  </defs>
  <g class="cls-3">
    <g>
      <path class="cls-1" d="m3.2-.02h15.6v22.04H3.2V-.02Z"/>
      <path class="cls-2" d="m-4.6-.02H3.2v22.04h-7.8V-.02ZM18.8-.02h7.8v22.04h-7.79V-.02ZM5.54,10.63l-.61.2,2.82,2.48c.22.63-.07.82-.26,1.15l3.06-.39-.07,3.08h.64s-.14-3.07-.14-3.07l3.06.37c-.19-.4-.36-.61-.18-1.25l2.81-2.34-.49-.18c-.4-.31.17-1.5.26-2.25,0,0-1.64.56-1.74.27l-.42-.8-1.5,1.64c-.16.04-.23-.02-.27-.16l.69-3.43-1.09.62c-.09.04-.18,0-.24-.1l-1.06-2.11-1.08,2.19c-.08.08-.17.09-.23.03l-1.05-.58.63,3.4c-.05.14-.17.17-.31.1l-1.43-1.62c-.18.3-.31.79-.56.9-.25.11-1.08-.21-1.63-.32.19.68.78,1.82.41,2.19h0Z"/>
    </g>
  </g>
</svg>