<svg width="24" height="24" viewBox="0 0 24 24" fill="none" xmlns="http://www.w3.org/2000/svg">
<mask id="mask0_206_350" style="mask-type:luminance" maskUnits="userSpaceOnUse" x="7" y="5" width="5" height="14">
<path d="M12 5H7V19H12V5Z" fill="white"/>
</mask>
<g mask="url(#mask0_206_350)">
<path opacity="0.6" d="M10.3887 18.2669L9.70769 15.7799C9.08654 15.4208 8.57649 14.8973 8.23369 14.2669C7.86941 13.5909 7.67871 12.8349 7.67871 12.0669C7.67871 11.299 7.86941 10.543 8.23369 9.86694C8.57605 9.23552 9.08613 8.7109 9.70769 8.35094L10.3887 5.86694H13.8297L14.5107 8.35394C15.13 8.71381 15.6383 9.23728 15.9797 9.86694C16.344 10.543 16.5347 11.299 16.5347 12.0669C16.5347 12.8349 16.344 13.5909 15.9797 14.2669C15.6373 14.8984 15.1273 15.423 14.5057 15.7829L13.8297 18.2669H10.3887ZM12.1097 15.7289C12.5916 15.7324 13.0693 15.64 13.5152 15.4572C13.961 15.2744 14.3661 15.0048 14.7068 14.6641C15.0476 14.3233 15.3172 13.9183 15.5 13.4724C15.6828 13.0266 15.7751 12.5488 15.7717 12.0669C15.7753 11.5849 15.683 11.107 15.5002 10.6609C15.3174 10.2149 15.0477 9.80966 14.7068 9.4688C14.366 9.12794 13.9607 8.85826 13.5147 8.67545C13.0687 8.49264 12.5907 8.40035 12.1087 8.40394C11.6267 8.40048 11.1489 8.49287 10.703 8.67575C10.2571 8.85862 9.85195 9.12831 9.5112 9.46916C9.17045 9.81001 8.90086 10.2152 8.71811 10.6612C8.53536 11.1071 8.4431 11.585 8.44669 12.0669C8.4431 12.549 8.53539 13.0269 8.7182 13.473C8.90101 13.919 9.17069 14.3242 9.51155 14.6651C9.85241 15.0059 10.2576 15.2756 10.7037 15.4584C11.1497 15.6412 11.6277 15.7335 12.1097 15.7299V15.7289Z" fill="black"/>
<path opacity="0.6" d="M12.5 15C14.433 15 16 13.6569 16 12C16 10.3431 14.433 9 12.5 9C10.567 9 9 10.3431 9 12C9 13.6569 10.567 15 12.5 15Z" fill="black"/>
</g>
<mask id="mask1_206_350" style="mask-type:luminance" maskUnits="userSpaceOnUse" x="13" y="5" width="4" height="14">
<path d="M17 5H13V19H17V5Z" fill="white"/>
</mask>
<g mask="url(#mask1_206_350)">
<path opacity="0.6" d="M10.7285 18.2669L10.0475 15.7799C9.42638 15.4208 8.91634 14.8973 8.57354 14.2669C8.20925 13.5909 8.01855 12.8349 8.01855 12.0669C8.01855 11.299 8.20925 10.543 8.57354 9.86694C8.91589 9.23552 9.42598 8.7109 10.0475 8.35094L10.7285 5.86694H14.1695L14.8505 8.35394C15.4699 8.71381 15.9781 9.23728 16.3195 9.86694C16.6838 10.543 16.8745 11.299 16.8745 12.0669C16.8745 12.8349 16.6838 13.5909 16.3195 14.2669C15.9772 14.8984 15.4671 15.423 14.8455 15.7829L14.1695 18.2669H10.7285ZM12.4495 15.7289C12.9314 15.7324 13.4091 15.64 13.855 15.4572C14.3009 15.2744 14.7059 15.0048 15.0467 14.6641C15.3874 14.3233 15.657 13.9183 15.8398 13.4724C16.0226 13.0266 16.115 12.5488 16.1115 12.0669C16.1151 11.5849 16.0228 11.107 15.84 10.6609C15.6572 10.2149 15.3875 9.80966 15.0467 9.4688C14.7058 9.12794 14.3006 8.85826 13.8545 8.67545C13.4085 8.49264 12.9306 8.40035 12.4485 8.40394C11.9666 8.40048 11.4888 8.49287 11.0428 8.67575C10.5969 8.85862 10.1918 9.12831 9.85104 9.46916C9.51029 9.81001 9.2407 10.2152 9.05795 10.6612C8.87521 11.1071 8.78294 11.585 8.78654 12.0669C8.78294 12.549 8.87524 13.0269 9.05805 13.473C9.24086 13.919 9.51054 14.3242 9.85139 14.6651C10.1923 15.0059 10.5975 15.2756 11.0435 15.4584C11.4896 15.6412 11.9675 15.7335 12.4495 15.7299V15.7289ZM11.0005 7.91094C11.4689 7.76083 11.9568 7.68063 12.4485 7.67294C12.9403 7.68063 13.4282 7.76083 13.8965 7.91094L13.5895 6.64994H11.3075L11.0005 7.91094ZM11.3075 17.4849H13.5905L13.8975 16.2239C13.4273 16.3636 12.9401 16.438 12.4495 16.4449C11.959 16.438 11.4718 16.3636 11.0015 16.2239L11.3075 17.4849Z" fill="black"/>
</g>
</svg>
