<svg xmlns="http://www.w3.org/2000/svg" xmlns:xlink="http://www.w3.org/1999/xlink" width="328" height="153" viewBox="0 0 328 153">
  <defs>
    <clipPath id="clip-path">
      <rect id="Rectangle_11483" data-name="Rectangle 11483" width="328" height="153" transform="translate(-15923.01 -9422.098)" fill="#fff"/>
    </clipPath>
    <clipPath id="clip-path-2">
      <path id="Path_10070" data-name="Path 10070" d="M248.171,222.71A138.646,138.646,0,0,0,122.22,303.356h251.9A138.646,138.646,0,0,0,248.167,222.71Z" transform="translate(-122.22 -222.71)" fill="#fff"/>
    </clipPath>
  </defs>
  <g id="Mask_Group_68" data-name="Mask Group 68" transform="translate(15923.01 9422.098)" opacity="0.9" clip-path="url(#clip-path)">
    <g id="Places-Card" transform="translate(-15940.21 -9418.087)">
      <g id="Group_25402" data-name="Group 25402" transform="translate(0 0)">
        <path id="Path_9985" data-name="Path 9985" d="M193.022,152.45A199.469,199.469,0,0,0,11.82,268.473h362.4a199.469,199.469,0,0,0-181.2-116.023Z" transform="translate(-11.82 -89.313)" fill="#bb852e"/>
        <path id="Path_9986" data-name="Path 9986" d="M210.668,21.1s-.279,0,.076.54.027.625.265.985.04.409.243.638a2.575,2.575,0,0,1,.76.989c.126.459-.072.513.13.737a1.155,1.155,0,0,1,.409.733,30.935,30.935,0,0,0,2.046,5.211,3.389,3.389,0,0,0-.067,1.565c.166.868.3,2.662.854,3.143a1.7,1.7,0,0,1,.692,1.007,2.4,2.4,0,0,0,.576.827s.094-.166.427.8-.058,1.07.378,1.655.76.989,1.165,1.443-.189,2.158.049,3.291-.063,1.843.98,2.055l.692-.045s-.4,2.149.009,2.882,1.407,2.855,1.821,3.867.054,2.023.49,3.1a5.081,5.081,0,0,1,.6,1.947,5.916,5.916,0,0,0,.625,2.572c.531.913.656,2.424,1.1,3.287a8.377,8.377,0,0,1,.607,1.452l-1.228,1.178-.342,1.839,14.213-3.853L236.819,63.5l-.724-.508-1.156-4.272.288-.665-.859-3.174-.108-1.263-.247-1.344.261-.773-2.329-5.126A1.417,1.417,0,0,0,233.1,45a16.691,16.691,0,0,0-.333-2.968,1.413,1.413,0,0,0,1.12-1.385c.067-1.219.719-1.47.427-1.951l-.288-.481L234.094,37l-3.444-1.223-.787,1.812-1.4-.737s-1.007-2.842-2.379-3.188a3.7,3.7,0,0,1-2.028-1.286l.144-.8-.922-1.578.324-.369a2.531,2.531,0,0,0-.072-1.034l3.579-1.322-3.548.4,2.743-2.851-3.6,2.028,1.434-4.047-2.77,4.056-1.025-.144-1.709-4.739,1.021,5.067-.683.328-3.723-1.8,2.918,2.725.022.346-1.758.544a18.672,18.672,0,0,0-.89-2.527A17.348,17.348,0,0,0,214.09,24.4l-.913-2.846-.791-.841-.045-.692.913-.526-.387-1.16-.769-.495-.3-1.115A4.145,4.145,0,0,0,211.68,15a6.26,6.26,0,0,0-1.34-2.1l-.661-.877.153,1.084-.387-.387-.162.958a1.221,1.221,0,0,0-.256,1.124c.225.571.6,1.452.6,1.452a4.711,4.711,0,0,0,.22,1.066c.117.18.445.863.445.863l-.931,1.236.211.787.423.517.665.382Zm7.558,8.431a1.322,1.322,0,0,0,.409.733.821.821,0,0,1,.229.85l.076.544-.351.517-.387-.387-.5-1.061-.872-.89-.265-.207s-.04-.153-.112-.4Z" transform="translate(-120.323 -12.03)" fill="#bb852e"/>
        <path id="Path_9987" data-name="Path 9987" d="M256.422,128.4l-15.467,4.191,6.382,23.553,15.467-4.191Z" transform="translate(-137.928 -76.078)" fill="#bb852e"/>
        <path id="Path_9988" data-name="Path 9988" d="M256.008,127.027l-16.817,4.557.474,1.749,16.817-4.557Z" transform="translate(-136.957 -75.321)" fill="#bb852e"/>
        <path id="Path_9989" data-name="Path 9989" d="M664.765,100.889C646.4,89.805,642.3,79.32,642.3,79.32L640.04,93.367l21.448,12.945,21.447,12.945,11.376-8.543s-11.187,1.263-29.55-9.824Z" transform="translate(-357.571 -49.064)" fill="#bb852e"/>
        <path id="Path_9990" data-name="Path 9990" d="M682.224,136.231l-41.168-24.844-.922,1.528L681.3,137.759Z" transform="translate(-357.623 -66.713)" fill="#bb852e"/>
        <path id="Path_9991" data-name="Path 9991" d="M649.049,118.521l-6.675-4.03-3.353,5.555,6.675,4.029Z" transform="translate(-357.011 -68.421)" fill="#bb852e"/>
        <path id="Path_9992" data-name="Path 9992" d="M625.589,127.885l-4.72-2.848-18.181,30.128,4.72,2.848Z" transform="translate(-337.014 -74.225)" fill="#bb852e"/>
        <path id="Path_9993" data-name="Path 9993" d="M609.742,156.323l-6.675-4.028-1.32,2.187,6.675,4.028Z" transform="translate(-336.496 -89.227)" fill="#bb852e"/>
        <path id="Path_9994" data-name="Path 9994" d="M600.633,160.135l-4.72-2.848-7.151,11.849,4.72,2.848Z" transform="translate(-329.35 -91.975)" fill="#bb852e"/>
        <path id="Path_9995" data-name="Path 9995" d="M703.71,213.048l-6.675-4.028-1.32,2.187,6.676,4.028Z" transform="translate(-388.213 -120.447)" fill="#bb852e"/>
        <path id="Path_9996" data-name="Path 9996" d="M694.6,216.849,689.882,214l-7.151,11.85,4.72,2.848Z" transform="translate(-381.067 -123.188)" fill="#bb852e"/>
        <path id="Path_9997" data-name="Path 9997" d="M715.326,158.422l-6.675-4.028-3.353,5.555,6.676,4.028Z" transform="translate(-393.487 -90.382)" fill="#bb852e"/>
        <path id="Path_9998" data-name="Path 9998" d="M691.844,167.821l-4.72-2.848L668.943,195.1l4.719,2.848Z" transform="translate(-373.479 -96.205)" fill="#bb852e"/>
        <path id="Path_9999" data-name="Path 9999" d="M633.874,208.735l-49.949-30.143-2.477,4.1L631.4,212.839Z" transform="translate(-325.324 -103.7)" fill="#bb852e"/>
      </g>
      <g id="Group_25403" data-name="Group 25403" transform="translate(9.843 8.318)">
        <path id="Path_10000" data-name="Path 10000" d="M200.573,172.85A183.68,183.68,0,0,0,33.71,279.692H367.437A183.68,183.68,0,0,0,200.573,172.85Z" transform="translate(-33.71 -108.858)" fill="#dda243"/>
        <path id="Path_10001" data-name="Path 10001" d="M553.988,114.683l-1.178-9.433.585.207.962-2.725-1.947-.688-.068-.526.036-12.572s.027-.342.1-1.012l.94.333.989-2.8-1.511-.535c1.012-6.443,3.867-20.53,11.551-41.438l.746.265,2.176-6.155-1.677-.594,1.241-6.484-3.107,5.823-1.677-.594-2.176,6.155.746.265c-7.154,21.092-13.786,33.848-17.046,39.5l-1.511-.535-.989,2.8.94.333c-.36.571-.553.854-.553.854L533.7,94.931l-.382.369-1.947-.688-.962,2.725.585.207-6.839,6.6,4.932,1.745a5.16,5.16,0,0,1,.162-.571c1.308-3.709,6.857-5.126,12.392-3.174s8.961,6.547,7.648,10.252a5.334,5.334,0,0,1-.234.544l4.932,1.745Zm-15.5-18.9,4.757-7.549,5.886,2.077-1.039,8.862-4.8-1.7Z" transform="translate(-303.632 -30.53)" fill="#dda243"/>
        <path id="Path_10002" data-name="Path 10002" d="M285.42,95.01l.477,4.123,13.921-1.61-.477-4.123ZM298.644,96.5,286.8,97.874l-.211-1.839,11.843-1.371Z" transform="translate(-172.243 -65.132)" fill="#dda243"/>
        <path id="Path_10003" data-name="Path 10003" d="M308.759,174.693,294.837,176.3l.477,4.123,13.922-1.611Z" transform="translate(-177.426 -109.873)" fill="#dda243"/>
        <path id="Path_10004" data-name="Path 10004" d="M287.656,89.781l-1.362.157.472,4.082,1.362-.157Z" transform="translate(-172.724 -63.14)" fill="#dda243"/>
        <path id="Path_10005" data-name="Path 10005" d="M287.917,92.826l-2.318.268.287,2.479L288.2,95.3Z" transform="translate(-172.341 -64.816)" fill="#dda243"/>
        <path id="Path_10006" data-name="Path 10006" d="M311.86,86.947,310.5,87.1l.472,4.082,1.358-.157Z" transform="translate(-186.047 -61.58)" fill="#dda243"/>
        <path id="Path_10007" data-name="Path 10007" d="M312.116,90.043l-2.318.268.287,2.479,2.318-.268Z" transform="translate(-185.66 -63.284)" fill="#dda243"/>
        <path id="Path_10008" data-name="Path 10008" d="M293.955,73.4,290.34,84.2l4.762-.877,4.838-.234Z" transform="translate(-174.951 -54.124)" fill="#dda243"/>
        <path id="Path_10009" data-name="Path 10009" d="M288.79,102.254l3.921,33.925,11.641-1.344-3.921-33.925Zm6.358,29.59-1.682.193-.5-4.321,1.682-.193Zm-.868-7.522-1.682.193-.5-4.321,1.682-.193Zm-.872-7.522-1.682.193-.5-4.321,1.682-.193Zm-.868-7.518-1.682.193-.5-4.321,1.682-.193Zm6.371,22.126-1.682.193-.5-4.321,1.682-.193Zm-.872-7.522-1.682.193-.5-4.321,1.682-.193Zm-.868-7.518-1.682.193-.5-4.321,1.682-.193Zm-.872-7.522-1.682.193-.5-4.321,1.682-.193Zm6.371,22.126-1.682.193-.5-4.321,1.682-.193Zm-.868-7.518-1.682.193-.5-4.321,1.682-.193Zm-.872-7.522-1.682.193-.5-4.321,1.682-.193Zm-.868-7.522-1.682.193-.5-4.321,1.682-.193Z" transform="translate(-174.098 -69.265)" fill="#dda243"/>
        <path id="Path_10010" data-name="Path 10010" d="M361.75,86.18l.477,4.123,13.921-1.61-.477-4.123Zm13.228,1.493-11.843,1.371-.211-1.839,11.843-1.367.211,1.839Z" transform="translate(-214.252 -60.272)" fill="#dda243"/>
        <path id="Path_10011" data-name="Path 10011" d="M385.079,165.868l-13.922,1.611.477,4.123,13.922-1.611Z" transform="translate(-219.43 -105.016)" fill="#dda243"/>
        <path id="Path_10012" data-name="Path 10012" d="M363.982,80.939l-1.362.158.473,4.082,1.362-.158Z" transform="translate(-214.731 -58.273)" fill="#dda243"/>
        <path id="Path_10013" data-name="Path 10013" d="M364.252,84.05l-2.322.269.287,2.479,2.322-.269Z" transform="translate(-214.352 -59.986)" fill="#dda243"/>
        <path id="Path_10014" data-name="Path 10014" d="M388.188,78.16l-1.362.157L387.3,82.4l1.362-.157Z" transform="translate(-228.053 -56.744)" fill="#dda243"/>
        <path id="Path_10015" data-name="Path 10015" d="M388.445,81.208l-2.318.268.287,2.479,2.318-.268Z" transform="translate(-227.669 -58.422)" fill="#dda243"/>
        <path id="Path_10016" data-name="Path 10016" d="M370.285,64.57l-3.615,10.8,4.762-.872,4.838-.238Z" transform="translate(-216.96 -49.265)" fill="#dda243"/>
        <path id="Path_10017" data-name="Path 10017" d="M365.12,93.424l3.921,33.925L380.682,126,376.761,92.08Zm6.362,29.59-1.682.193-.5-4.321,1.682-.193Zm-.872-7.522-1.682.193-.5-4.321,1.682-.193Zm-.868-7.518-1.682.193-.5-4.321,1.682-.193Zm-.872-7.522-1.682.193-.5-4.321,1.682-.193Zm6.371,22.126-1.682.193-.5-4.321,1.682-.193Zm-.868-7.518-1.682.193-.5-4.321,1.682-.193Zm-.872-7.522-1.682.193-.5-4.321,1.682-.193Zm-.868-7.522-1.682.193-.5-4.321,1.682-.193ZM379,122.147l-1.682.193-.5-4.321,1.682-.193Zm-.868-7.522-1.682.193-.5-4.321,1.682-.193Zm-.872-7.522-1.682.193-.5-4.321,1.682-.193Zm-.868-7.522-1.682.193-.5-4.321,1.682-.193Z" transform="translate(-216.107 -64.405)" fill="#dda243"/>
        <path id="Path_10018" data-name="Path 10018" d="M346.334,165.051l-26.442,3.059.191,1.653,26.442-3.06Z" transform="translate(-191.215 -104.566)" fill="#dda243"/>
        <path id="Path_10019" data-name="Path 10019" d="M338.356,96.146l-26.442,3.059.253,2.188,26.442-3.059Z" transform="translate(-186.824 -66.643)" fill="#dda243"/>
      </g>
      <g id="Group_25404" data-name="Group 25404" transform="translate(21.6 27.724)">
        <path id="Path_10020" data-name="Path 10020" d="M213.284,188.9A168.889,168.889,0,0,0,59.86,287.136H366.7A168.889,168.889,0,0,0,213.279,188.9Z" transform="translate(-59.86 -137.098)" fill="#fbca7b"/>
        <path id="Path_10021" data-name="Path 10021" d="M480.832,104.819,429.16,95.484l-.252,1.394,51.672,9.334Z" transform="translate(-262.972 -85.685)" fill="#fbca7b"/>
        <path id="Path_10022" data-name="Path 10022" d="M431.6,98.438l-.661,3.659,48.618,8.783.661-3.659Z" transform="translate(-264.089 -87.311)" fill="#fbca7b"/>
        <path id="Path_10023" data-name="Path 10023" d="M478.439,114.84l-56.459-10.2-.275,1.522,56.459,10.2Z" transform="translate(-259.008 -90.724)" fill="#fbca7b"/>
        <path id="Path_10024" data-name="Path 10024" d="M424.708,107.879l-.723,4,53.121,9.606.723-4Z" transform="translate(-260.262 -92.506)" fill="#fbca7b"/>
        <path id="Path_10025" data-name="Path 10025" d="M418.633,148.607l-2.833-.513,5.994-34.154,2.837.513Z" transform="translate(-255.758 -95.842)" fill="#fbca7b"/>
        <path id="Path_10026" data-name="Path 10026" d="M431.156,115.4l-4.58-.828-.355,1.96,4.58.828Z" transform="translate(-261.493 -96.188)" fill="#fbca7b"/>
        <path id="Path_10027" data-name="Path 10027" d="M418.606,186.99l-4.58-.828-.354,1.96,4.579.828Z" transform="translate(-254.586 -135.591)" fill="#fbca7b"/>
        <path id="Path_10028" data-name="Path 10028" d="M440.676,117.382l-2.836-.513-5.953,32.919,2.836.513Z" transform="translate(-264.611 -97.454)" fill="#fbca7b"/>
        <path id="Path_10029" data-name="Path 10029" d="M447.145,118.307l-4.579-.828-.355,1.96,4.58.828Z" transform="translate(-270.293 -97.79)" fill="#fbca7b"/>
        <path id="Path_10030" data-name="Path 10030" d="M434.208,189.092l-4.708-.045.481-2.747,4.582.827Z" transform="translate(-263.298 -135.667)" fill="#fbca7b"/>
        <path id="Path_10031" data-name="Path 10031" d="M459.6,120.767l-2.836-.513-5.947,32.92,2.836.513Z" transform="translate(-275.029 -99.317)" fill="#fbca7b"/>
        <path id="Path_10032" data-name="Path 10032" d="M466.082,121.681l-4.579-.827-.354,1.96,4.58.827Z" transform="translate(-280.716 -99.647)" fill="#fbca7b"/>
        <path id="Path_10033" data-name="Path 10033" d="M453.651,190.522l-4.579-.827-.354,1.96,4.58.827Z" transform="translate(-273.874 -137.535)" fill="#fbca7b"/>
        <path id="Path_10034" data-name="Path 10034" d="M491.587,126.574l-2.836-.513L482.8,158.98l2.836.513Z" transform="translate(-292.631 -102.513)" fill="#fbca7b"/>
        <path id="Path_10035" data-name="Path 10035" d="M498.093,127.459l-4.58-.827-.354,1.96,4.58.827Z" transform="translate(-298.333 -102.827)" fill="#fbca7b"/>
        <path id="Path_10036" data-name="Path 10036" d="M485.642,196.319l-4.579-.827-.354,1.96,4.58.827Z" transform="translate(-291.481 -140.726)" fill="#fbca7b"/>
        <path id="Path_10037" data-name="Path 10037" d="M510.025,129.9l-2.836-.513-5.947,32.92,2.836.512Z" transform="translate(-302.782 -104.342)" fill="#fbca7b"/>
        <path id="Path_10038" data-name="Path 10038" d="M516.518,130.78l-4.58-.827-.354,1.96,4.58.827Z" transform="translate(-308.474 -104.655)" fill="#fbca7b"/>
        <path id="Path_10039" data-name="Path 10039" d="M503.563,202.364l-4.433-1.569.351-1.965,4.582.827Z" transform="translate(-301.62 -142.563)" fill="#fbca7b"/>
        <path id="Path_10040" data-name="Path 10040" d="M519.773,166.93l-2.833-.513,6.083-34.168,2.837.513Z" transform="translate(-311.422 -105.919)" fill="#fbca7b"/>
        <path id="Path_10041" data-name="Path 10041" d="M532.519,133.669l-4.58-.827-.354,1.96,4.58.827Z" transform="translate(-317.281 -106.245)" fill="#fbca7b"/>
        <path id="Path_10042" data-name="Path 10042" d="M519.728,205.354l-4.579-.828-.355,1.96,4.58.828Z" transform="translate(-310.241 -145.698)" fill="#fbca7b"/>
        <path id="Path_10043" data-name="Path 10043" d="M486.225,100.776a3.55,3.55,0,1,1-2.779-4.478A3.738,3.738,0,0,1,486.225,100.776Z" transform="translate(-290.653 -86.104)" fill="#fbca7b"/>
        <path id="Path_10044" data-name="Path 10044" d="M495.6,103.333a2.783,2.783,0,1,1-2.181-3.512,2.929,2.929,0,0,1,2.181,3.512Z" transform="translate(-296.649 -88.05)" fill="#fbca7b"/>
        <path id="Path_10045" data-name="Path 10045" d="M477.228,100.013a2.781,2.781,0,1,1-2.176-3.512A2.931,2.931,0,0,1,477.228,100.013Z" transform="translate(-286.539 -86.223)" fill="#fbca7b"/>
        <path id="Path_10046" data-name="Path 10046" d="M484.8,101.822,466.957,98.6l-.645,3.571,17.845,3.224Z" transform="translate(-283.558 -87.399)" fill="#fbca7b"/>
        <path id="Path_10047" data-name="Path 10047" d="M183.485,94.4l-1.969-4.173-5.553-3.026-.9.427-.634-1.344-.6.283L172.613,84l.162-.076-.319-.674-.238.112-5.477-6.025-1.722-3.647-.319.153L164.38,74l1.722,3.647,1.169,8.057-.279.13.319.67.18-.085,1.214,2.572-.607.283.634,1.344-.9.427-1.2,6.209,1.969,4.173-1.965.926,8.966,18.993,1.295-.612L189.06,146.49l16.218-7.653-12.158-25.759,1.295-.611-8.961-18.992-1.965.926Zm-6.479,24.928-1.2.567-.886-1.879,1.2-.567ZM179.2,92.165l1.344-.634,1.556,3.291-1.349.634L179.2,92.165Zm-1.389.652,1.556,3.291-1.349.634-1.556-3.291Zm-6.749-7.855,1.21-.571,1.057,2.235-1.21.571-1.057-2.239Zm-1.569.742,1.21-.571,1.057,2.235-1.21.571L169.492,85.7Zm4.236,9.042,1.344-.634,1.551,3.291-1.344.634-1.556-3.291Zm-5.8-8.3,1.21-.571,1.057,2.239-1.21.571Zm3.066,9.6,1.344-.634,1.556,3.291-1.349.634-1.556-3.291Zm-2.734,1.29,1.344-.634,1.556,3.291-1.344.634Zm21.6,45.08-1.156.544-4.137-8.768,1.16-.544,4.137,8.768Zm-5.8-12.3-1.16.549-4.137-8.768,1.156-.549Zm-4.735-11.866-1.2.567-.886-1.879,1.2-.567ZM192.208,141.3l-1.16.544-4.137-8.768,1.16-.549,4.137,8.768ZM186.4,129l-1.16.549-4.137-8.768,1.16-.549Zm-4.78-11.843-1.2.567-.886-1.879,1.2-.567Zm12.936,23.03-1.16.549-4.137-8.768,1.16-.549Zm-5.8-12.3-1.16.544-4.137-8.768,1.16-.544Zm-4.82-11.825-1.2.567-.886-1.879,1.2-.567Zm13.8,22.626-1.16.549-4.137-8.768,1.16-.544,4.137,8.768Zm-12.689-23.147-.886-1.879,1.2-.567.886,1.879Zm6.884,10.85-1.16.544-4.137-8.768,1.16-.544Zm8.156,11.187-1.16.544-4.137-8.768,1.16-.544Zm-12.734-23.129-.886-1.879,1.2-.567.886,1.879Zm6.933,10.832-1.16.549-4.137-8.768,1.16-.549Zm8.152,11.187-1.156.549-4.141-8.768,1.16-.549Zm-12.774-23.107-.886-1.879,1.2-.567.886,1.879Zm6.974,10.809-1.16.549-4.137-8.768,1.156-.549,4.137,8.768ZM183.116,112.9a7.564,7.564,0,0,1-10.067-3.611q-.108-.236-.2-.472c-.018-.04-.031-.081-.045-.117-.058-.157-.112-.31-.157-.468v-.013c-.049-.162-.09-.324-.126-.49a.83.83,0,0,1-.022-.112c-.031-.162-.063-.319-.09-.481v-.009c-.023-.166-.04-.337-.054-.5a.6.6,0,0,0,0-.09,8.367,8.367,0,0,1,0-1.007.388.388,0,0,1,0-.072q.02-.25.054-.5a7.562,7.562,0,0,1,11.38-5.373c.144.085.283.175.418.274.018.013.04.027.058.04a7.572,7.572,0,0,1,.782.638c.022.022.045.04.067.063.121.117.243.238.355.36v0c.108.121.216.247.319.373.022.031.045.058.067.09.1.135.2.27.3.409a.014.014,0,0,0,0,.009c.09.135.175.279.261.418.022.036.04.072.063.112.081.148.162.3.238.459a7.564,7.564,0,0,1-3.611,10.067Zm10.049-1.192-1.2.567-.886-1.879,1.2-.567Z" transform="translate(-117.384 -73.69)" fill="#fbca7b"/>
        <path id="Path_10048" data-name="Path 10048" d="M191.831,130.669l-.342.161.808,1.712.341-.161Z" transform="translate(-132.304 -105.049)" fill="#fbca7b"/>
        <path id="Path_10049" data-name="Path 10049" d="M204.145,157.63l.342-.162-.8-1.709-.342.162Z" transform="translate(-138.827 -118.859)" fill="#fbca7b"/>
        <path id="Path_10050" data-name="Path 10050" d="M185.784,149.919l-1.712.808.161.341,1.712-.808Z" transform="translate(-128.222 -115.644)" fill="#fbca7b"/>
        <path id="Path_10051" data-name="Path 10051" d="M210.874,138.088l-1.712.808.161.341,1.712-.808Z" transform="translate(-142.031 -109.132)" fill="#fbca7b"/>
        <path id="Path_10052" data-name="Path 10052" d="M200.286,129.439l-.277,1.868.374.055.277-1.868Z" transform="translate(-136.994 -104.372)" fill="#fbca7b"/>
        <path id="Path_10053" data-name="Path 10053" d="M196.216,156.883l-.276,1.868.374.055.276-1.868Z" transform="translate(-134.754 -119.477)" fill="#fbca7b"/>
        <path id="Path_10054" data-name="Path 10054" d="M182.884,142.547l-.055.374,1.868.277.055-.374Z" transform="translate(-127.538 -111.587)" fill="#fbca7b"/>
        <path id="Path_10055" data-name="Path 10055" d="M210.345,146.619l-.055.374,1.873.277.055-.374Z" transform="translate(-142.652 -113.828)" fill="#fbca7b"/>
        <path id="Path_10056" data-name="Path 10056" d="M206.379,132.117l-1.11,1.533.306.222,1.11-1.534Z" transform="translate(-139.888 -105.846)" fill="#fbca7b"/>
        <path id="Path_10057" data-name="Path 10057" d="M190.082,154.577l-1.111,1.532.306.222,1.111-1.532Z" transform="translate(-130.918 -118.207)" fill="#fbca7b"/>
        <path id="Path_10058" data-name="Path 10058" d="M185.72,135.575l-.222.306,1.533,1.11.222-.306Z" transform="translate(-129.007 -107.749)" fill="#fbca7b"/>
        <path id="Path_10059" data-name="Path 10059" d="M207.98,152.166l1.533,1.111.22-.31L208.2,151.86Z" transform="translate(-141.38 -116.712)" fill="#fbca7b"/>
        <path id="Path_10060" data-name="Path 10060" d="M197.932,144.463a.567.567,0,1,0,.755.27A.567.567,0,0,0,197.932,144.463Z" transform="translate(-135.672 -112.611)" fill="#fbca7b"/>
      </g>
      <g id="Group_25405" data-name="Group 25405" transform="translate(37.778 52.135)">
        <path id="Path_10061" data-name="Path 10061" d="M145.924,179.485s-6.825,1.084-11.83-2.136l-1.47,1.254-3.534-4.137,4.289-3.669s-5.49.872-9.514-1.718l-.814.7-4.568-5.346,1.915-1.637c-5.3,2.666-11.3,1.9-13.179,1.565l-2.639-3.089-.4.346,2.639,3.089c.04,1.9-.135,7.958-3.593,12.774l2.374-2.028,4.568,5.346-1.286,1.1c1.933,4.379.22,9.663.22,9.663l4.91-4.2,3.539,4.137-2.086,1.785c2.406,5.445.274,12.014.274,12.014L120,201.652l6.668,7.8,1.808-1.542-4.159-4.865a2,2,0,0,1,3.044-2.6l4.159,4.865,2.014-1.722-2.482-2.9a4.585,4.585,0,0,1,.5-6.461l.976-.836a4.581,4.581,0,0,1,6.461.5l2.482,2.9,2.023-1.727-4.159-4.865a2,2,0,1,1,3.044-2.6l4.159,4.865,1.794-1.538-6.668-7.8,4.263-3.642Zm-39.316-4.9,5.207-4.451,5.661-4.843,4.568,5.346-10.868,9.289-4.568-5.346Zm8.417,11.906,5.7-4.87,1.048-.895,6.313-5.4,3.534,4.137-13.057,11.16-3.534-4.137Zm118.627-22.527A151.7,151.7,0,0,0,95.84,252.209H371.465A151.7,151.7,0,0,0,233.652,163.968Zm4.793-1.987L236.107,144a111.775,111.775,0,0,0-23.206.427l-1.277-9.807a21.1,21.1,0,0,0-6.1.414l-.908-6.987a21.128,21.128,0,0,0-17.266,6.852l-.49.535,1.915,14.721,2.019,15.508.319,2.473-2.842.369.477,3.674,53-6.893-.477-3.674-2.842.369Zm-44.451,3.709-2.118.274-.679-5.216,2.118-.274Zm-1.21-9.325-2.118.274-.679-5.216,2.118-.274Zm-1.295-9.928-2.118.274-.679-5.216,2.118-.274Zm-.958-8.7-2.05.265-.382-2.95,2.05-.265Zm8.084,27.351-2.118.274-.679-5.216,2.118-.274Zm-1.21-9.321-2.118.274-.679-5.216,2.118-.274Zm-1.295-9.932-2.118.274-.679-5.216,2.118-.274Zm-1.1-8.682-2,.261-.58-4.451,2-.261Zm8.228,27.333-2.118.274-.679-5.216,2.118-.274Zm-1.21-9.321-2.118.274-.679-5.216,2.118-.274Zm-1.29-9.932-2.118.274-.679-5.216,2.118-.274Zm-1.124-8.678-2.05.265-.71-5.463,2.05-.265Zm8.246,27.333-2.118.274-.679-5.216,2.118-.274Zm-1.21-9.325-2.118.274-.679-5.216,2.118-.274Zm-1.295-9.928-2.118.274-.679-5.216,2.118-.274Zm-1.129-8.682-2.118.274-.827-6.344,2.118-.274Zm8.777,27.266-2.118.274-.679-5.216,2.118-.274Zm-1.214-9.325-2.118.274-.679-5.216,2.118-.274Zm-1.29-9.928-2.118.274-.679-5.216,2.118-.274Zm7.486,18.606-2.118.274-.679-5.216,2.118-.274Zm-1.214-9.325-2.118.274-.679-5.216,2.118-.274Zm5.836,8.723-2.118.274-.679-5.216,2.118-.274Zm-1.214-9.321-2.118.274-.679-5.216,2.118-.274Zm5.836,8.718-2.118.274-.679-5.216,2.118-.274Zm-1.214-9.321-2.118.274-.679-5.216,2.118-.274Zm5.836,8.723-2.118.274-.679-5.216,2.118-.274Zm-1.214-9.325-2.118.274-.679-5.216,2.118-.274ZM237,160.1l-2.118.274-.679-5.216,2.118-.274Zm-1.214-9.325-2.118.274-.679-5.216,2.118-.274ZM365.233,152.3l-1.623,1.367.661.782-6.3,5.3-2.4-2.851-1.623,1.362,1.254,1.493-8.6,7.23-1.254-1.493-1.623,1.362,1.254,1.493-8.6,7.23-1.255-1.493-1.623,1.367,1.254,1.493-14.631,12.306-1.974-1.38-2.32,3.318L337.6,206.4l2.32-3.318-1.843-1.29,10.3-8.664,1.254,1.493,1.623-1.362L350,191.769l8.6-7.23,1.254,1.493,1.623-1.362-1.254-1.493,8.6-7.23,1.254,1.493,1.623-1.362-2.4-2.851,6.3-5.3.661.782,1.623-1.362L365.233,152.3Zm6.034,11.915-4.937,4.155-1.3-1.547,4.937-4.155Zm-2.689-3.2-4.937,4.155-1.3-1.547,4.937-4.155Zm-5.5,10.859-6.173,5.189-1.488-1.772,6.169-5.193,1.488,1.772Zm1.506-15.6,1.3,1.547-4.937,4.155-1.3-1.547Zm-6.358,9.833,1.488,1.772-6.173,5.193-1.488-1.772Zm-17.536,21.578,1.488,1.772-6.169,5.193-1.488-1.772,6.173-5.193Zm-8.044,2.963-1.488-1.772,6.173-5.193,1.488,1.772Zm10.449-8.79-1.488-1.772,6.173-5.193,1.488,1.772Zm8.044-2.963,1.488,1.772-6.174,5.193-1.488-1.772Zm3.723-16.785,1.488,1.772-6.173,5.193-1.488-1.772Zm-10.449,8.79,1.488,1.772-6.173,5.193-1.488-1.772Zm-10.449,8.79,1.488,1.772-6.173,5.193-1.488-1.772Zm5.4,18.952-1.488-1.772,6.173-5.193,1.488,1.772Zm10.449-8.79-1.488-1.772,6.173-5.193,1.488,1.772-6.173,5.189Zm10.449-8.79-1.488-1.772,6.173-5.193,1.488,1.772Zm8.75-9.5-1.3-1.547,4.937-4.155,1.3,1.547Z" transform="translate(-95.84 -127.979)" fill="#ffe6bb"/>
      </g>
      <g id="Group_25406" data-name="Group 25406" transform="translate(170.353 1.412)">
        <path id="Path_10062" data-name="Path 10062" d="M412.78,17.539c-.616-1.25-3.309-1.187-7.99,1.079L402.578,17.3l.643-.319-.5-1.012-1.3.643L399,15.17l-3.129,1.088,4.91,4.555a35.491,35.491,0,0,0-6.241,4.559l-2.329-1.565-1.524.751,2.6,2.594.477,3.642,1.524-.751.175-2.8a35.317,35.317,0,0,0,7.414-2.176l.625,6.668,2.765-1.826.36-3.1,1.151-.567-.5-1.012-.495.243.261-2.253c4.649-2.338,6.335-4.433,5.719-5.683Z" transform="translate(-390.69 -15.17)" fill="#bb852e"/>
      </g>
      <g id="Group_25408" data-name="Group 25408" transform="translate(49.64 94.729)">
        <g id="Group_25407" data-name="Group 25407">
          <path id="Path_10063" data-name="Path 10063" d="M248.171,222.71A138.646,138.646,0,0,0,122.22,303.356h251.9A138.646,138.646,0,0,0,248.167,222.71Z" transform="translate(-122.22 -222.71)" fill="#fff"/>
          <g id="Mask_Group_69" data-name="Mask Group 69" transform="translate(0 0)" clip-path="url(#clip-path-2)">
            <g id="Group_25409" data-name="Group 25409" transform="translate(20.481 1.426)">
              <path id="Path_10064" data-name="Path 10064" d="M199.379,246.217a5.093,5.093,0,0,0-4.591,1.317.879.879,0,0,0,.872.639l-.387,1.556a12.908,12.908,0,0,1,6.718-.319.5.5,0,0,1-.036.976c-5.328.8-10.616,1.816-15.9,2.837l-11.942,2.307a7.478,7.478,0,0,0-3.458,1.933c-1.317,1.416-3.5,3.512-2.716,4.775.917,1.47,5.859,2.477,5.544,4.177,2.356-.1,4.092-2.163,6.16-3.3,4.245-2.334,9.474-.625,13.993,1.111a1.191,1.191,0,0,1,2.334.468,2.417,2.417,0,0,0,3,1.07c.814,1.142.931,2.617,1.272,3.975a11.854,11.854,0,0,0,6.38,7.743c2.32,1.084,3.395,2.842,5.548,4.442a1.775,1.775,0,0,0,1.021.373c1.115.022,1.349-1.088,1-1.83a3.949,3.949,0,0,0-1.223-1.308q-1.807-1.41-3.615-2.824a3.936,3.936,0,0,1,3.795.949,13.252,13.252,0,0,1,2.441,3.282,14.172,14.172,0,0,0,3.7,4.406,5.58,5.58,0,0,0,5.472.755,21.184,21.184,0,0,1,8.7,3.606c.634.454,1.556.935,2.1.378,0,.4.567.544.926.373.58-.27.908-.976,1.821-.648a1.606,1.606,0,0,1,.962.949,3.165,3.165,0,0,1-.342,2.423,12.111,12.111,0,0,0-1,2.167,2.168,2.168,0,0,0,.508,2.212c-.571.809-.1,1.673.58,2.392a23.215,23.215,0,0,1,2.172,2.023c.9,1.228.926,2.986,1.987,4.074,1.142,1.174,3.066,1.151,4.4,2.109a4.716,4.716,0,0,1,1.736,3.165,14.148,14.148,0,0,1-.108,3.7q-.587,4.917-1.169,9.838l1.367.045c.256,1.641.2,1.277.454,2.918l-2.518.895c.647,2.185,1.506,4.622,3.579,5.566,1.673.764,3.624.3,5.4-.184.072-.243.144-.481.216-.724-.409.081-.814.157-1.219.238a8.423,8.423,0,0,1-1-3.377l.7-.373c-.04-1-.045-1.156-.085-2.158l-.724-.315c.486-1.722.342-1.209.827-2.932l.7.1.216-.863c-.513.256-.9-.656-.553-1.111s.967-.589,1.43-.922.692-1.165.175-1.407a4,4,0,0,0,2.455-1c.6-.674.49-2-.382-2.226a3.787,3.787,0,0,0,3.93-3.948c.917.225,1.614-.872,1.7-1.812s-.067-1.983.495-2.743a5.172,5.172,0,0,1,1.992-1.219c.7-.36,1.389-1.07,1.178-1.826,1.237-.234,1.668-1.754,1.852-3q.418-2.792.832-5.589a29.733,29.733,0,0,0,.45-4.762,1.4,1.4,0,0,0-1.682.706,7.221,7.221,0,0,0-5.18-.854c-.229-.7-1.1-.935-1.835-.944a3.582,3.582,0,0,1-2.131-.369c-.625-.463-.769-1.331-1.232-1.956-.9-1.209-2.693-1.173-4.069-1.8-.922-.418-1.682-1.151-2.635-1.5s-2.271-.094-2.558.877l-.89-1.124a8.771,8.771,0,0,1-6.182.517,1.873,1.873,0,0,1-1.8,2.19,1.238,1.238,0,0,0-1.875-.958l-3.08,1.87a2.118,2.118,0,0,1-1.808-.432,2.238,2.238,0,0,1-.809-1.731c0-.432.135-.854.153-1.286a1.217,1.217,0,0,0-.49-1.129,1.577,1.577,0,0,0-.989-.094c-1.021.121-2.037.247-3.057.369-.351-.567-.018-1.29.274-1.888s.522-1.4.04-1.866a1.694,1.694,0,0,0-1.322-.279,2.257,2.257,0,0,0-1.6.549c-.373.432-.369,1.07-.594,1.592a1.712,1.712,0,0,1-2.046.971,2.973,2.973,0,0,1-1.147-.931,6.33,6.33,0,0,1-.98-1.34,2.069,2.069,0,0,1-.148-1.614,1.7,1.7,0,0,0,.22-.76c-.036-.31-.324-.54-.382-.845-.085-.45.337-.818.724-1.057s.841-.531.863-.985a3.839,3.839,0,0,1,2.163-.027,2.357,2.357,0,0,0,2.073-.423l-.166-.962,2.689-.5a1.981,1.981,0,0,1,1.691,1.367,2.25,2.25,0,0,0,.283.791,2.313,2.313,0,0,0,.769.477,2,2,0,0,0,.913.4c.5-.009.823-.62.724-1.115a2.665,2.665,0,0,0-.823-1.25,3.39,3.39,0,0,1-.665-1.4,1.478,1.478,0,0,1,.252-1.448c.346-.36.926-.463,1.2-.881.166-.256.189-.58.342-.845a1.682,1.682,0,0,1,.778-.607,3.459,3.459,0,0,0,.877-.481.864.864,0,0,0,.306-.895.5.5,0,0,0-.8-.211c.337-.769.67-1.542,1.007-2.316a2.309,2.309,0,0,1,.5-.809,3.365,3.365,0,0,1,1.115-.513,1.147,1.147,0,0,0,.818-.841,4.4,4.4,0,0,0-.157-.827,1.309,1.309,0,0,1,.594-1.138,3.729,3.729,0,0,1,1.232-.513,2.63,2.63,0,0,0,2.653.522,3.011,3.011,0,0,0,1.826-2.041.732.732,0,0,0,0-.5.71.71,0,0,0-.791-.283,2.65,2.65,0,0,1-.89.126c-.436-.072-.715-.486-.976-.841s-.634-.728-1.07-.656c-.351.058-.589.382-.881.585s-.818.2-.89-.144c-.067-.319.306-.54.612-.647q1.511-.54,3.022-1.075a6.879,6.879,0,0,1,3.233-.589,3.489,3.489,0,0,0-.315,1.21,1.17,1.17,0,0,0,.558,1.057,1.7,1.7,0,0,0,1.281-.076c.526-.175,1.133-.432,1.174-1.03a.958.958,0,0,0-.594-.9,2.547,2.547,0,0,0-1.9.144l1.07-1.933a1.012,1.012,0,0,1-.841-1.124c-.18.229-.558.148-.773-.045s-.346-.472-.562-.661c-.67-.589-1.83-.144-2.536-.692a6.9,6.9,0,0,1-1.7-1.376,1.431,1.431,0,0,0-.944-.634c-1.034-.144-1.281.683-1.52,1.367-.175.495-.486,1.039-1.007,1.084-.7.054-1.061-.782-1.542-1.286-.8-.836-2.113-.809-3.264-.728a4.016,4.016,0,0,0-1.308.243,1.388,1.388,0,0,0-.859.958c-.108.594.31,1.142.486,1.722a2.276,2.276,0,0,1-.976,2.536,2.987,2.987,0,0,0-.71.454,1.22,1.22,0,0,0-.193,1.183,3.519,3.519,0,0,0,.643,1.07,2.8,2.8,0,0,1-2.572-1.129c-.62-.872-.814-2.181-2.374-1.983a2.658,2.658,0,0,0-1.048.369,3.6,3.6,0,0,1-3.925.189,1.921,1.921,0,0,1-.8-1.826c.171-1.007,1.133-1.448,1.924-1.956.692-.45,1.376-1.205,1.156-2,1.394-.018,2.941-.1,3.925-1.088a.657.657,0,0,1-.193-.868,1.958,1.958,0,0,1,.715-.665,2.842,2.842,0,0,0,.5-.4.973.973,0,0,0,.189-1,.884.884,0,0,0-1.569-.157,1.618,1.618,0,0,0-2.594.45c-.1.315-.117.688-.369.9a1.119,1.119,0,0,1-.881.126,6.343,6.343,0,0,1-3.08-.98c-.4-.306-.719-.706-1.142-.98a1.28,1.28,0,0,0-1.412-.094,1.464,1.464,0,0,0-.189,1.488,11.059,11.059,0,0,1,.553,1.479,1.176,1.176,0,0,1-.571,1.335c-.571.216-1.147-.265-1.722-.463a5.537,5.537,0,0,0-2.7.229c-.9.162-2.046-.027-2.361-.886a2.291,2.291,0,0,0,1.587.315c.531-.162.845-.953.4-1.281-.319-.234-.769-.081-1.129.081l-3.057,1.376a.49.49,0,0,1-.692-.522,1.539,1.539,0,0,0,.031-.454,1.4,1.4,0,0,0-1.111-1.29,1.078,1.078,0,0,0-1.214,1.052,1.557,1.557,0,0,0-1.619-.346,4,4,0,0,1-1.718.238c-.571-.126-1.039-.85-.67-1.3a1.219,1.219,0,0,0-1.38.562Z" transform="translate(-167.77 -236.091)" fill="#ffeccd"/>
              <path id="Path_10065" data-name="Path 10065" d="M480.014,231.581a.549.549,0,0,1-.459-.342,8.965,8.965,0,0,0-8.754-5.333.58.58,0,0,0-.315,1.007,8.333,8.333,0,0,0,4.726,2.023.557.557,0,0,1,.513.531l.009.148a.559.559,0,0,1-.7.585,29.379,29.379,0,0,0-16.452.1.577.577,0,0,0-.378.683c.175.751-.436,1.74-1.227,1.637a1.064,1.064,0,0,1-.234.733c-.423.549-1.241-.1-.863-.683a4.072,4.072,0,0,0,.638-2.325.54.54,0,0,0-.63-.513l-.593.1v-.126a.544.544,0,0,0-.8-.468,12.769,12.769,0,0,1-5.9,1.1l-8.233.189a3.3,3.3,0,0,1-4.384,2.617,4.265,4.265,0,0,1-1.439-3.085,2.454,2.454,0,0,0,2.563.8.722.722,0,0,0-.067-1.412l-4.91-.562c-.009-.315.166-.265.157-.576-1.632-.022-3.269,0-4.9.063a3.988,3.988,0,0,0-2.311.589,10.437,10.437,0,0,0-1.47,1.947c-.513.643-1.227,1.1-1.7,1.776a2.3,2.3,0,0,0,.229,3.08,1.484,1.484,0,0,0,1.178.324c1.03-.18,1.281-1.272,1.92-1.942a2.189,2.189,0,0,1,2.6-.4c.333.715.04,1.237-.459,1.835a3.7,3.7,0,0,1-1.38,1.016,12.365,12.365,0,0,1-4.105.971c-1.084.067-2.172-.013-3.251.1a4.567,4.567,0,0,0-3.449,1.781,2.707,2.707,0,0,0-.459,1.974c.261,1.475,1.664,2.055,2.918,2.491l6.4,2.244a3.455,3.455,0,0,0,.315-2.648.661.661,0,0,0,.647-.508,3.862,3.862,0,0,1-1.475-1.088c.108-.256.13-.306.238-.567a2.311,2.311,0,0,1,1.938,1.7c.328.881.4,1.857.764,2.725a2.126,2.126,0,0,0,2.082,1.5c.081-.553.144-1.021.229-1.569.607-.207,1.254.351,1.412.994a3.8,3.8,0,0,1-.207,1.956,6.861,6.861,0,0,1,6.16.3,6.151,6.151,0,0,1-6.5,1.565,11.157,11.157,0,0,0-2.684-1.025c-.953-.1-2.1.535-2.077,1.533-.486-.049-.971-.094-1.457-.144a3.609,3.609,0,0,0-3.237-2.95c-.157-.611-.315-1.219-.472-1.825a12.923,12.923,0,0,1-8.952.36c-.719.526-2.2.832-2.909,1.421-.854.71-.85,1.749-1.6,2.558-1.066,1.156-2.244,1.362-2.815,2.743-.432,1.043-.049,2.424-.04,3.611,0,.922-.45,3.516-.112,4.357a7.3,7.3,0,0,0,2.023,2.45c1.133,1.1,2.864.863,4.411,1.021a16.241,16.241,0,0,0,2.536.346c.787-.031,1.551-.463,2.271-.337a4.83,4.83,0,0,1,1.992,1.3c.261.225.1,1.335.288,1.628.427.652,1.075.585,1.25,1.358a35.161,35.161,0,0,1-.211,3.557c.076,1.169.683,1.124.535,2.3-.139,1.1-1.025,2.176-.517,3.871a35.653,35.653,0,0,1,.8,4.29,15.365,15.365,0,0,0,.877,3.4c.4,1.277.994,2.644,2.176,3.183,1.56.71,3.336-.333,4.636-1.5a22.742,22.742,0,0,0,6.007-8.709c1.254,0,2.055-1.466,2.167-2.765s-.175-2.644.193-3.894c.571-1.929,2.473-3.013,4.06-4.177a5.36,5.36,0,0,0,2.509-5c-1.727-.8-4.186-.166-4.82-2.1a11.758,11.758,0,0,1-3.6-8.458c2.792,1.488,2.316,6.362,5.036,7.99,2.356,1.412,5.216-.584,7.266-2.473q-1.477-2.516-2.95-5.022c.162.121.324.247.49.364,1.983,1.416,4.4,2.482,6.767,1.969l.418.976a1.916,1.916,0,0,1,1.924,1.52l1.052.1-.207,2.392a2.525,2.525,0,0,1,2.437,1.938,9.48,9.48,0,0,1,.144,3.44c-.054.859.027,1.92.89,2.194a1.232,1.232,0,0,0,1.048-.18,3.439,3.439,0,0,0,1.173-1.969,12.129,12.129,0,0,1,1.727-3.786,3.8,3.8,0,0,1,3.53-1.623,2.434,2.434,0,0,1,1.821,3.116.833.833,0,0,0,1.129-.076c-.728,3.417,1.538,7.369,4.33,9.294.715-1.308-.117-2.9-.863-4.173s-1.38-3.04-.4-4.155c.7,1.416,1.52,2.95,3.161,3.233a1.865,1.865,0,0,0,2.064-1.142c.63-1.641-1.677-2.576-.71-4.227a2.122,2.122,0,0,1,1.569-1c2.248-.3,4.717-1.218,6.016-3.233,1.124-1.736,1.039-4.4-.576-5.629a1.723,1.723,0,0,1,.922-1.929,6.272,6.272,0,0,0,2.9,3.5c.022.324.045.648.067.967.22.67,1.295.481,1.6-.157a3.319,3.319,0,0,0-.04-2.086,2.277,2.277,0,0,1,.265-2.023,2.908,2.908,0,0,1,1.844-.562,4.9,4.9,0,0,0,3.831-3.2c.243.166.481.333.724.5l.98-2.059a1.793,1.793,0,0,1,.4,1.983c.589.175,1.2-.382,1.335-1a3.657,3.657,0,0,0-.234-1.866,3.118,3.118,0,0,0-.585-1.223.984.984,0,0,0-1.2-.261c-.351.22-.495.724-1.012.706a.844.844,0,0,1-.769-.76,1.406,1.406,0,0,1,1.2-1.421,4.964,4.964,0,0,1,1.745.067,15,15,0,0,0,8.9-1.556,2.34,2.34,0,0,1,2.046-.4.793.793,0,0,1,.355,1.281c-.418.5-1.232.139-1.884.207-1.254.13-1.8,1.884-2.163,2.9a2.335,2.335,0,0,0-.067,1.475c.423,1.335,1.844,1.106,2.531.328a5.028,5.028,0,0,0,.926-2.19c.225.589,1.133.355,1.488-.166s.495-1.214.989-1.6c.724-.558,1.718-.13,2.59.094a2.343,2.343,0,0,0,.8.054V236.2a222.75,222.75,0,0,0-31.627-4.6Z" transform="translate(-297.328 -225.879)" fill="#ffeccd"/>
              <path id="Path_10066" data-name="Path 10066" d="M568.889,327.453a6.292,6.292,0,0,0,.859,1.493,4.7,4.7,0,0,0,1.592,1.007,2.1,2.1,0,0,0,.764.238.719.719,0,0,0,.679-.342.709.709,0,0,0-.135-.742,1.6,1.6,0,0,0-.121-.126.609.609,0,0,1-.112-.8,1.939,1.939,0,0,0,.144-.27.405.405,0,0,0-.265-.553,3.006,3.006,0,0,1-1.335-1.039q-.857-1-1.709-2c-2.1-1.915-3.907-2.388-4.069-1.8.1.8.859,1.209,1.457,1.569,1.2.719,1.641,2.109,2.266,3.363Z" transform="translate(-386.492 -278.942)" fill="#ffeccd"/>
              <path id="Path_10067" data-name="Path 10067" d="M590.632,341.254a6.455,6.455,0,0,1-.989-.513c-.342-.2-.683-.409-1.025-.612a12.521,12.521,0,0,0-3.431-.553,3.658,3.658,0,0,0-2.248.189c-.171.2-.144.288.261.373a1.334,1.334,0,0,1,1.34.328q2.907.614,5.818,1.232a9.334,9.334,0,0,0,1.169.2c.994.081,3.611-.261,2.824-.76.09-.153-2.54.562-3.714.117Z" transform="translate(-396.211 -288.395)" fill="#ffeccd"/>
              <path id="Path_10068" data-name="Path 10068" d="M586.746,322.085a.241.241,0,0,0-.153.31c.238.67-.135,1.461,0,2.536.045.351,1.38.364,1.668.567.684.486,1.632,0,2.464.121.391.058.791.256,1.16.112a1.175,1.175,0,0,0,.585-1.043,2.806,2.806,0,0,1,.229-1.227c.216-.36.8-.526,1.043-.18.859.238,1.511-.414.157-1.16-.4.283-.98-.22-.962-.715a2.272,2.272,0,0,1,.7-1.281,1.7,1.7,0,0,0,.535-1.335c-.148.162-.427-.031-.472-.247s.009-.454-.09-.652c-.211-.432-.854-.283-1.281-.072A10.586,10.586,0,0,0,589.012,320c-.7.769-.719,1.614-2.257,2.091Z" transform="translate(-398.26 -276.367)" fill="#ffeccd"/>
              <path id="Path_10069" data-name="Path 10069" d="M599.591,348.748a6.216,6.216,0,0,0-2.819,2.936,21.106,21.106,0,0,1-3.588,1.506,1.069,1.069,0,0,0-.728.908,12.382,12.382,0,0,0,0,2.581.631.631,0,0,1-.292.611.8.8,0,0,0-.319.989,8.948,8.948,0,0,1,.612,1.484,4.142,4.142,0,0,0,.45,1.147c.71,1.1,2.293,1.259,3.543.886s2.356-1.147,3.6-1.547a6.553,6.553,0,0,1,6.47,1.538,3.532,3.532,0,0,0,1.43-.585,2.771,2.771,0,0,0,.265,1.92c.387.54,1.394.607,1.61-.018a2.768,2.768,0,0,0,3.885,1.493c1.6-.845,2.172-2.819,2.59-4.586q.358-1.524.719-3.044a3.035,3.035,0,0,0,.018-1.965c-.414-.89-1.529-1.147-2.347-1.686-1.924-1.263-2.127-3.988-3.048-6.043a1.068,1.068,0,0,0-.872-.656c-.922-.063-1.093,1.106-.989,1.942.108.859,0,2.064-.994,2.014a1.3,1.3,0,0,1-.944-.544c-.346-.45-1.124-1.034-1.659-.652a1.768,1.768,0,0,1,.733-1.556,2.342,2.342,0,0,0-2.172-1.088c-.854.027-1.812,1.956-2.594,2.293-.922.4-1.691-.8-2.558-.292Z" transform="translate(-401.133 -292.328)" fill="#ffeccd"/>
            </g>
          </g>
        </g>
      </g>
    </g>
  </g>
</svg>
