<svg id="Group_23279" data-name="Group 23279" xmlns="http://www.w3.org/2000/svg" width="24" height="24" viewBox="0 0 24 24">
  <path id="Box" d="M0,0H24V24H0Z" fill="none"/>
  <path id="Icon_feather-phone-call" data-name="Icon feather-phone-call" d="M11.5,4.075a3.218,3.218,0,0,1,2.542,2.542M11.5,1.5a5.793,5.793,0,0,1,5.117,5.11m-.644,5.136v1.931a1.287,1.287,0,0,1-1.4,1.287,12.738,12.738,0,0,1-5.555-1.976A12.551,12.551,0,0,1,5.149,9.127a12.738,12.738,0,0,1-1.976-5.58,1.287,1.287,0,0,1,1.281-1.4H6.385A1.287,1.287,0,0,1,7.672,3.251a8.264,8.264,0,0,0,.451,1.809,1.287,1.287,0,0,1-.29,1.358l-.817.817A10.3,10.3,0,0,0,10.877,11.1l.817-.817a1.287,1.287,0,0,1,1.358-.29,8.264,8.264,0,0,0,1.809.451A1.287,1.287,0,0,1,15.969,11.747Z" transform="translate(2.11 3.765)" fill="none" stroke="#3e3e3e" stroke-linecap="round" stroke-linejoin="round" stroke-width="1"/>
</svg>
