<?xml version="1.0" encoding="UTF-8"?>
<svg id="Layer_1" data-name="Layer 1" xmlns="http://www.w3.org/2000/svg" xmlns:xlink="http://www.w3.org/1999/xlink" viewBox="0 0 22 22">
  <defs>
    <style>
      .cls-1, .cls-2, .cls-3, .cls-4, .cls-5, .cls-6, .cls-7, .cls-8, .cls-9, .cls-10, .cls-11, .cls-12, .cls-13, .cls-14, .cls-15, .cls-16, .cls-17, .cls-18, .cls-19, .cls-20, .cls-21, .cls-22, .cls-23, .cls-24, .cls-25 {
        stroke: #010101;
      }

      .cls-1, .cls-4, .cls-7, .cls-8, .cls-26, .cls-18, .cls-22 {
        stroke-width: .01px;
      }

      .cls-1, .cls-12, .cls-14, .cls-20, .cls-27 {
        fill: #c8b22e;
      }

      .cls-2 {
        fill: #eb72a9;
      }

      .cls-2, .cls-3, .cls-5, .cls-11, .cls-12, .cls-24, .cls-25 {
        stroke-width: .02px;
      }

      .cls-28, .cls-3 {
        fill: #fff;
      }

      .cls-4, .cls-29 {
        fill: #295fac;
      }

      .cls-5, .cls-7, .cls-8, .cls-26, .cls-9, .cls-10, .cls-16, .cls-17, .cls-18, .cls-19, .cls-30, .cls-23, .cls-24 {
        fill: none;
      }

      .cls-6 {
        fill: #ffd692;
      }

      .cls-6, .cls-13, .cls-14, .cls-15, .cls-19, .cls-20, .cls-21 {
        stroke-width: .02px;
      }

      .cls-7 {
        stroke-linecap: round;
      }

      .cls-8, .cls-20, .cls-24 {
        stroke-linejoin: round;
      }

      .cls-26 {
        stroke: #c8b22e;
      }

      .cls-9 {
        stroke-width: .03px;
      }

      .cls-10 {
        stroke-width: .04px;
      }

      .cls-11, .cls-31, .cls-21 {
        fill: #038e6f;
      }

      .cls-13 {
        fill: #c6b52e;
      }

      .cls-15, .cls-22, .cls-32, .cls-25 {
        fill: #ac1f24;
      }

      .cls-16 {
        stroke-width: 0px;
      }

      .cls-33 {
        fill: #db4546;
      }

      .cls-17 {
        stroke-width: .03px;
      }

      .cls-34 {
        clip-path: url(#clippath);
      }

      .cls-35 {
        fill: #ccc;
      }

      .cls-36 {
        fill: #efbf1b;
      }

      .cls-23 {
        stroke-width: 0px;
      }

      .cls-37 {
        fill: #3c57a6;
      }

      .cls-38 {
        fill: #aa1f23;
      }

      .cls-39 {
        fill: #010101;
      }
    </style>
    <clipPath id="clippath">
      <circle class="cls-30" cx="11" cy="11" r="11"/>
    </clipPath>
  </defs>
  <g class="cls-34">
    <g>
      <path class="cls-38" d="m-3.67,0h29.33v22H-3.67V0Z"/>
      <path class="cls-36" d="m-3.67,5.5h29.33v11H-3.67V5.5Z"/>
      <path class="cls-32" d="m2.17,9.78h-.04s-.05-.05-.05-.05l-.03-.02-.03-.04s-.03-.05-.02-.09c.01-.04.04-.05.06-.07.02,0,.05-.02.07-.02l.05-.02h.06s.02-.03.02-.03c0,0,.03,0,.05,0h.05s.07,0,.07,0h.22s.05.01.06.02c.03.01.06.02.09.03.02,0,.07.01.1.03.02.01.04.03.05.05l.02.05v.05l-.02.04-.03.05-.04.03s-.02.02-.05.02c-.02,0-.22-.04-.35-.04s-.33.04-.33.04"/>
      <path class="cls-8" d="m2.17,9.78h-.04s-.05-.05-.05-.05l-.03-.02-.03-.04s-.03-.05-.02-.09c.01-.04.04-.05.06-.07.02,0,.05-.02.07-.02l.05-.02h.06s.02-.03.02-.03c0,0,.03,0,.05,0h.05s.07,0,.07,0h.22s.05.01.06.02c.03.01.06.02.09.03.02,0,.07.01.1.03.02.01.04.03.05.05l.02.05v.05l-.02.04-.03.05-.04.03s-.02.02-.05.02c-.02,0-.22-.04-.35-.04s-.33.04-.33.04h0Z"/>
      <path class="cls-27" d="m2.44,9.49c0-.06.03-.11.06-.11.04,0,.06.05.06.11,0,.06-.03.11-.06.11s-.06-.05-.06-.11"/>
      <path class="cls-18" d="m2.44,9.49c0-.06.03-.11.06-.11.04,0,.06.05.06.11,0,.06-.03.11-.06.11s-.06-.05-.06-.11h0Z"/>
      <path class="cls-27" d="m2.48,9.49c0-.05.01-.1.03-.1.01,0,.03.05.03.1,0,.06-.01.1-.03.1-.02,0-.03-.05-.03-.1"/>
      <path class="cls-18" d="m2.48,9.49c0-.05.01-.1.03-.1.01,0,.03.05.03.1,0,.06-.01.1-.03.1-.02,0-.03-.05-.03-.1h0Z"/>
      <path class="cls-27" d="m2.47,9.37s.02-.04.04-.04.05.02.05.04c0,.02-.02.04-.05.04s-.04-.02-.04-.04"/>
      <path class="cls-27" d="m2.53,9.36v.03h-.06v-.03h.02v-.05h-.03v-.03h.03v-.02h.02v.02h.03v.03h-.03v.05h.02"/>
      <path class="cls-18" d="m2.53,9.36v.03h-.06v-.03h.02v-.05h-.03v-.03h.03v-.02h.02v.02h.03v.03h-.03v.05h.02"/>
      <path class="cls-27" d="m2.56,9.36v.03h-.11v-.03h.05v-.05h-.03v-.03h.03v-.02h.02v.02h.03v.03h-.03v.05h.05"/>
      <path class="cls-18" d="m2.56,9.36v.03h-.11v-.03h.05v-.05h-.03v-.03h.03v-.02h.02v.02h.03v.03h-.03v.05h.05"/>
      <path class="cls-18" d="m2.52,9.34s.03.02.03.04c0,.02-.02.04-.04.04s-.05-.02-.05-.04c0-.02.01-.03.03-.04"/>
      <path class="cls-27" d="m2.51,9.77h-.22v-.11s-.02-.07-.02-.07c-.06-.08-.11-.13-.13-.11,0-.01,0-.03.02-.03.05-.03.16.05.24.17l.02.03h.17l.02-.03c.08-.12.19-.2.24-.17.01,0,.02.02.02.03-.02-.01-.07.04-.13.11v.07s-.02.05-.02.05v.05h-.22"/>
      <path class="cls-18" d="m2.51,9.77h-.22v-.11s-.02-.07-.02-.07c-.06-.08-.11-.13-.13-.11,0-.01,0-.03.02-.03.05-.03.16.05.24.17l.02.03h.17l.02-.03c.08-.12.19-.2.24-.17.01,0,.02.02.02.03-.02-.01-.07.04-.13.11v.07s-.02.05-.02.05v.05h-.22,0Z"/>
      <path class="cls-18" d="m2.15,9.48s.14.05.21.17m.5-.17s-.13.05-.21.17"/>
      <path class="cls-27" d="m2.19,9.87l-.02-.05c.22-.06.45-.06.67,0l-.02.04s-.01.02-.01.04c-.1-.03-.2-.04-.3-.04-.12,0-.24.01-.3.04v-.03"/>
      <path class="cls-18" d="m2.19,9.87l-.02-.05c.22-.06.45-.06.67,0l-.02.04s-.01.02-.01.04c-.1-.03-.2-.04-.3-.04-.12,0-.24.01-.3.04v-.03"/>
      <path class="cls-27" d="m2.5,9.98c.11,0,.23-.02.27-.03.03,0,.05-.02.05-.04,0,0,0-.01-.02-.02-.06-.02-.18-.04-.3-.04s-.23.01-.29.04c0,0-.01,0-.02.01,0,.02.01.03.05.04.05,0,.16.03.27.03"/>
      <path class="cls-18" d="m2.5,9.98c.11,0,.23-.02.27-.03.03,0,.05-.02.05-.04,0,0,0-.01-.02-.02-.06-.02-.18-.04-.3-.04s-.23.01-.29.04c0,0-.01,0-.02.01,0,.02.01.03.05.04.05,0,.16.03.27.03h0Z"/>
      <path class="cls-27" d="m2.85,9.77l-.02-.02s-.03.01-.06,0c-.03,0-.04-.05-.04-.05,0,0-.03.03-.06.03-.03,0-.05-.03-.05-.03,0,0-.03.02-.06.02-.03,0-.05-.04-.05-.04,0,0-.03.04-.05.04-.03,0-.05-.02-.05-.02,0,0-.02.03-.05.03s-.06-.03-.06-.03c0,0-.02.03-.05.05-.02,0-.05-.02-.05-.02v.02s-.02,0-.02,0v.02c.12-.03.23-.04.34-.04.14,0,.25.02.34.05v-.03"/>
      <path class="cls-18" d="m2.85,9.77l-.02-.02s-.03.01-.06,0c-.03,0-.04-.05-.04-.05,0,0-.03.03-.06.03-.03,0-.05-.03-.05-.03,0,0-.03.02-.06.02-.03,0-.05-.04-.05-.04,0,0-.03.04-.05.04-.03,0-.05-.02-.05-.02,0,0-.02.03-.05.03s-.06-.03-.06-.03c0,0-.02.03-.05.05-.02,0-.05-.02-.05-.02v.02s-.02,0-.02,0v.02c.12-.03.23-.04.34-.04.14,0,.25.02.34.05v-.03s0,0,0,0Z"/>
      <path class="cls-27" d="m2.51,9.66h0s0,.01,0,.02c0,.03.02.05.05.05.02,0,.04-.01.05-.03h0s0,0,0,0c0,.02.03.04.05.04.03,0,.05-.02.05-.05h0s.02-.02.02-.02v.02s0,.01,0,.02c0,.03.02.05.05.05.02,0,.03,0,.04-.02h0s0,0,0,0c0,.01,0,.03.02.03,0,0,.02,0,.05-.02l.03-.03v.02s-.02.04-.05.05c0,0-.02.02-.04.01-.01,0-.03-.01-.03-.03,0,0-.02,0-.03,0-.03,0-.05-.01-.06-.04-.01.01-.03.02-.05.02-.02,0-.04-.01-.05-.03-.01.01-.03.02-.05.02-.02,0-.05,0-.06-.03-.02.03-.07.04-.1.02,0,0,0,0,0,0-.01.02-.03.03-.05.03-.02,0-.04,0-.05-.02,0,.02-.04.04-.06.04,0,0-.02,0-.03,0,0,.01-.02.03-.03.03s-.03,0-.04,0l-.05-.05v-.02s.04.03.04.03c.02.02.04.02.04.02.01,0,.02-.02.02-.03h0s0,0,0,0c0,.01.02.02.04.02.03,0,.05-.02.05-.05,0,0,0-.01,0-.02v-.02l.02.02s0,0,0,0c0,.03.02.05.05.05.03,0,.05-.01.05-.04h0s0,0,0,0c0,.02.03.03.05.03.03,0,.05-.02.05-.05,0,0,0,0,0-.01h.01"/>
      <path class="cls-18" d="m2.51,9.66h0s0,.01,0,.02c0,.03.02.05.05.05.02,0,.04-.01.05-.03h0s0,0,0,0c0,.02.03.04.05.04.03,0,.05-.02.05-.05h0s.02-.02.02-.02v.02s0,.01,0,.02c0,.03.02.05.05.05.02,0,.03,0,.04-.02h0s0,0,0,0c0,.01,0,.03.02.03,0,0,.02,0,.05-.02l.03-.03v.02s-.02.04-.05.05c0,0-.02.02-.04.01-.01,0-.03-.01-.03-.03,0,0-.02,0-.03,0-.03,0-.05-.01-.06-.04-.01.01-.03.02-.05.02-.02,0-.04-.01-.05-.03-.01.01-.03.02-.05.02-.02,0-.05,0-.06-.03-.02.03-.07.04-.1.02,0,0,0,0,0,0-.01.02-.03.03-.05.03-.02,0-.04,0-.05-.02,0,.02-.04.04-.06.04,0,0-.02,0-.03,0,0,.01-.02.03-.03.03s-.03,0-.04,0l-.05-.05v-.02s.04.03.04.03c.02.02.04.02.04.02.01,0,.02-.02.02-.03h0s0,0,0,0c0,.01.02.02.04.02.03,0,.05-.02.05-.05,0,0,0-.01,0-.02v-.02l.02.02s0,0,0,0c0,.03.02.05.05.05.03,0,.05-.01.05-.04h0s0,0,0,0c0,.02.03.03.05.03.03,0,.05-.02.05-.05,0,0,0,0,0-.01h.01Z"/>
      <path class="cls-27" d="m2.5,9.78c-.13,0-.25.02-.33.05h-.01s0-.02,0-.02c.11-.03.23-.05.34-.05.14,0,.26.02.35.05,0,0,0,0,0,.01h-.01c-.11-.02-.22-.04-.34-.04"/>
      <path class="cls-8" d="m2.5,9.78c-.13,0-.25.02-.33.05h-.01s0-.02,0-.02c.11-.03.23-.05.34-.05.14,0,.26.02.35.05,0,0,0,0,0,.01h-.01c-.11-.02-.22-.04-.34-.04h0Z"/>
      <path class="cls-28" d="m2.37,9.83s0-.02.02-.02c.01,0,.02,0,.02.02,0,0,0,.02-.02.02,0,0-.02,0-.02-.01,0,0,0,0,0,0"/>
      <path class="cls-18" d="m2.37,9.83s0-.02.02-.02c.01,0,.02,0,.02.02,0,0,0,.02-.02.02,0,0-.02,0-.02-.01,0,0,0,0,0,0Z"/>
      <path class="cls-32" d="m2.51,9.83h-.05s-.01,0-.01-.01h.01s.09-.01.09-.01c0,0,0,0,0,.01,0,0,0,.01-.01.01h-.05"/>
      <path class="cls-18" d="m2.51,9.83h-.05s-.01,0-.01-.01h.01s.09-.01.09-.01c0,0,0,0,0,.01,0,0,0,.01-.01.01h-.05"/>
      <path class="cls-31" d="m2.29,9.85h-.03s-.01,0-.01,0c0,0,0-.01,0-.01h.03s.03,0,.03,0c0,0,.01,0,.02,0,0,0,0,.02,0,.02,0,0,0,0,0,0h-.03"/>
      <path class="cls-18" d="m2.29,9.85h-.03s-.01,0-.01,0c0,0,0-.01,0-.01h.03s.03,0,.03,0c0,0,.01,0,.02,0,0,0,0,.02,0,.02,0,0,0,0,0,0h-.03"/>
      <path class="cls-32" d="m2.17,9.87v-.02h.05l-.02.03h-.03"/>
      <path class="cls-18" d="m2.17,9.87v-.02h.05l-.02.03h-.03"/>
      <path class="cls-28" d="m2.59,9.83s0-.02.02-.02c0,0,.02,0,.02.01,0,0,0,0,0,0,0,.01,0,.02-.02.02,0,0,0,0,0,0-.01,0-.02,0-.02-.02"/>
      <path class="cls-18" d="m2.59,9.83s0-.02.02-.02c0,0,.02,0,.02.01,0,0,0,0,0,0,0,.01,0,.02-.02.02,0,0,0,0,0,0-.01,0-.02,0-.02-.02Z"/>
      <path class="cls-31" d="m2.72,9.85h.03s.02,0,.02,0c0,0,0,0,0,0,0,0,0-.01-.01-.01h-.03s-.03,0-.03,0c0,0-.01,0-.02,0,0,0,0,.01.01.02h.03"/>
      <path class="cls-18" d="m2.72,9.85h.03s.02,0,.02,0c0,0,0,0,0,0,0,0,0-.01-.01-.01h-.03s-.03,0-.03,0c0,0-.01,0-.02,0,0,0,0,.01.01.02h.03"/>
      <path class="cls-32" d="m2.84,9.87v-.02h-.05v.03s.04,0,.04,0"/>
      <path class="cls-18" d="m2.84,9.87v-.02h-.05v.03s.04,0,.04,0"/>
      <path class="cls-32" d="m2.5,9.95c-.09,0-.18,0-.28-.03.18-.04.37-.04.55,0-.07.02-.17.03-.27.03"/>
      <path class="cls-8" d="m2.5,9.95c-.09,0-.18,0-.28-.03.18-.04.37-.04.55,0-.07.02-.17.03-.27.03h0Z"/>
      <path class="cls-27" d="m2.84,9.72h0s-.01-.01-.02,0c0,0,0,.02,0,.02,0,0,0,0,.01-.01"/>
      <path class="cls-18" d="m2.84,9.72h0s-.01-.01-.02,0c0,0,0,.02,0,.02,0,0,0,0,.01-.01h0Z"/>
      <path class="cls-27" d="m2.63,9.68s0-.02,0-.02c0,0,0,0,0,.01s0,.02,0,.02h.01"/>
      <path class="cls-18" d="m2.63,9.68s0-.02,0-.02c0,0,0,0,0,.01s0,.02,0,.02h.01s0-.01,0-.01Z"/>
      <path class="cls-27" d="m2.38,9.68v-.02s.02,0,.02.01,0,.02,0,.02h0"/>
      <path class="cls-18" d="m2.38,9.68v-.02s.02,0,.02.01,0,.02,0,.02h0s0-.01,0-.01Z"/>
      <path class="cls-27" d="m2.17,9.72h0s.01-.01.02,0c0,0,0,.02,0,.02,0,0,0,0-.01-.01"/>
      <path class="cls-18" d="m2.17,9.72h0s.01-.01.02,0c0,0,0,.02,0,.02,0,0,0,0-.01-.01h0Z"/>
      <path class="cls-27" d="m2.5,9.56l-.04.02.03.06h0s0,0,0,0l.03-.06-.04-.02"/>
      <path class="cls-18" d="m2.5,9.56l-.04.02.03.06h0s0,0,0,0l.03-.06-.04-.02"/>
      <path class="cls-27" d="m2.42,9.65l.02.02.06-.02h0s0-.02,0-.02h-.06s-.02.01-.02.01"/>
      <path class="cls-18" d="m2.42,9.65l.02.02.06-.02h0s0-.02,0-.02h-.06s-.02.01-.02.01"/>
      <path class="cls-27" d="m2.58,9.65v.02s-.07-.02-.07-.02h0s0-.02,0-.02h.06s.01.01.01.01"/>
      <path class="cls-18" d="m2.58,9.65v.02s-.07-.02-.07-.02h0s0-.02,0-.02h.06s.01.01.01.01"/>
      <path class="cls-27" d="m2.26,9.58l-.03.03.04.05h0s0,0,0,0v-.06s-.02-.01-.02-.01"/>
      <path class="cls-18" d="m2.26,9.58l-.03.03.04.05h0s0,0,0,0v-.06s-.02-.01-.02-.01"/>
      <path class="cls-27" d="m2.2,9.68l.02.02.05-.03h0s0-.02,0-.02h-.06s-.01.02-.01.02"/>
      <path class="cls-18" d="m2.2,9.68l.02.02.05-.03h0s0-.02,0-.02h-.06s-.01.02-.01.02"/>
      <path class="cls-27" d="m2.36,9.65v.03h-.08s0-.02,0-.02l.05-.03.02.02"/>
      <path class="cls-18" d="m2.36,9.65v.03h-.08s0-.02,0-.02l.05-.03.02.02"/>
      <path class="cls-27" d="m2.14,9.69v.03h-.06s0,0,0,0h0s.05-.05.05-.05l.03.02"/>
      <path class="cls-18" d="m2.14,9.69v.03h-.06s0,0,0,0h0s.05-.05.05-.05l.03.02"/>
      <path class="cls-27" d="m2.25,9.67s0-.02.02-.02.02,0,.02.02c0,.01-.01.02-.02.02-.01,0-.02,0-.02-.02"/>
      <path class="cls-18" d="m2.25,9.67s0-.02.02-.02.02,0,.02.02c0,.01-.01.02-.02.02-.01,0-.02,0-.02-.02Z"/>
      <path class="cls-27" d="m2.75,9.58l.03.03-.04.05h0s0,0,0,0v-.06s.02-.01.02-.01"/>
      <path class="cls-18" d="m2.75,9.58l.03.03-.04.05h0s0,0,0,0v-.06s.02-.01.02-.01"/>
      <path class="cls-27" d="m2.81,9.68l-.02.02-.05-.03h0s0-.02,0-.02h.06s.01.02.01.02"/>
      <path class="cls-18" d="m2.81,9.68l-.02.02-.05-.03h0s0-.02,0-.02h.06s.01.02.01.02"/>
      <path class="cls-27" d="m2.65,9.65v.03h.08s0-.02,0-.02l-.05-.03-.02.02"/>
      <path class="cls-18" d="m2.65,9.65v.03h.08s0-.02,0-.02l-.05-.03-.02.02"/>
      <path class="cls-27" d="m2.86,9.69v.03s.06,0,.06,0h0s-.05-.05-.05-.05l-.03.02"/>
      <path class="cls-18" d="m2.86,9.69v.03s.06,0,.06,0h0s-.05-.05-.05-.05l-.03.02"/>
      <path class="cls-27" d="m2.48,9.64s0-.02.02-.02c.01,0,.02,0,.02.02,0,.01-.01.02-.02.02-.01,0-.02-.01-.02-.02"/>
      <path class="cls-18" d="m2.48,9.64s0-.02.02-.02c.01,0,.02,0,.02.02,0,.01-.01.02-.02.02-.01,0-.02-.01-.02-.02Z"/>
      <path class="cls-27" d="m2.71,9.67s.01-.02.02-.02c.01,0,.02.01.02.02,0,.01-.01.02-.02.02-.01,0-.02,0-.02-.02"/>
      <path class="cls-18" d="m2.71,9.67s.01-.02.02-.02c.01,0,.02.01.02.02,0,.01-.01.02-.02.02-.01,0-.02,0-.02-.02Z"/>
      <path class="cls-27" d="m2.05,9.73l-.03-.03s-.03-.01-.03-.01c0,0,.01-.01.03-.01,0,0,.01,0,.02,0h0s.01,0,.02,0v.05"/>
      <path class="cls-18" d="m2.05,9.73l-.03-.03s-.03-.01-.03-.01c0,0,.01-.01.03-.01,0,0,.01,0,.02,0h0s.01,0,.02,0v.05h0Z"/>
      <path class="cls-27" d="m2.05,9.72s.02,0,.02,0c0,0,.01.01,0,.02h-.02s-.01-.02,0-.03"/>
      <path class="cls-18" d="m2.05,9.72s.02,0,.02,0c0,0,.01.01,0,.02h-.02s-.01-.02,0-.03h0Z"/>
      <path class="cls-27" d="m2.95,9.73l.03-.03s.03-.01.03-.01c0,0-.01-.01-.03-.01,0,0-.01,0-.02,0h0s-.01,0-.02,0v.03h0"/>
      <path class="cls-18" d="m2.95,9.73l.03-.03s.03-.01.03-.01c0,0-.01-.01-.03-.01,0,0-.01,0-.02,0h0s-.01,0-.02,0v.03h0s0,.01,0,.01Z"/>
      <path class="cls-27" d="m2.95,9.72s-.01,0-.02,0c0,0,0,.01,0,.02h.02s0-.02,0-.03"/>
      <path class="cls-18" d="m2.95,9.72s-.01,0-.02,0c0,0,0,.01,0,.02h.02s0-.02,0-.03h0Z"/>
      <path class="cls-27" d="m2.02,10.22h.98v-.25h-.98v.26h0Z"/>
      <path class="cls-5" d="m2.02,10.22h.98v-.25h-.98v.26h0Z"/>
      <path class="cls-27" d="m2.12,10.4s.01,0,.02,0h.76s-.04-.03-.05-.05c0-.03.02-.05.05-.06,0,0-.01,0-.02,0h-.73s-.02,0-.02,0c.03,0,.05.03.05.06,0,.03-.02.05-.05.05"/>
      <path class="cls-24" d="m2.12,10.4s.01,0,.02,0h.76s-.04-.03-.05-.05c0-.03.02-.05.05-.06,0,0-.01,0-.02,0h-.73s-.02,0-.02,0c.03,0,.05.03.05.06,0,.03-.02.05-.05.05h0Z"/>
      <path class="cls-27" d="m2.14,10.4h.73s.05.01.05.03-.02.04-.05.04h-.73s-.05-.02-.05-.04.02-.04.05-.04"/>
      <path class="cls-5" d="m2.14,10.4h.73s.05.01.05.03-.02.04-.05.04h-.73s-.05-.02-.05-.04.02-.04.05-.04h0Z"/>
      <path class="cls-27" d="m2.14,10.22h.73s.05.02.05.03c0,.02-.02.03-.05.03h-.73s-.05,0-.05-.03c0-.01.02-.03.05-.03"/>
      <path class="cls-5" d="m2.14,10.22h.73s.05.02.05.03c0,.02-.02.03-.05.03h-.73s-.05,0-.05-.03c0-.01.02-.03.05-.03h0Z"/>
      <path class="cls-29" d="m3.19,14.55c-.06,0-.13-.01-.17-.04-.05-.03-.11-.04-.17-.04-.06,0-.12.01-.17.04-.05.03-.11.04-.17.04-.07,0-.13-.01-.17-.04-.05-.02-.11-.04-.17-.04-.06,0-.12.01-.17.04-.05.03-.11.04-.17.04v.11c.07,0,.13-.02.17-.04.05-.03.11-.04.17-.04.06,0,.12.01.17.04s.1.04.17.04c.06,0,.12-.01.17-.04.05-.02.11-.04.17-.04.07,0,.13.01.17.04s.1.04.17.04v-.11"/>
      <path class="cls-5" d="m3.19,14.55c-.06,0-.13-.01-.17-.04-.05-.03-.11-.04-.17-.04-.06,0-.12.01-.17.04-.05.03-.11.04-.17.04-.07,0-.13-.01-.17-.04-.05-.02-.11-.04-.17-.04-.06,0-.12.01-.17.04-.05.03-.11.04-.17.04v.11c.07,0,.13-.02.17-.04.05-.03.11-.04.17-.04.06,0,.12.01.17.04s.1.04.17.04c.06,0,.12-.01.17-.04.05-.02.11-.04.17-.04.07,0,.13.01.17.04s.1.04.17.04v-.11Z"/>
      <path class="cls-35" d="m3.19,14.66c-.06,0-.12-.01-.17-.04-.05-.03-.11-.04-.17-.04-.06,0-.12.01-.17.04s-.11.04-.17.04-.13-.02-.17-.04c-.05-.02-.11-.04-.17-.04-.06,0-.12.01-.17.04-.05.02-.11.04-.17.04v.11c.07,0,.13-.02.17-.04.05-.02.11-.03.17-.03.06,0,.12,0,.17.03.11.05.24.05.34,0,.11-.05.24-.05.34,0,.05.03.11.04.17.04v-.11"/>
      <path class="cls-5" d="m3.19,14.66c-.06,0-.12-.01-.17-.04-.05-.03-.11-.04-.17-.04-.06,0-.12.01-.17.04s-.11.04-.17.04-.13-.02-.17-.04c-.05-.02-.11-.04-.17-.04-.06,0-.12.01-.17.04-.05.02-.11.04-.17.04v.11c.07,0,.13-.02.17-.04.05-.02.11-.03.17-.03.06,0,.12,0,.17.03.11.05.24.05.34,0,.11-.05.24-.05.34,0,.05.03.11.04.17.04v-.11"/>
      <path class="cls-29" d="m3.19,14.76c-.06,0-.12,0-.17-.04-.05-.02-.11-.04-.17-.03-.06,0-.12,0-.17.03-.05.03-.11.04-.17.04s-.13-.02-.17-.04c-.05-.02-.11-.04-.17-.04-.06,0-.12.01-.17.04-.05.02-.11.04-.17.04v.11c.07,0,.13-.01.17-.04.11-.04.23-.04.34,0,.05.03.11.04.17.04.06,0,.12-.01.17-.04.05-.02.11-.04.17-.04.07,0,.13.01.17.04s.1.04.17.04v-.11"/>
      <path class="cls-5" d="m3.19,14.76c-.06,0-.12,0-.17-.04-.05-.02-.11-.04-.17-.03-.06,0-.12,0-.17.03-.05.03-.11.04-.17.04s-.13-.02-.17-.04c-.05-.02-.11-.04-.17-.04-.06,0-.12.01-.17.04-.05.02-.11.04-.17.04v.11c.07,0,.13-.01.17-.04.11-.04.23-.04.34,0,.05.03.11.04.17.04.06,0,.12-.01.17-.04.05-.02.11-.04.17-.04.07,0,.13.01.17.04s.1.04.17.04v-.11"/>
      <path class="cls-35" d="m3.19,14.97c-.06,0-.12-.01-.17-.04-.05-.02-.11-.04-.17-.04-.06,0-.12.01-.17.04-.05.02-.11.04-.17.04-.06,0-.12-.01-.17-.04-.05-.02-.11-.03-.17-.03-.06,0-.12.01-.17.04s-.11.04-.17.04v-.11c.06,0,.12-.01.17-.04.11-.04.23-.04.34,0,.05.03.11.04.17.04.06,0,.12-.01.17-.04.05-.02.11-.04.17-.04.06,0,.12.01.17.04s.11.04.17.04v.11"/>
      <path class="cls-5" d="m3.19,14.97c-.06,0-.12-.01-.17-.04-.05-.02-.11-.04-.17-.04-.06,0-.12.01-.17.04-.05.02-.11.04-.17.04-.06,0-.12-.01-.17-.04-.05-.02-.11-.03-.17-.03-.06,0-.12.01-.17.04s-.11.04-.17.04v-.11c.06,0,.12-.01.17-.04.11-.04.23-.04.34,0,.05.03.11.04.17.04.06,0,.12-.01.17-.04.05-.02.11-.04.17-.04.06,0,.12.01.17.04s.11.04.17.04v.11"/>
      <path class="cls-29" d="m3.19,15.08c-.06,0-.12-.01-.17-.04-.05-.02-.11-.04-.17-.04-.06,0-.12.01-.17.04-.05.02-.11.04-.17.04-.06,0-.12-.01-.17-.04-.05-.02-.11-.03-.17-.03-.06,0-.12.01-.17.04s-.11.04-.17.04v-.11c.06,0,.12-.01.17-.04.05-.02.11-.04.17-.04s.12.01.17.03c.11.05.24.05.34,0,.05-.02.11-.03.17-.03.06,0,.12.01.17.04s.1.04.17.04v.11"/>
      <path class="cls-5" d="m3.19,15.08c-.06,0-.12-.01-.17-.04-.05-.02-.11-.04-.17-.04-.06,0-.12.01-.17.04-.05.02-.11.04-.17.04-.06,0-.12-.01-.17-.04-.05-.02-.11-.03-.17-.03-.06,0-.12.01-.17.04s-.11.04-.17.04v-.11c.06,0,.12-.01.17-.04.05-.02.11-.04.17-.04s.12.01.17.03c.11.05.24.05.34,0,.05-.02.11-.03.17-.03.06,0,.12.01.17.04s.1.04.17.04v.11h0Z"/>
      <path class="cls-27" d="m2.12,14.12v.02c0,.07-.05.12-.11.12h1.01c-.07,0-.12-.05-.12-.12v-.02s0,0-.01,0h-.73s-.02,0-.02,0"/>
      <path class="cls-24" d="m2.12,14.12v.02c0,.07-.05.12-.11.12h1.01c-.07,0-.12-.05-.12-.12v-.02s0,0-.01,0h-.73s-.02,0-.02,0Z"/>
      <path class="cls-27" d="m2.14,14.05h.73s.05.01.05.04c0,.02-.02.03-.05.03h-.73s-.05-.01-.05-.04c0-.02.02-.03.05-.03"/>
      <path class="cls-5" d="m2.14,14.05h.73s.05.01.05.04c0,.02-.02.03-.05.03h-.73s-.05-.01-.05-.04c0-.02.02-.03.05-.03Z"/>
      <path class="cls-27" d="m2,14.52h1.01v-.26h-1.01v.26h0Z"/>
      <path class="cls-5" d="m2,14.52h1.01v-.26h-1.01v.26h0Z"/>
      <path class="cls-32" d="m1.93,13.14c-.1.06-.17.11-.16.15,0,.03.04.05.08.07.07.05.11.14.08.18.11-.08.13-.24.05-.35-.01-.02-.03-.04-.05-.05"/>
      <path class="cls-5" d="m1.93,13.14c-.1.06-.17.11-.16.15,0,.03.04.05.08.07.07.05.11.14.08.18.11-.08.13-.24.05-.35-.01-.02-.03-.04-.05-.05h0Z"/>
      <path class="cls-35" d="m2.15,14.01h.72v-3.51h-.71v3.51h0Z"/>
      <path class="cls-5" d="m2.66,10.5v3.5m.08-3.5v3.5m-.59,0h.71v-3.5h-.71v3.51h0Z"/>
      <path class="cls-32" d="m3.59,11.81c-.34-.12-.71-.15-1.07-.09-.43.07-.76.24-.73.38h0s-.16-.37-.16-.37c-.03-.15.33-.34.81-.42.14-.03.28-.04.42-.03.3,0,.57.04.72.1v.43"/>
      <path class="cls-24" d="m3.59,11.81c-.34-.12-.71-.15-1.07-.09-.43.07-.76.24-.73.38h0s-.16-.37-.16-.37c-.03-.15.33-.34.81-.42.14-.03.28-.04.42-.03.3,0,.57.04.72.1v.43"/>
      <path class="cls-32" d="m2.15,12.25c-.2-.01-.33-.06-.35-.15-.01-.07.05-.14.17-.21.05,0,.11.01.17.01v.34"/>
      <path class="cls-5" d="m2.15,12.25c-.2-.01-.33-.06-.35-.15-.01-.07.05-.14.17-.21.05,0,.11.01.17.01v.34"/>
      <path class="cls-32" d="m2.86,11.99c.12.02.22.05.26.09h0c.02.06-.09.15-.27.26v-.34"/>
      <path class="cls-5" d="m2.86,11.99c.12.02.22.05.26.09h0c.02.06-.09.15-.27.26v-.34"/>
      <path class="cls-32" d="m1.7,12.93c-.02-.06.17-.17.45-.27l.36-.15c.38-.17.66-.36.62-.43h0s.05.36.05.36c.04.06-.22.25-.57.42-.11.06-.35.14-.46.18-.2.06-.4.2-.38.24l-.07-.35"/>
      <path class="cls-24" d="m1.7,12.93c-.02-.06.17-.17.45-.27l.36-.15c.38-.17.66-.36.62-.43h0s.05.36.05.36c.04.06-.22.25-.57.42-.11.06-.35.14-.46.18-.2.06-.4.2-.38.24l-.07-.35h0Z"/>
      <path class="cls-27" d="m2.1,11.64c.09-.03.14-.07.11-.14-.02-.05-.06-.05-.13-.03l-.12.05.11.27h.04s.04-.03.04-.03l-.05-.11h0Zm-.05-.12h.03s.05,0,.06.02c0,.02,0,.05-.02.07,0,0-.02,0-.03.01l-.05-.11m.33-.11h-.04s-.04.01-.04.01l.06.28.2-.04v-.02s0-.02,0-.02l-.11.03-.05-.24m.38.24c.04-.1.08-.2.12-.29-.02,0-.03,0-.05,0-.02.07-.05.14-.08.21l-.11-.2h-.05s-.05,0-.05,0c.06.09.11.18.16.27h.05m.4-.22l.02-.04s-.05-.03-.08-.03c-.08,0-.12.03-.13.08,0,.1.15.09.14.16,0,.03-.03.04-.06.04-.04,0-.06-.02-.06-.05h-.01s-.01.03-.02.05c.02.02.05.03.08.03.08,0,.14-.02.15-.08,0-.09-.15-.1-.14-.16,0-.02.02-.04.06-.03.03,0,.05.02.05.04h0"/>
      <path class="cls-32" d="m9.07,9.7s-.03.04-.06.04c-.02,0-.05-.02-.05-.02,0,0-.02.02-.05.03-.03,0-.06-.03-.06-.03l-.05.05s-.05-.01-.05-.01c0,0-.01.02-.03.03h-.02l-.03-.02-.03-.03h-.02s-.02-.06-.02-.06v-.02s.04-.06.1-.08c.03,0,.06,0,.09,0,.02-.02.08-.04.14-.04s.11.01.14.03c.04-.02.09-.03.13-.03.06,0,.11.01.14.04.02,0,.06,0,.09,0,.06.01.11.05.1.08v.02l-.02.05h-.03s-.03.05-.03.05h-.03s-.01.02-.02.01c-.02,0-.03-.02-.03-.02,0,0-.03.02-.05,0-.02,0-.05-.05-.05-.05,0,0-.04.04-.06.03-.03,0-.05-.03-.05-.03,0,0-.03.03-.06.02s-.06-.04-.06-.04"/>
      <path class="cls-18" d="m9.07,9.7s-.03.04-.06.04c-.02,0-.05-.02-.05-.02,0,0-.02.02-.05.03-.03,0-.06-.03-.06-.03l-.05.05s-.05-.01-.05-.01c0,0-.01.02-.03.03h-.02l-.03-.02-.03-.03h-.02s-.02-.06-.02-.06v-.02s.04-.06.1-.08c.03,0,.06,0,.09,0,.02-.02.08-.04.14-.04s.11.01.14.03c.04-.02.09-.03.13-.03.06,0,.11.01.14.04.02,0,.06,0,.09,0,.06.01.11.05.1.08v.02l-.02.05h-.03s-.03.05-.03.05h-.03s-.01.02-.02.01c-.02,0-.03-.02-.03-.02,0,0-.03.02-.05,0-.02,0-.05-.05-.05-.05,0,0-.04.04-.06.03-.03,0-.05-.03-.05-.03,0,0-.03.03-.06.02s-.06-.04-.06-.04h0Z"/>
      <path class="cls-27" d="m9.01,9.52s.03-.09.06-.09c.04,0,.06.05.06.09s-.02.08-.06.08c-.03,0-.06-.04-.06-.09"/>
      <path class="cls-18" d="m9.01,9.52s.03-.09.06-.09c.04,0,.06.05.06.09s-.02.08-.06.08c-.03,0-.06-.04-.06-.09h0Z"/>
      <path class="cls-27" d="m9.04,9.52s0-.08.02-.08c.02,0,.03.04.03.08s-.01.08-.03.08c-.02,0-.03-.04-.03-.08"/>
      <path class="cls-18" d="m9.04,9.52s0-.08.02-.08c.02,0,.03.04.03.08s-.01.08-.03.08c-.02,0-.03-.04-.03-.08h0Z"/>
      <path class="cls-27" d="m8.75,9.87s-.01-.03-.02-.05c.22-.06.46-.06.68,0l-.03.04s-.01.02-.01.04c-.1-.03-.2-.04-.3-.04-.12,0-.24.01-.3.04v-.03"/>
      <path class="cls-18" d="m8.75,9.87s-.01-.03-.02-.05c.22-.06.46-.06.68,0l-.03.04s-.01.02-.01.04c-.1-.03-.2-.04-.3-.04-.12,0-.24.01-.3.04v-.03"/>
      <path class="cls-27" d="m9.07,9.98c.11,0,.23-.02.27-.03.03,0,.05-.02.05-.04,0,0,0-.01-.02-.02-.1-.03-.2-.04-.3-.04-.11,0-.23.01-.29.04,0,0-.01,0-.02.01,0,.02.01.03.05.04.05,0,.16.03.27.03"/>
      <path class="cls-18" d="m9.07,9.98c.11,0,.23-.02.27-.03.03,0,.05-.02.05-.04,0,0,0-.01-.02-.02-.1-.03-.2-.04-.3-.04-.11,0-.23.01-.29.04,0,0-.01,0-.02.01,0,.02.01.03.05.04.05,0,.16.03.27.03Z"/>
      <path class="cls-28" d="m9.33,9.55s0-.02.02-.02.02,0,.02.02,0,.02-.02.02c-.01,0-.02,0-.02-.02"/>
      <path class="cls-23" d="m9.33,9.55s0-.02.02-.02.02,0,.02.02,0,.02-.02.02c-.01,0-.02,0-.02-.02Zm0-.06s0-.02.02-.02c0,0,.02,0,.02.02s0,.02-.02.02c-.01,0-.02,0-.02-.02Zm-.05-.05s0-.01.02-.01.02,0,.02.02c0,0,0,.02-.02.02-.01,0-.02,0-.02-.02,0,0,0,0,0,0h0Zm-.06-.02s0-.02.02-.02c.01,0,.02,0,.02.02s0,.02-.02.02-.02,0-.02-.02Zm-.06,0s0-.01.02-.01.02,0,.02.02c0,0,0,.02-.02.02,0,0-.02,0-.02-.01,0,0,0,0,0,0h0Z"/>
      <path class="cls-7" d="m9.52,9.68v-.05c.01-.07-.04-.13-.11-.13,0,0,0,0,0,0-.02,0-.05,0-.06.01"/>
      <path class="cls-18" d="m9.3,9.59v-.04c0-.05-.04-.09-.11-.09-.03,0-.06,0-.07.02"/>
      <path class="cls-23" d="m9.54,9.62s0-.02.02-.02.02,0,.02.02c0,.01,0,.02-.02.02s-.02,0-.02-.02h0Zm0-.07s0-.02.02-.02c0,0,.02,0,.02.01,0,0,0,0,0,0,0,0,0,.02-.02.02-.01,0-.02,0-.02-.02Zm-.05-.05s0-.02.02-.02c0,0,0,0,0,0,0,0,.02,0,.02.02,0,.01,0,.02-.02.02,0,0-.02,0-.02-.01,0,0,0,0,0,0Zm-.06-.03s0-.02.02-.02.02,0,.02.02c0,.01,0,.02-.02.02,0,0-.02,0-.02-.01,0,0,0,0,0-.01Zm-.06,0s0-.02.02-.02.02,0,.02.02,0,.02-.02.02-.02,0-.02-.02Z"/>
      <path class="cls-27" d="m9.41,9.77l-.02-.02s-.03.01-.06,0c-.03,0-.04-.05-.04-.05,0,0-.03.03-.06.03-.03,0-.05-.03-.05-.03,0,0-.03.02-.06.02-.03,0-.06-.04-.06-.04,0,0-.03.04-.06.04-.03,0-.05-.02-.05-.02,0,0-.01.03-.05.03s-.06-.03-.06-.03c0,0-.02.03-.05.05-.02,0-.06-.02-.06-.02v.02s-.02,0-.02,0v.02c.11-.03.23-.04.34-.04.13,0,.25.02.33.05v-.03"/>
      <path class="cls-18" d="m9.41,9.77l-.02-.02s-.03.01-.06,0c-.03,0-.04-.05-.04-.05,0,0-.03.03-.06.03-.03,0-.05-.03-.05-.03,0,0-.03.02-.06.02-.03,0-.06-.04-.06-.04,0,0-.03.04-.06.04-.03,0-.05-.02-.05-.02,0,0-.01.03-.05.03s-.06-.03-.06-.03c0,0-.02.03-.05.05-.02,0-.06-.02-.06-.02v.02s-.02,0-.02,0v.02c.11-.03.23-.04.34-.04.13,0,.25.02.33.05v-.03s0,0,0,0Z"/>
      <path class="cls-28" d="m8.77,9.55s0-.02.02-.02.02,0,.02.02c0,.01,0,.02-.02.02s-.02,0-.02-.02"/>
      <path class="cls-23" d="m8.77,9.55s0-.02.02-.02.02,0,.02.02c0,.01,0,.02-.02.02s-.02,0-.02-.02Zm0-.06s0-.02.02-.02.02,0,.02.02,0,.02-.02.02c-.01,0-.02,0-.02-.02Zm.05-.05s.01-.01.02-.01.02,0,.02.02c0,0,0,.02-.02.02-.01,0-.02,0-.02-.02,0,0,0,0,0,0h0Zm.06-.02s0-.02.02-.02.02,0,.02.02,0,.02-.02.02-.02,0-.02-.02Zm.06,0s0-.01.02-.01c0,0,.02,0,.02.02,0,0,0,.02-.02.02,0,0-.02,0-.02-.01,0,0,0,0,0,0h0Z"/>
      <path class="cls-7" d="m8.61,9.68s0-.03,0-.05c0-.07.05-.13.12-.13,0,0,0,0,0,0,.02,0,.05,0,.06.01"/>
      <path class="cls-18" d="m8.83,9.59s-.01-.02-.01-.04c0-.05.06-.09.12-.09.02,0,.05,0,.07.02"/>
      <path class="cls-23" d="m8.55,9.62s0-.02.02-.02c.01,0,.02,0,.02.02,0,.01,0,.02-.02.02,0,0-.02,0-.02-.02h0Zm0-.07s.01-.02.02-.02.02,0,.02.02,0,.02-.02.02-.02,0-.02-.02h0Zm.05-.05s0-.02.02-.02c.01,0,.02,0,.02.02s0,.02-.02.02c0,0-.02,0-.02-.01,0,0,0,0,0,0Zm.06-.03s0-.02.02-.02c0,0,.02,0,.02.02,0,.01,0,.02-.02.02,0,0-.02,0-.02-.01,0,0,0,0,0-.01Zm.06,0s0-.02.02-.02c.01,0,.02,0,.02.02s0,.02-.02.02c-.01,0-.02,0-.02-.02Z"/>
      <path class="cls-27" d="m9.07,9.66h0s0,.01,0,.02c0,.03.02.05.05.05.02,0,.04-.01.05-.03h0s0,0,0,0c0,.02.03.04.05.04.03,0,.05-.02.05-.05,0,0,0,0,0,0l.02-.02v.02s0,.01,0,.02c0,.03.02.05.05.05.02,0,.03,0,.04-.02h0s0,0,0,0c0,.01,0,.03.02.03,0,0,.02,0,.05-.02s.03-.03.03-.03v.02s-.02.04-.05.05c0,0-.02.02-.04.01-.01,0-.03-.01-.03-.03,0,0-.02,0-.03,0-.03,0-.06-.01-.06-.04-.01.01-.03.02-.05.02-.02,0-.05,0-.06-.03-.01.01-.03.02-.05.02-.03,0-.05,0-.06-.03,0,.02-.03.03-.06.03-.02,0-.04,0-.05-.02-.01.02-.04.03-.06.03-.02,0-.04,0-.05-.02,0,.02-.04.04-.06.04,0,0-.02,0-.03,0,0,.01-.02.03-.03.03s-.03,0-.04,0c-.02-.01-.03-.03-.05-.05v-.02s.04.03.04.03c.02.02.04.02.04.02.01,0,.02-.02.02-.03h0s0,0,0,0c0,.01.02.02.04.02.03,0,.05-.02.05-.05,0,0,0-.01,0-.02v-.02l.02.02h0s.02.05.05.05c.03,0,.05-.01.05-.04h0s0,0,0,0c0,.02.03.03.05.03.03,0,.05-.02.05-.05,0,0,0,0,0-.01h0"/>
      <path class="cls-18" d="m9.07,9.66h0s0,.01,0,.02c0,.03.02.05.05.05.02,0,.04-.01.05-.03h0s0,0,0,0c0,.02.03.04.05.04.03,0,.05-.02.05-.05,0,0,0,0,0,0l.02-.02v.02s0,.01,0,.02c0,.03.02.05.05.05.02,0,.03,0,.04-.02h0s0,0,0,0c0,.01,0,.03.02.03,0,0,.02,0,.05-.02s.03-.03.03-.03v.02s-.02.04-.05.05c0,0-.02.02-.04.01-.01,0-.03-.01-.03-.03,0,0-.02,0-.03,0-.03,0-.06-.01-.06-.04-.01.01-.03.02-.05.02-.02,0-.05,0-.06-.03-.01.01-.03.02-.05.02-.03,0-.05,0-.06-.03,0,.02-.03.03-.06.03-.02,0-.04,0-.05-.02-.01.02-.04.03-.06.03-.02,0-.04,0-.05-.02,0,.02-.04.04-.06.04,0,0-.02,0-.03,0,0,.01-.02.03-.03.03s-.03,0-.04,0c-.02-.01-.03-.03-.05-.05v-.02s.04.03.04.03c.02.02.04.02.04.02.01,0,.02-.02.02-.03h0s0,0,0,0c0,.01.02.02.04.02.03,0,.05-.02.05-.05,0,0,0-.01,0-.02v-.02l.02.02h0s.02.05.05.05c.03,0,.05-.01.05-.04h0s0,0,0,0c0,.02.03.03.05.03.03,0,.05-.02.05-.05,0,0,0,0,0-.01h.01Z"/>
      <path class="cls-27" d="m9.07,9.78c-.13,0-.25.02-.33.05h-.01s0-.02,0-.02c.09-.03.21-.05.34-.05s.26.02.35.05c0,0,0,0,0,.01h-.01c-.11-.02-.22-.04-.34-.04"/>
      <path class="cls-18" d="m9.07,9.78c-.13,0-.25.02-.33.05h-.01s0-.02,0-.02c.09-.03.21-.05.34-.05s.26.02.35.05c0,0,0,0,0,.01h-.01c-.11-.02-.22-.04-.34-.04h0Z"/>
      <path class="cls-28" d="m8.94,9.83s0-.02.02-.02c.01,0,.02,0,.02.02s0,.02-.02.02c-.01,0-.02,0-.02-.02"/>
      <path class="cls-18" d="m8.94,9.83s0-.02.02-.02c.01,0,.02,0,.02.02s0,.02-.02.02c-.01,0-.02,0-.02-.02Z"/>
      <path class="cls-32" d="m9.07,9.83h-.05s-.01,0-.01-.01h.01s.09-.01.09-.01c0,0,0,0,0,.01,0,0,0,.01-.01.01h-.05"/>
      <path class="cls-18" d="m9.07,9.83h-.05s-.01,0-.01-.01h.01s.09-.01.09-.01c0,0,0,0,0,.01,0,0,0,.01-.01.01h-.05"/>
      <path class="cls-31" d="m8.86,9.85h-.03s-.02,0-.02,0c0,0,0,0,0,0,0,0,0-.01.01-.01h.03s.03,0,.03,0c0,0,.01,0,.02,0,0,0,0,.02,0,.02,0,0,0,0,0,0h-.03"/>
      <path class="cls-18" d="m8.86,9.85h-.03s-.02,0-.02,0c0,0,0,0,0,0,0,0,0-.01.01-.01h.03s.03,0,.03,0c0,0,.01,0,.02,0,0,0,0,.02,0,.02,0,0,0,0,0,0h-.03"/>
      <path class="cls-32" d="m8.73,9.87v-.02h.05l-.02.03h-.03"/>
      <path class="cls-18" d="m8.73,9.87v-.02h.05l-.02.03h-.03"/>
      <path class="cls-28" d="m9.16,9.83s0-.02.02-.02c.01,0,.02,0,.02.02,0,0,0,.02-.02.02-.01,0-.02,0-.02-.02"/>
      <path class="cls-18" d="m9.16,9.83s0-.02.02-.02c.01,0,.02,0,.02.02,0,0,0,.02-.02.02-.01,0-.02,0-.02-.02Z"/>
      <path class="cls-31" d="m9.28,9.85h.03s.01,0,.01,0c0,0,0-.01,0-.01h-.03s-.03,0-.03,0c0,0-.01,0-.02,0,0,0,0,.01.01.02h.03"/>
      <path class="cls-18" d="m9.28,9.85h.03s.01,0,.01,0c0,0,0-.01,0-.01h-.03s-.03,0-.03,0c0,0-.01,0-.02,0,0,0,0,.01.01.02h.03"/>
      <path class="cls-32" d="m9.4,9.87v-.02h-.04v.03s.04,0,.04,0"/>
      <path class="cls-18" d="m9.4,9.87v-.02h-.04v.03s.04,0,.04,0"/>
      <path class="cls-32" d="m9.07,9.95c-.09,0-.18,0-.28-.03.09-.02.18-.03.28-.03.11,0,.21.01.28.03-.07.02-.17.03-.28.03"/>
      <path class="cls-8" d="m9.07,9.95c-.09,0-.18,0-.28-.03.09-.02.18-.03.28-.03.11,0,.21.01.28.03-.07.02-.17.03-.28.03h0Z"/>
      <path class="cls-27" d="m9.41,9.72h0s-.01-.01-.02,0v.02s.02,0,.02-.01"/>
      <path class="cls-18" d="m9.41,9.72h0s-.01-.01-.02,0v.02s.02,0,.02-.01h0Z"/>
      <path class="cls-27" d="m9.19,9.68s0-.02-.01-.02c0,0,0,0,0,.01s0,.02,0,.02h.01"/>
      <path class="cls-18" d="m9.19,9.68s0-.02-.01-.02c0,0,0,0,0,.01s0,.02,0,.02h.01Z"/>
      <path class="cls-27" d="m8.95,9.68s0-.02,0-.02h.01s0,.03,0,.03c0,0-.01,0-.01-.01"/>
      <path class="cls-18" d="m8.95,9.68s0-.02,0-.02h.01s0,.03,0,.03c0,0-.01,0-.01-.01Z"/>
      <path class="cls-27" d="m8.73,9.72h0s.01-.01.02,0v.02s-.02,0-.02-.01"/>
      <path class="cls-18" d="m8.73,9.72h0s.01-.01.02,0v.02s-.02,0-.02-.01h0Z"/>
      <path class="cls-27" d="m9.07,9.56l-.04.02.03.06h0s.01,0,.01,0l.03-.06-.04-.02"/>
      <path class="cls-18" d="m9.07,9.56l-.04.02.03.06h0s.01,0,.01,0l.03-.06-.04-.02"/>
      <path class="cls-27" d="m8.98,9.65l.02.02.06-.02h0s0-.02,0-.02h-.06s-.02.01-.02.01"/>
      <path class="cls-18" d="m8.98,9.65l.02.02.06-.02h0s0-.02,0-.02h-.06s-.02.01-.02.01"/>
      <path class="cls-27" d="m9.15,9.65v.02s-.07-.02-.07-.02h0v-.02h.06s.02.01.02.01"/>
      <path class="cls-18" d="m9.15,9.65v.02s-.07-.02-.07-.02h0v-.02h.06s.02.01.02.01"/>
      <path class="cls-27" d="m8.82,9.58l-.03.03.04.05h0s0,0,0,0v-.06s-.03-.01-.03-.01"/>
      <path class="cls-18" d="m8.82,9.58l-.03.03.04.05h0s0,0,0,0v-.06s-.03-.01-.03-.01"/>
      <path class="cls-27" d="m8.76,9.68l.02.02.06-.03h0s0-.02,0-.02h-.06s-.01.02-.01.02"/>
      <path class="cls-18" d="m8.76,9.68l.02.02.06-.03h0s0-.02,0-.02h-.06s-.01.02-.01.02"/>
      <path class="cls-27" d="m8.92,9.65v.03h-.08s0-.02,0-.02l.06-.03.02.02"/>
      <path class="cls-18" d="m8.92,9.65v.03h-.08s0-.02,0-.02l.06-.03.02.02"/>
      <path class="cls-27" d="m8.7,9.69v.03h-.06s0,0,0,0h0s.05-.05.05-.05l.03.02"/>
      <path class="cls-18" d="m8.7,9.69v.03h-.06s0,0,0,0h0s.05-.05.05-.05l.03.02"/>
      <path class="cls-27" d="m8.82,9.67s0-.02.02-.02c.01,0,.02.01.02.02,0,.01-.01.02-.02.02-.01,0-.02,0-.02-.02"/>
      <path class="cls-18" d="m8.82,9.67s0-.02.02-.02c.01,0,.02.01.02.02,0,.01-.01.02-.02.02-.01,0-.02,0-.02-.02Z"/>
      <path class="cls-27" d="m9.31,9.58l.03.03-.04.05h0s0,0,0,0v-.06s.02-.01.02-.01"/>
      <path class="cls-18" d="m9.31,9.58l.03.03-.04.05h0s0,0,0,0v-.06s.02-.01.02-.01"/>
      <path class="cls-27" d="m9.38,9.68l-.02.02-.06-.03h0s0-.02,0-.02h.06s.01.02.01.02"/>
      <path class="cls-18" d="m9.38,9.68l-.02.02-.06-.03h0s0-.02,0-.02h.06s.01.02.01.02"/>
      <path class="cls-27" d="m9.21,9.65v.03h.08s0-.02,0-.02l-.06-.03-.02.02"/>
      <path class="cls-18" d="m9.21,9.65v.03h.08s0-.02,0-.02l-.06-.03-.02.02"/>
      <path class="cls-27" d="m9.43,9.69v.03h.06s0,0,0,0h0s-.05-.05-.05-.05l-.03.02"/>
      <path class="cls-18" d="m9.43,9.69v.03h.06s0,0,0,0h0s-.05-.05-.05-.05l-.03.02"/>
      <path class="cls-27" d="m9.05,9.64s0-.02.02-.02c0,0,.02,0,.02.02,0,.01,0,.02-.02.02-.01,0-.02-.01-.02-.02"/>
      <path class="cls-18" d="m9.05,9.64s0-.02.02-.02c0,0,.02,0,.02.02,0,.01,0,.02-.02.02-.01,0-.02-.01-.02-.02Z"/>
      <path class="cls-27" d="m9.27,9.67s.01-.02.02-.02c.01,0,.02,0,.02.02s0,.02-.02.02c-.01,0-.02,0-.02-.02"/>
      <path class="cls-18" d="m9.27,9.67s.01-.02.02-.02c.01,0,.02,0,.02.02s0,.02-.02.02c-.01,0-.02,0-.02-.02Z"/>
      <path class="cls-27" d="m9.03,9.41s.02-.04.04-.04.05.01.05.04-.02.04-.05.04c-.02,0-.03-.02-.04-.04"/>
      <path class="cls-27" d="m9.1,9.4v.03h-.07v-.03h.02v-.06h-.02v-.02h.02v-.03h.03v.03h.03v.03h-.03v.05h.02"/>
      <path class="cls-18" d="m9.1,9.4v.03h-.07v-.03h.02v-.06h-.02v-.02h.02v-.03h.03v.03h.03v.03h-.03v.05h.02Z"/>
      <path class="cls-27" d="m9.12,9.4v.03h-.11v-.03h.05v-.06h-.03v-.02h.03v-.03h.03v.03h.03v.03h-.03v.05h.05"/>
      <path class="cls-18" d="m9.08,9.38s.03.02.03.04c0,.02-.02.04-.04.04-.02,0-.03-.02-.04-.04,0-.02,0-.03.03-.04"/>
      <path class="cls-27" d="m8.62,9.73l-.03-.03s-.02-.01-.03-.01c0,0,.01-.01.03-.01,0,0,.01,0,.02,0h0s.01,0,.02,0v.05"/>
      <path class="cls-18" d="m8.62,9.73l-.03-.03s-.02-.01-.03-.01c0,0,.01-.01.03-.01,0,0,.01,0,.02,0h0s.01,0,.02,0v.05h0Z"/>
      <path class="cls-27" d="m8.62,9.72s.02,0,.02,0c0,0,.01.01,0,.02h-.02s0-.02,0-.03"/>
      <path class="cls-18" d="m8.62,9.72s.02,0,.02,0c0,0,.01.01,0,.02h-.02s0-.02,0-.03h0Z"/>
      <path class="cls-27" d="m9.51,9.73l.03-.03s.03-.01.03-.01c0,0-.01-.01-.03-.01,0,0-.01,0-.02,0h0s-.01,0-.02,0v.03h0"/>
      <path class="cls-18" d="m9.51,9.73l.03-.03s.03-.01.03-.01c0,0-.01-.01-.03-.01,0,0-.01,0-.02,0h0s-.01,0-.02,0v.03h0s0,.01,0,.01Z"/>
      <path class="cls-27" d="m9.51,9.72s-.01,0-.02,0c0,0,0,.01,0,.02h.02s0-.02,0-.03"/>
      <path class="cls-18" d="m9.51,9.72s-.01,0-.02,0c0,0,0,.01,0,.02h.02s0-.02,0-.03h0Z"/>
      <path class="cls-27" d="m8.58,10.22h.98v-.25h-.98v.26h0Z"/>
      <path class="cls-5" d="m8.58,10.22h.98v-.25h-.98v.26h0Z"/>
      <path class="cls-27" d="m9.46,10.4s-.01,0-.02,0h-.76s.05-.03.05-.05c0-.03-.02-.05-.05-.06h.78,0s-.05.03-.05.06c0,.02.02.05.05.05"/>
      <path class="cls-24" d="m9.46,10.4s-.01,0-.02,0h-.76s.05-.03.05-.05c0-.03-.02-.05-.05-.06h.78,0s-.05.03-.05.06c0,.02.02.05.05.05Z"/>
      <path class="cls-27" d="m8.7,10.4h.73s.05.01.05.03-.02.04-.05.04h-.73s-.05-.02-.05-.04.02-.04.05-.04"/>
      <path class="cls-5" d="m8.7,10.4h.73s.05.01.05.03-.02.04-.05.04h-.73s-.05-.02-.05-.04.02-.04.05-.04h0Z"/>
      <path class="cls-27" d="m8.7,10.22h.73s.05.02.05.03c0,.02-.02.03-.05.03h-.73s-.05,0-.05-.03c0-.01.02-.03.05-.03"/>
      <path class="cls-5" d="m8.7,10.22h.73s.05.02.05.03c0,.02-.02.03-.05.03h-.73s-.05,0-.05-.03c0-.01.02-.03.05-.03h0Z"/>
      <path class="cls-29" d="m8.39,14.55c.06,0,.12-.01.17-.04.05-.02.11-.04.17-.04.06,0,.13.01.17.04s.11.04.17.04c.07,0,.13-.01.17-.04.05-.02.11-.04.17-.04.06,0,.12.01.17.04.05.02.11.04.17.04v.11c-.06,0-.12-.01-.17-.04-.05-.03-.11-.04-.17-.04-.06,0-.12.01-.17.04-.05.02-.11.04-.17.04-.06,0-.12-.01-.17-.04-.05-.03-.11-.04-.17-.04-.06,0-.12.01-.17.04-.05.02-.11.04-.17.04v-.11"/>
      <path class="cls-5" d="m8.39,14.55c.06,0,.12-.01.17-.04.05-.02.11-.04.17-.04.06,0,.13.01.17.04s.11.04.17.04c.07,0,.13-.01.17-.04.05-.02.11-.04.17-.04.06,0,.12.01.17.04.05.02.11.04.17.04v.11c-.06,0-.12-.01-.17-.04-.05-.03-.11-.04-.17-.04-.06,0-.12.01-.17.04-.05.02-.11.04-.17.04-.06,0-.12-.01-.17-.04-.05-.03-.11-.04-.17-.04-.06,0-.12.01-.17.04-.05.02-.11.04-.17.04v-.11h0Z"/>
      <path class="cls-35" d="m8.39,14.66c.06,0,.12-.02.17-.04s.11-.04.17-.04.13.01.17.04.11.04.17.04c.06,0,.12-.01.17-.04.05-.02.11-.04.17-.04.07,0,.13.01.17.04.05.02.11.04.17.04v.11c-.06,0-.12-.01-.17-.04-.05-.02-.11-.03-.17-.03-.06,0-.12,0-.17.03-.05.02-.11.04-.17.04-.06,0-.12-.01-.17-.04-.05-.02-.11-.03-.17-.03-.06,0-.12,0-.17.03-.05.03-.11.04-.17.04v-.11"/>
      <path class="cls-5" d="m8.39,14.66c.06,0,.12-.02.17-.04s.11-.04.17-.04.13.01.17.04.11.04.17.04c.06,0,.12-.01.17-.04.05-.02.11-.04.17-.04.07,0,.13.01.17.04.05.02.11.04.17.04v.11c-.06,0-.12-.01-.17-.04-.05-.02-.11-.03-.17-.03-.06,0-.12,0-.17.03-.05.02-.11.04-.17.04-.06,0-.12-.01-.17-.04-.05-.02-.11-.03-.17-.03-.06,0-.12,0-.17.03-.05.03-.11.04-.17.04v-.11"/>
      <path class="cls-29" d="m8.39,14.76c.06,0,.12,0,.17-.04.05-.02.11-.03.17-.03s.13,0,.17.03.11.04.17.04c.06,0,.12-.01.17-.04.05-.02.11-.04.17-.04.06,0,.12.01.17.04.05.02.11.04.17.04v.11c-.06,0-.12-.01-.17-.04-.05-.02-.11-.03-.17-.03-.06,0-.12.01-.17.03-.05.03-.11.04-.17.04-.06,0-.13-.01-.17-.04-.05-.03-.11-.04-.17-.04-.06,0-.12.01-.17.04-.05.02-.11.04-.17.04v-.11"/>
      <path class="cls-5" d="m8.39,14.76c.06,0,.12,0,.17-.04.05-.02.11-.03.17-.03s.13,0,.17.03.11.04.17.04c.06,0,.12-.01.17-.04.05-.02.11-.04.17-.04.06,0,.12.01.17.04.05.02.11.04.17.04v.11c-.06,0-.12-.01-.17-.04-.05-.02-.11-.03-.17-.03-.06,0-.12.01-.17.03-.05.03-.11.04-.17.04-.06,0-.13-.01-.17-.04-.05-.03-.11-.04-.17-.04-.06,0-.12.01-.17.04-.05.02-.11.04-.17.04v-.11"/>
      <path class="cls-35" d="m8.39,14.97c.06,0,.12-.01.17-.04.05-.02.11-.04.17-.04s.13.01.17.04.11.04.17.04c.07,0,.13-.01.17-.04.05-.02.11-.03.17-.03.07,0,.13.01.17.04.05.03.11.04.17.04v-.11c-.06,0-.12-.01-.17-.04-.05-.02-.11-.03-.17-.03-.06,0-.12.01-.17.03-.05.02-.11.04-.17.04-.06,0-.13-.01-.17-.04-.05-.03-.11-.04-.17-.04-.06,0-.12.01-.17.04-.05.02-.11.04-.17.04v.11"/>
      <path class="cls-5" d="m8.39,14.97c.06,0,.12-.01.17-.04.05-.02.11-.04.17-.04s.13.01.17.04.11.04.17.04c.07,0,.13-.01.17-.04.05-.02.11-.03.17-.03.07,0,.13.01.17.04.05.03.11.04.17.04v-.11c-.06,0-.12-.01-.17-.04-.05-.02-.11-.03-.17-.03-.06,0-.12.01-.17.03-.05.02-.11.04-.17.04-.06,0-.13-.01-.17-.04-.05-.03-.11-.04-.17-.04-.06,0-.12.01-.17.04-.05.02-.11.04-.17.04v.11"/>
      <path class="cls-29" d="m8.39,15.08c.06,0,.12-.01.17-.04.05-.02.11-.04.17-.04s.13.01.17.04.11.04.17.04c.06,0,.12-.01.17-.04.05-.02.11-.03.17-.03.07,0,.13.01.17.04.05.02.11.04.17.04v-.11c-.06,0-.12-.01-.17-.04-.05-.03-.11-.04-.17-.04-.06,0-.11,0-.17.03-.05.03-.11.04-.17.04-.06,0-.13-.01-.17-.04-.05-.02-.11-.04-.17-.04-.06,0-.12.01-.17.04s-.11.04-.17.04v.11"/>
      <path class="cls-5" d="m8.39,15.08c.06,0,.12-.01.17-.04.05-.02.11-.04.17-.04s.13.01.17.04.11.04.17.04c.06,0,.12-.01.17-.04.05-.02.11-.03.17-.03.07,0,.13.01.17.04.05.02.11.04.17.04v-.11c-.06,0-.12-.01-.17-.04-.05-.03-.11-.04-.17-.04-.06,0-.11,0-.17.03-.05.03-.11.04-.17.04-.06,0-.13-.01-.17-.04-.05-.02-.11-.04-.17-.04-.06,0-.12.01-.17.04s-.11.04-.17.04v.11h0Z"/>
      <path class="cls-27" d="m9.46,14.12v.02c0,.07.05.12.12.12h-1.01c.07,0,.12-.06.12-.12v-.02s.77,0,.77,0"/>
      <path class="cls-24" d="m9.46,14.12v.02c0,.07.05.12.12.12h-1.01c.07,0,.12-.06.12-.12v-.02s.77,0,.77,0Z"/>
      <path class="cls-27" d="m8.7,14.05h.73s.05.01.05.04c0,.02-.02.03-.05.03h-.73s-.05-.01-.05-.04c0-.02.02-.03.05-.03"/>
      <path class="cls-5" d="m8.7,14.05h.73s.05.01.05.04c0,.02-.02.03-.05.03h-.73s-.05-.01-.05-.04c0-.02.02-.03.05-.03Z"/>
      <path class="cls-27" d="m8.57,14.52h1.01v-.26h-1.01v.26h0Z"/>
      <path class="cls-5" d="m8.57,14.52h1.01v-.26h-1.01v.26h0Z"/>
      <path class="cls-32" d="m9.65,13.14c.1.06.17.11.16.15,0,.03-.04.05-.08.07-.07.05-.11.14-.08.18-.11-.09-.13-.24-.04-.35.01-.02.03-.04.05-.05"/>
      <path class="cls-5" d="m9.65,13.14c.1.06.17.11.16.15,0,.03-.04.05-.08.07-.07.05-.11.14-.08.18-.11-.09-.13-.24-.04-.35.01-.02.03-.04.05-.05h0Z"/>
      <path class="cls-35" d="m8.71,14.01h.72v-3.51h-.72v3.51h0Z"/>
      <path class="cls-5" d="m9.23,10.5v3.5m.08-3.5v3.5m-.6,0h.71v-3.51h-.72v3.51h0Z"/>
      <path class="cls-32" d="m7.98,11.81c.34-.12.71-.15,1.07-.09.43.07.75.24.73.38h0s.16-.37.16-.37c.03-.15-.33-.34-.81-.42-.14-.02-.28-.03-.42-.03-.31,0-.57.04-.73.1v.43"/>
      <path class="cls-24" d="m7.98,11.81c.34-.12.71-.15,1.07-.09.43.07.75.24.73.38h0s.16-.37.16-.37c.03-.15-.33-.34-.81-.42-.14-.02-.28-.03-.42-.03-.31,0-.57.04-.73.1v.43"/>
      <path class="cls-32" d="m9.43,12.25c.2-.01.33-.06.35-.15,0-.07-.06-.14-.17-.21-.06,0-.11.01-.18.01v.34"/>
      <path class="cls-5" d="m9.43,12.25c.2-.01.33-.06.35-.15,0-.07-.06-.14-.17-.21-.06,0-.11.01-.18.01v.34"/>
      <path class="cls-32" d="m8.71,11.99c-.09,0-.18.04-.26.09h0c-.02.06.08.15.27.26v-.34"/>
      <path class="cls-5" d="m8.71,11.99c-.09,0-.18.04-.26.09h0c-.02.06.08.15.27.26v-.34"/>
      <path class="cls-32" d="m9.87,12.93c.02-.06-.17-.17-.44-.27-.13-.05-.23-.09-.36-.15-.38-.17-.66-.36-.62-.43h0s-.05.36-.05.36c-.04.06.22.25.57.42.11.06.35.14.46.18.2.06.4.2.38.24l.06-.35"/>
      <path class="cls-24" d="m9.87,12.93c.02-.06-.17-.17-.44-.27-.13-.05-.23-.09-.36-.15-.38-.17-.66-.36-.62-.43h0s-.05.36-.05.36c-.04.06.22.25.57.42.11.06.35.14.46.18.2.06.4.2.38.24l.06-.35h0Z"/>
      <path class="cls-27" d="m8.43,11.66c.03-.11.06-.2.1-.3h-.02s-.02,0-.02,0c-.02.07-.04.15-.06.22-.05-.06-.09-.12-.12-.19h-.05s-.05,0-.05,0c.06.09.12.17.18.26h.05m.28-.31h-.05s-.02,0-.04,0v.28h.19v-.03h-.12v-.25m.32.05h.09s0-.02,0-.02l-.27-.02v.04s.06,0,.09,0l-.02.26h.07l.02-.25m.11.27s.02,0,.04,0h.04s.03-.12.03-.12l.03.05.04.1h.05s.03.02.05.02v-.03s-.06-.09-.07-.13c.05,0,.09-.01.1-.05,0-.03,0-.05-.03-.07-.02-.01-.06-.02-.08-.02l-.11-.02-.06.27m.14-.24s.07.01.07.05v.02s-.05.05-.09.04l.02-.11m.37.32v.09s.03.02.03.02l.04.02.02-.32s-.02,0-.03-.01l-.28.17h.02s.02.02.02.02l.08-.05.11.06h0Zm-.08-.07l.09-.06v.11s-.09-.05-.09-.05"/>
      <path class="cls-16" d="m4.68,8.82s.05-.09.09-.09.1.05.1.09c0,.05-.05.09-.1.09-.05,0-.09-.04-.1-.09,0,0,0,0,0,0h0Z"/>
      <path class="cls-22" d="m5.76,8.04c.29,0,.55.05.72.11.21.09.44.12.67.11.12,0,.3.04.47.11.12.05.24.13.34.22l-.07.06-.02.17-.19.22-.09.08-.23.18h-.11s-.03.11-.03.11l-1.45-.17-1.45.17-.04-.1h-.11s-.22-.19-.22-.19l-.09-.08-.19-.22-.02-.17-.07-.06c.1-.09.22-.16.34-.22.15-.07.31-.11.47-.11.09,0,.19,0,.3,0,.13-.01.25-.04.37-.09.17-.07.41-.11.71-.11Z"/>
      <path class="cls-12" d="m5.78,9.95c-.54,0-1.03-.06-1.37-.17-.02,0-.04-.03-.04-.05,0-.02.01-.05.04-.05.45-.12.91-.17,1.37-.17.54,0,1.02.06,1.37.17.03.01.04.05.03.08,0,.01-.02.03-.03.03-.34.1-.82.17-1.37.17"/>
      <path class="cls-32" d="m5.78,9.88c-.49,0-.93-.05-1.26-.14.33-.09.77-.14,1.26-.14.43,0,.85.04,1.27.14-.33.09-.78.15-1.27.15"/>
      <path class="cls-16" d="m5.82,9.89v-.29m-.08.29v-.29"/>
      <path class="cls-23" d="m5.67,9.89v-.29m-.07.29v-.29"/>
      <path class="cls-18" d="m5.53,9.89v-.29m-.13.27v-.26m.06.27v-.27m-.17.26v-.24m.06.25v-.26"/>
      <path class="cls-5" d="m5.13,9.85v-.22m.05.22v-.22m.05.23v-.23m-.16.22v-.21"/>
      <path class="cls-19" d="m5.03,9.83v-.19m-.05.19v-.18"/>
      <path class="cls-9" d="m4.86,9.81v-.14m.06.15v-.16m-.11.14v-.13"/>
      <path class="cls-17" d="m4.75,9.79v-.11m-.06.09v-.08m-.05.07v-.06"/>
      <path class="cls-10" d="m4.57,9.75v-.03"/>
      <path class="cls-16" d="m6.13,9.87v-.27m-.13.27v-.28m-.1.28v-.29"/>
      <path class="cls-12" d="m5.78,9.51c-.46,0-.93.05-1.38.18.03-.01.02-.05-.01-.14-.05-.11-.11-.11-.11-.11.38-.11.92-.18,1.5-.18.51,0,1.02.05,1.51.18,0,0-.07,0-.11.11-.04.09-.04.13,0,.14-.34-.1-.84-.17-1.39-.17"/>
      <path class="cls-12" d="m5.78,9.25c-.59,0-1.12.07-1.5.18-.02,0-.05,0-.06-.03,0,0,0,0,0,0,0-.02,0-.05.03-.06,0,0,0,0,0,0,.5-.14,1.01-.2,1.53-.19.6,0,1.15.08,1.54.19.03,0,.04.04.03.06s-.04.04-.06.03c-.38-.11-.92-.18-1.51-.18"/>
      <path class="cls-24" d="m5.78,9.88c-.49,0-.93-.05-1.26-.14.33-.09.77-.14,1.26-.14.43,0,.85.04,1.27.14-.33.09-.78.15-1.27.15h0Z"/>
      <path class="cls-3" d="m5.36,9.39s.02-.05.05-.05c.02,0,.05.02.05.05s-.02.05-.05.05c-.03,0-.05-.02-.05-.05"/>
      <path class="cls-25" d="m5.78,9.42h-.14s-.05-.02-.05-.05.02-.05.05-.05h.29s.05.02.05.05-.02.05-.05.05h-.15"/>
      <path class="cls-11" d="m5.06,9.46h-.11s-.05,0-.05-.03c0-.03.02-.05.04-.05,0,0,0,0,0,0h.1s.11-.03.11-.03c.02,0,.05.01.05.04,0,.02-.01.05-.04.05l-.11.02"/>
      <path class="cls-3" d="m4.63,9.47s.02-.05.05-.05.05.02.05.05c0,.02-.02.05-.05.05-.03,0-.05-.02-.05-.05"/>
      <path class="cls-25" d="m4.31,9.56l.05-.07.15.02-.12.09-.08-.04"/>
      <path class="cls-11" d="m6.51,9.46h.11s.05,0,.05-.03c0-.03-.02-.05-.04-.05,0,0,0,0,0,0h-.1s-.11-.03-.11-.03c-.03,0-.05.02-.05.04,0,0,0,0,0,0,0,.02.01.05.04.05l.11.02"/>
      <path class="cls-3" d="m6.11,9.39s.02-.05.05-.05.05.02.05.05-.02.05-.05.05c-.03,0-.05-.02-.05-.05m.72.09s.02-.05.05-.05c.03,0,.05.02.05.05,0,.02-.02.05-.05.05-.03,0-.05-.02-.05-.05"/>
      <path class="cls-25" d="m7.25,9.56l-.05-.07-.15.02.12.09.08-.04"/>
      <path class="cls-5" d="m4.46,9.75c.34-.1.81-.16,1.32-.16s.98.06,1.32.16"/>
      <path class="cls-27" d="m4.69,8.42l.06.05.09-.15c-.12-.07-.18-.2-.17-.33,0-.19.24-.35.54-.35.15,0,.29.05.39.11,0-.03,0-.05,0-.08-.12-.07-.26-.1-.4-.1-.34,0-.6.19-.62.42-.01.13.04.26.14.35l-.05.08"/>
      <path class="cls-5" d="m4.69,8.42l.06.05.09-.15c-.12-.07-.18-.2-.17-.33,0-.19.24-.35.54-.35.15,0,.29.05.39.11,0-.03,0-.05,0-.08-.12-.07-.26-.1-.4-.1-.34,0-.6.19-.62.42-.01.13.04.26.14.35l-.05.08"/>
      <path class="cls-27" d="m4.69,8.42c-.11-.08-.18-.2-.18-.33,0-.15.09-.28.24-.37-.1.07-.16.19-.16.31,0,.12.05.23.14.31l-.04.08"/>
      <path class="cls-5" d="m4.69,8.42c-.11-.08-.18-.2-.18-.33,0-.15.09-.28.24-.37-.1.07-.16.19-.16.31,0,.12.05.23.14.31l-.04.08"/>
      <path class="cls-27" d="m3.67,8.58c-.07-.07-.11-.17-.11-.27,0-.06.01-.12.05-.17.09-.19.38-.33.73-.33.09,0,.18,0,.27.03l-.05.06c-.07-.01-.15-.02-.22-.02-.32,0-.59.12-.66.29-.02.04-.03.09-.03.14,0,.1.05.19.12.26l-.12.19-.06-.05.08-.13"/>
      <path class="cls-5" d="m3.67,8.58c-.07-.07-.11-.17-.11-.27,0-.06.01-.12.05-.17.09-.19.38-.33.73-.33.09,0,.18,0,.27.03l-.05.06c-.07-.01-.15-.02-.22-.02-.32,0-.59.12-.66.29-.02.04-.03.09-.03.14,0,.1.05.19.12.26l-.12.19-.06-.05.08-.13h0Z"/>
      <path class="cls-27" d="m3.79,7.94c-.08.04-.14.11-.18.19-.03.05-.04.11-.04.17,0,.11.04.2.11.27l-.07.11c-.07-.08-.11-.19-.11-.3,0-.18.11-.34.29-.45"/>
      <path class="cls-5" d="m3.79,7.94c-.08.04-.14.11-.18.19-.03.05-.04.11-.04.17,0,.11.04.2.11.27l-.07.11c-.07-.08-.11-.19-.11-.3,0-.18.11-.34.29-.45Z"/>
      <path class="cls-27" d="m5.78,7.53c.08,0,.15.05.16.12.01.06.02.13.02.21v.05c0,.15.03.29.06.37l-.24.23-.24-.23c.03-.08.05-.22.06-.37v-.05c0-.07,0-.14.02-.21.01-.07.08-.12.16-.12"/>
      <path class="cls-5" d="m5.78,7.53c.08,0,.15.05.16.12.01.06.02.13.02.21v.05c0,.15.03.29.06.37l-.24.23-.24-.23c.03-.08.05-.22.06-.37v-.05c0-.07,0-.14.02-.21.01-.07.08-.12.16-.12Z"/>
      <path class="cls-27" d="m5.78,7.61s.08.03.08.06c0,.05.02.12.02.19v.05c0,.15.03.27.05.35l-.16.15-.16-.15c.03-.08.05-.21.05-.35v-.05c0-.06,0-.13.02-.19.01-.04.04-.06.08-.06"/>
      <path class="cls-5" d="m5.78,7.61s.08.03.08.06c0,.05.02.12.02.19v.05c0,.15.03.27.05.35l-.16.15-.16-.15c.03-.08.05-.21.05-.35v-.05c0-.06,0-.13.02-.19.01-.04.04-.06.08-.06Z"/>
      <path class="cls-27" d="m6.86,8.42l-.06.05-.09-.15c.1-.06.16-.17.17-.29,0-.01,0-.03,0-.04,0-.19-.24-.35-.54-.35-.14,0-.27.04-.39.11,0-.03,0-.06,0-.08.12-.07.26-.1.4-.1.34,0,.6.19.61.42.01.13-.04.26-.14.35l.05.08"/>
      <path class="cls-5" d="m6.86,8.42l-.06.05-.09-.15c.1-.06.16-.17.17-.29,0-.01,0-.03,0-.04,0-.19-.24-.35-.54-.35-.14,0-.27.04-.39.11,0-.03,0-.06,0-.08.12-.07.26-.1.4-.1.34,0,.6.19.61.42.01.13-.04.26-.14.35l.05.08"/>
      <path class="cls-27" d="m6.86,8.42c.11-.07.18-.2.19-.33,0-.15-.1-.28-.24-.37.1.07.16.19.16.31,0,.12-.06.23-.15.31l.05.08"/>
      <path class="cls-5" d="m6.86,8.42c.11-.07.18-.2.19-.33,0-.15-.1-.28-.24-.37.1.07.16.19.16.31,0,.12-.06.23-.15.31l.05.08"/>
      <path class="cls-27" d="m7.88,8.58c.07-.07.1-.17.1-.27,0-.06-.01-.12-.04-.17-.09-.19-.38-.33-.73-.33-.09,0-.18,0-.28.03l.05.06c.08-.01.15-.02.23-.02.32,0,.59.12.66.29.02.05.03.09.03.14,0,.1-.04.19-.12.26l.11.19.06-.05-.08-.13"/>
      <path class="cls-5" d="m7.88,8.58c.07-.07.1-.17.1-.27,0-.06-.01-.12-.04-.17-.09-.19-.38-.33-.73-.33-.09,0-.18,0-.28.03l.05.06c.08-.01.15-.02.23-.02.32,0,.59.12.66.29.02.05.03.09.03.14,0,.1-.04.19-.12.26l.11.19.06-.05-.08-.13h0Z"/>
      <path class="cls-27" d="m7.76,7.94c.08.04.14.11.18.19.03.05.04.11.04.17,0,.1-.04.2-.11.27l.07.11c.07-.08.11-.19.11-.3,0-.18-.12-.34-.3-.45"/>
      <path class="cls-5" d="m7.76,7.94c.08.04.14.11.18.19.03.05.04.11.04.17,0,.1-.04.2-.11.27l.07.11c.07-.08.11-.19.11-.3,0-.18-.12-.34-.3-.45Z"/>
      <path class="cls-28" d="m5.69,8.31s.04-.08.08-.08.09.04.09.08-.04.08-.09.08c-.04,0-.08-.03-.08-.08"/>
      <path class="cls-5" d="m5.69,8.31s.04-.08.08-.08.09.04.09.08-.04.08-.09.08c-.04,0-.08-.03-.08-.08Z"/>
      <path class="cls-3" d="m5.69,8.16s.04-.08.08-.08.09.04.09.08-.04.08-.09.08c-.04,0-.08-.03-.08-.08m.02-.17s.03-.06.06-.06.07.03.07.06c0,.04-.03.06-.07.06s-.06-.03-.06-.06m.02-.15s.02-.05.05-.05.05.02.05.05-.02.05-.05.05c-.03,0-.05-.02-.05-.05m0-.13s.02-.04.04-.04c.02,0,.04.01.04.04,0,.02-.02.04-.04.04-.02,0-.04-.02-.04-.04h0"/>
      <path class="cls-12" d="m5.78,8.79h.05c-.04.12.03.24.14.27.02,0,.05.01.07,0,.09,0,.17-.05.2-.14,0,0,.02-.08.03-.08s0,.08,0,.08c.01.11.11.17.22.17.12,0,.21-.09.22-.21,0,0,0-.02,0-.02l.07-.07.03.09s-.02.06-.02.09c0,.11.1.2.21.19.07,0,.14-.03.17-.09l.04-.05v.07c0,.07.03.13.09.14,0,0,.08,0,.18-.07.1-.08.15-.14.15-.14v.08s-.07.13-.17.18c-.05.03-.12.06-.18.05-.06,0-.11-.06-.14-.12-.05.03-.1.04-.15.05-.12,0-.23-.06-.28-.17-.12.13-.33.13-.45.01,0,0-.02-.02-.02-.02-.06.05-.13.08-.21.08-.1,0-.2-.05-.26-.14-.06.09-.16.14-.26.14-.08,0-.16-.03-.22-.08-.11.14-.32.15-.45.04,0,0-.02-.01-.02-.02-.05.11-.16.17-.27.17-.06,0-.11-.02-.16-.05-.03.06-.07.11-.14.12-.05,0-.13-.02-.18-.05-.09-.05-.17-.18-.17-.18v-.08s.06.06.16.14c.1.08.18.07.18.07.06,0,.09-.07.09-.14v-.07l.05.05c.04.06.1.09.17.09.11,0,.21-.09.21-.2,0-.03,0-.06-.02-.09l.04-.09.07.07s0,.02,0,.03c0,.11.09.2.21.2.11,0,.2-.07.22-.17,0,0,0-.07,0-.08,0,0,.03.08.03.07.03.09.11.14.21.14.12,0,.21-.09.22-.21,0-.02,0-.05,0-.07h.05"/>
      <path class="cls-3" d="m7.27,9.06s0-.07-.03-.08c-.02,0-.05.01-.07.05s0,.07.03.08c.02,0,.05-.01.07-.05m-.94-.18s-.01-.07-.05-.07c-.02,0-.05.02-.05.06,0,.04.01.07.04.07.03,0,.05-.03.06-.06m-1.1,0s.02-.07.05-.07c.03,0,.05.02.05.06,0,.04-.01.07-.04.07-.03,0-.05-.03-.05-.06m-.94.18s0-.07.03-.08.05.01.07.05,0,.07-.02.08c-.03,0-.06-.01-.07-.05"/>
      <path class="cls-12" d="m4.71,8.43s.08.08.1.13c0,0,0-.01.03-.03s.05-.01.05-.01v.06s-.02.1-.02.1c0,.03-.02.05-.03.07-.02-.02-.04-.02-.07-.02-.02,0-.04.02-.05.04,0,0-.03-.03-.05-.06l-.05-.09-.03-.05s.02,0,.05,0c.03,0,.04,0,.04,0,0-.06.01-.11.05-.16m.02.45s-.02-.03-.03-.05c0-.02,0-.04.01-.05,0,0-.04-.02-.08-.03-.03,0-.09,0-.11,0h-.05v.02s.03.03.03.03c-.06.01-.1.05-.14.09.05.03.1.05.16.05v.04s0,.03,0,.03l.05-.02s.07-.02.09-.05c.04-.02.07-.05.07-.05m.12-.02s.01-.03,0-.05c0-.02-.01-.03-.03-.05l.06-.06s.06-.03.09-.04l.05-.02v.03s0,.02,0,.04c.06,0,.11.01.16.05-.03.05-.08.08-.13.09,0,.02.02.04.03.05h-.05s-.07,0-.11,0c-.03,0-.06-.02-.08-.03"/>
      <path class="cls-25" d="m4.68,8.82s.05-.09.09-.09.1.05.1.09c0,.05-.05.09-.1.09-.05,0-.09-.04-.1-.09,0,0,0,0,0,0"/>
      <path class="cls-12" d="m5.78,8.29s.08.1.09.17c0,0,0-.01.04-.02.03-.01.05,0,.05,0l-.02.06-.04.11s-.03.05-.05.08c-.02-.02-.05-.03-.08-.03-.03,0-.05.01-.07.03,0,0-.03-.03-.05-.08l-.04-.11-.02-.06h.05s.04.03.04.03c0-.06.04-.13.08-.17"/>
      <path class="cls-12" d="m5.71,8.79s-.02-.03-.02-.05c0-.02,0-.05.02-.06,0,0-.04-.03-.08-.05-.03-.02-.09-.03-.11-.03h-.05s0,.02,0,.02l.02.04c-.06,0-.12.03-.17.08.05.04.11.07.17.07l-.02.05v.03s.05,0,.05,0c.02,0,.08-.02.11-.03.05-.02.09-.05.09-.05m.14,0s.03-.08,0-.12c0,0,.04-.03.08-.05.04-.02.07-.03.11-.03h.05s0,.02,0,.02l-.02.04c.06,0,.12.04.17.08-.04.04-.1.07-.17.07,0,.03.01.05.02.07h-.05s-.11-.04-.11-.04c-.05-.02-.08-.05-.08-.05m1.01-.37s-.09.08-.1.14l-.03-.03s-.05-.01-.05-.01v.06s0,.06.02.1c0,.05.03.07.03.07.02-.02.04-.02.07-.02.03,0,.05.02.06.04l.05-.06s.05-.08.05-.09l.03-.05s-.02,0-.05,0c-.03,0-.05,0-.05,0,0-.06-.01-.11-.05-.16m-.01.45s.02-.03.03-.05c0-.02,0-.04,0-.05,0,0,.04-.02.08-.03.03,0,.09,0,.11,0h.05v.02s-.03.02-.03.03c.05.01.1.05.13.09-.05.03-.1.05-.16.05v.04s0,.03,0,.03l-.05-.02s-.06-.02-.09-.05c-.04-.02-.06-.05-.06-.05m-.13-.02s-.01-.03,0-.05c0-.02.01-.04.03-.05,0,0-.03-.04-.06-.06-.03-.02-.08-.04-.09-.04-.02,0-.03-.01-.05-.02v.03s0,.04,0,.04c-.06,0-.11.01-.16.05.03.04.08.08.14.09,0,0-.01,0-.02.03v.02s.03,0,.03,0c.02,0,.08,0,.11,0,.03,0,.06-.02.08-.03"/>
      <path class="cls-25" d="m6.69,8.82s.05-.09.09-.09.1.05.1.09c0,.05-.04.09-.09.09-.05,0-.09-.04-.1-.09,0,0,0,0,0,0m1.06.2s-.06-.02-.1,0c-.04.03-.05.07-.02.1.02.02.07.02.11-.01.03-.03.05-.07.02-.09"/>
      <path class="cls-12" d="m7.62,9.07l.03-.05s.08-.03.11,0h0s.05-.08.11-.11c.06-.03.16-.02.16-.02,0-.07-.06-.13-.13-.13,0,0,0,0,0,0-.04,0-.08.01-.11.05v-.05s-.07.01-.1.08c-.03.07,0,.17,0,.17,0,0-.01-.04-.03-.07-.03-.03-.07-.06-.11-.07l-.06-.03v.02s0,.02,0,.04c-.06,0-.12,0-.17.02.02.05.07.08.11.1l-.04.03s-.01.01-.02.02h.06s.11.02.11.02c.03,0,.05,0,.08,0m-3.68,0s-.01-.03-.03-.05c-.03-.03-.08-.04-.1-.01h0s-.05-.08-.11-.11c-.05-.03-.15-.02-.15-.02,0-.07.06-.13.13-.13h0s.09.02.11.05v-.05s.07.01.1.08c.02.07,0,.17,0,.17,0,0,.01-.04.04-.07.03-.03.07-.06.11-.07l.06-.03v.06c.06,0,.12,0,.17.02-.02.05-.07.08-.11.1l.04.03.02.02h-.05s-.12.02-.12.02c-.03,0-.05,0-.08,0"/>
      <path class="cls-25" d="m3.8,9.02s.07-.02.11.01c.03.03.05.07.02.09-.02.03-.07.02-.1,0-.04-.03-.05-.07-.02-.09m1.88-.29c0-.05.04-.09.09-.09s.1.04.1.09c0,.05-.05.09-.09.09-.05,0-.09-.04-.1-.09,0,0,0,0,0,0"/>
      <path class="cls-4" d="m5.58,7.36c0-.1.09-.18.2-.18s.19.08.19.18-.09.18-.2.18c-.1,0-.19-.08-.19-.18,0,0,0,0,0,0"/>
      <path class="cls-1" d="m5.73,6.84v.1h-.11v.1h.11v.29h-.13v.03s0,.05,0,.07h.36s.01-.05.01-.07v-.03h-.14v-.29h.11v-.1h-.11v-.1h-.11,0Z"/>
      <path class="cls-35" d="m5.8,15.15c-.56,0-1.12-.13-1.63-.38-.36-.17-.59-.54-.59-.93v-1.47h4.42v1.47c0,.4-.23.76-.59.93-.5.25-1.06.37-1.62.38"/>
      <path class="cls-19" d="m5.8,15.15c-.56,0-1.12-.13-1.63-.38-.36-.17-.59-.54-.59-.93v-1.47h4.42v1.47c0,.4-.23.76-.59.93-.5.25-1.06.37-1.62.38Z"/>
      <path class="cls-35" d="m5.79,12.38h2.21v-2.45h-2.21v2.45Z"/>
      <path class="cls-19" d="m5.79,12.38h2.21v-2.45h-2.21v2.45Z"/>
      <path class="cls-32" d="m5.79,13.84c0,.58-.49,1.05-1.1,1.05s-1.11-.47-1.11-1.05v-1.47h2.21v1.47"/>
      <path class="cls-14" d="m4.06,14.71c.07.04.17.09.27.12v-2.51h-.27v2.38h0Z"/>
      <path class="cls-20" d="m3.58,13.82c0,.25.09.49.25.69v-2.18h-.25v1.49h0Z"/>
      <path class="cls-13" d="m4.56,14.88c.09,0,.17,0,.26,0v-2.56h-.26v2.57h0Z"/>
      <path class="cls-14" d="m5.04,14.83c.09-.02.18-.06.27-.11v-2.39h-.27v2.51s0,0,0,0Z"/>
      <path class="cls-32" d="m3.58,12.38h2.21v-2.45h-2.21v2.45h0Z"/>
      <path class="cls-19" d="m3.58,12.38h2.21v-2.45h-2.21v2.45h0Z"/>
      <path class="cls-14" d="m5.55,14.48c.11-.09.21-.31.25-.56v-1.6s-.25,0-.25,0v2.17s0,0,0,0Z"/>
      <path class="cls-19" d="m5.79,13.84c0,.58-.49,1.05-1.1,1.05s-1.11-.47-1.11-1.05v-1.47h2.21v1.47"/>
      <path class="cls-32" d="m8,12.38v1.47c0,.58-.5,1.05-1.1,1.05s-1.11-.47-1.11-1.05v-1.47h2.21"/>
      <path class="cls-19" d="m8,12.38v1.47c0,.58-.5,1.05-1.1,1.05s-1.11-.47-1.11-1.05v-1.47h2.21"/>
      <path class="cls-27" d="m6.19,13.48v.02s-.02.05-.05.05c-.03,0-.05-.02-.05-.04,0,0,0,0,0,0v-.02h-.07c-.01.06.02.12.08.13v.18h.07v-.18s.06-.04.08-.07h.2v-.06h-.27m1,0v.06h-.18s0,.02-.01.03l.21.24-.05.05-.21-.24h0v.4h-.07v-.4h0l-.22.24-.05-.05.22-.24s0-.01,0-.02h-.18v-.07h.6Zm.12,0v.06h.2s.04.06.08.07v.18h.07v-.18s.08-.06.08-.11c0,0,0-.02,0-.02h-.07v.02s-.02.05-.04.05c-.03,0-.05-.02-.05-.05,0,0,0-.02,0-.02h-.27m-.31,1.01c.06,0,.12-.02.17-.05l.04.06c-.06.03-.13.05-.2.06-.01.05-.06.09-.12.09-.05,0-.1-.04-.11-.09-.07,0-.14-.03-.21-.06l.04-.06c.06.02.12.04.18.05.01-.03.04-.05.07-.06v-.31h.07v.31s.06.03.07.06h0Zm-.5-.1l-.04.06c-.06-.04-.12-.09-.17-.14-.04,0-.08,0-.11-.02-.05-.04-.06-.11-.02-.15,0,0,0,0,0,0h0c-.03-.07-.05-.15-.06-.22h.08c0,.06.02.13.05.18.02,0,.05,0,.06,0l.19-.21.06.05-.19.21s.02.09,0,.13c.04.05.09.09.14.12h0Zm-.27-.22s.05-.02.07,0,.02.05,0,.06c-.02.02-.05.02-.07,0-.02-.02-.02-.05,0-.06,0,0,0,0,0,0Zm-.1-.21h-.07s-.01-.21-.01-.21l.08-.03v.11s0,.08,0,.12h0Zm.06-.24l.08.02v.1s.01.1.01.1l-.08.03s-.01-.08-.01-.12v-.12Zm.26.63c.07.05.14.09.22.12l.02-.07c-.07-.02-.13-.05-.18-.09l-.05.05m-.04.06c.07.05.14.09.22.12l-.05.05c-.06-.02-.13-.05-.18-.09l.02-.08m.1-.43l.07.03.14-.15-.05-.06-.17.18m-.06-.05l-.05-.06.14-.15.07.03-.17.18m.83.45l.04.06c.06-.04.12-.09.17-.14.04,0,.08,0,.11-.02.05-.04.06-.11.02-.15,0,0,0,0,0,0h0c.03-.07.05-.15.06-.22h-.08c0,.06-.02.12-.05.18-.02,0-.04,0-.06,0l-.19-.21-.06.05.19.21s-.02.09,0,.13c-.04.05-.09.09-.14.12h0Zm.27-.22s-.05-.02-.07,0c-.02.02-.02.05,0,.06.02.02.05.02.07,0,.02-.02.02-.05,0-.06,0,0,0,0,0,0Zm.1-.21h.07s.01-.21.01-.21l-.08-.03v.11s0,.09,0,.13h0Zm-.06-.24l-.08.02v.1s-.01.1-.01.1l.08.03v-.12s.01-.12.01-.12m-.26.63c-.07.05-.14.09-.22.12l-.02-.07c.07-.02.13-.05.18-.09l.05.05m.04.06c-.07.05-.14.09-.22.12l.05.05c.06-.02.13-.05.18-.09l-.02-.08m-.1-.43l-.07.03-.13-.15.05-.06.16.18m.06-.05l.05-.06-.14-.15-.07.03.17.18m-.92-.4l.02.07h.21l.02-.07h-.25m.97,0l-.02.07h-.21l-.02-.07h.25m-.53,1s.02-.05.05-.05c.03,0,.05.02.05.04,0,0,0,0,0,0,0,.03-.02.05-.05.05-.03,0-.05-.02-.05-.05,0,0,0,0,0,0h0Zm.09-.36l.08-.02v-.2l-.08-.02v.24m-.07,0l-.08-.02v-.2l.08-.02v.24"/>
      <path class="cls-27" d="m6.03,13.48s.05-.07.08-.09v-.24h.07v.24s.07.04.08.07h.2s-.27.01-.27.01c0-.02-.03-.03-.05-.03-.02,0-.03.01-.05.03h-.07m.56,0h0s.19-.01.19-.01c0,0,0,0,0-.01l-.23-.26.05-.05.23.26h0v-.34h.07v.33h.01l.22-.25.05.05-.22.25v.03h.2s-.6.01-.6.01h0Zm.99,0s.03-.03.05-.03c.02,0,.04.01.05.03h.07s-.04-.07-.08-.09v-.24h-.07v.24s-.06.04-.08.07h-.2s.28.01.28.01m-1.38-.69l.28.31.06-.05-.28-.31v-.03h.22v-.08h-.2s-.06-.08-.11-.08c-.07,0-.12.05-.12.11,0,0,0,0,0,0,0,.05.03.1.08.11v.24h.07v-.24h.01,0Zm1.47,0v.24h-.08v-.24s-.01,0-.02,0l-.27.31-.06-.05.28-.32h0s-.21-.01-.21-.01v-.08h.21s.06-.08.11-.08c.07,0,.12.05.12.11,0,0,0,0,0,0,0,.05-.04.1-.09.11h0Zm-.74,0v.15h-.08v-.15s-.06-.04-.08-.07h-.18v-.08h.18s.06-.08.11-.08c.05,0,.1.03.11.08h.18v.07h-.18s-.04.06-.07.07h0Zm-.82.18l-.08.02v.2l.08.02v-.24m.07,0l.08.02v.2l-.08.02v-.24m1.4,0l-.08.02v.2l.08.02v-.24m.07,0l.08.02v.2l-.08.02v-.24m-1.17.04l.07-.03.13.15-.05.06-.16-.18m-.06.05l-.05.06.14.15.07-.03-.17-.18m.85-.05l-.07-.03-.14.15.05.06.17-.18m.05.05l.05.06-.14.15-.07-.03.16-.18m-.93.41l.02-.07h.21l.02.07h-.25m-.31-.78s.02-.05.05-.05c.03,0,.05.02.05.05,0,.03-.02.05-.05.05-.03,0-.05-.02-.05-.05,0,0,0,0,0,0Zm.55.04l-.02.07h-.21l-.02-.07h.25m0-.07l-.02-.07h-.21l-.02.07h.25m.72.82l-.02-.07h-.21l-.02.07h.25m.2-.78s.02-.05.05-.05c.03,0,.05.02.05.04,0,0,0,0,0,0,0,.03-.02.05-.05.05-.03,0-.05-.02-.05-.05,0,0,0,0,0,0h0Zm-.74,0s.02-.05.05-.05c.03,0,.05.02.05.04,0,0,0,0,0,0,0,.03-.02.05-.05.05-.03,0-.05-.02-.05-.05Zm.28.04l.02.07h.21l.02-.07h-.26m0-.07l.02-.07h.21l.02.07h-.26m-.27.23l-.08.02v.2l.08.02v-.25m.08,0l.07.02v.2l-.07.02v-.24"/>
      <path class="cls-26" d="m7,14.5c.06,0,.12-.03.17-.05l.04.06c-.06.03-.13.05-.2.06-.01.05-.06.09-.12.09-.05,0-.1-.04-.11-.09-.07,0-.14-.03-.21-.06l.04-.06c.06.02.12.04.18.05.01-.03.04-.05.07-.06v-.31h.07v.31s.06.03.07.06Zm-.22-.93s0-.01,0-.02h-.18v-.06h.18s0-.01,0-.02l-.23-.26.05-.05.23.25s0,0,0,0v-.34h.08v.33h0l.22-.25.05.05-.22.25v.03h.2v.07h-.18s0,.02-.01.02l.22.24-.06.05-.21-.24h0v.4h-.07v-.4h0s-.22.24-.22.24l-.05-.05.22-.24m-.59-.77l.28.31.06-.05-.28-.31v-.03h.22v-.08h-.2s-.06-.08-.11-.08c-.06,0-.12.05-.12.11,0,.05.03.09.08.11v.24h.07v-.24h.01Zm.3,1.59l-.04.06c-.06-.04-.12-.09-.17-.14-.04,0-.08,0-.11-.02-.05-.04-.06-.11-.02-.15,0,0,0,0,0,0h0c-.03-.07-.05-.15-.05-.22h.07c0,.06.02.13.05.18.02,0,.05,0,.06,0l.19-.21.06.05-.19.21s.02.09,0,.13c.04.05.09.09.14.12Zm-.38-.6v-.18s-.08-.06-.08-.11c0-.05.04-.09.08-.11v-.24h.07v.24s.07.04.08.07h.2v.07h-.2s-.04.06-.07.07v.18h-.08m.11.38s.05-.02.07,0,.02.05,0,.06c-.02.02-.05.02-.07,0-.02-.02-.02-.05,0-.06,0,0,0,0,0,0h0Zm-.09-.21h-.08s-.01-.21-.01-.21l.08-.03v.11s0,.08.01.12h0Zm.06-.24l.07.02v.1s.01.1.01.1l-.08.03v-.12s-.01-.12-.01-.12h0Zm.25.63c.07.05.14.09.22.12l.02-.07c-.07-.02-.13-.05-.18-.09l-.05.05m-.04.06c.07.05.14.09.22.12l-.05.05c-.06-.02-.13-.05-.18-.09l.02-.08"/>
      <path class="cls-26" d="m6.5,13.98l.07.03.14-.15-.05-.06-.17.18m-.06-.05l-.05-.06.14-.15.07.03-.17.18m-.35-.44s.02-.05.05-.05c.03,0,.05.02.05.05,0,.03-.02.05-.05.05-.03,0-.05-.02-.05-.04,0,0,0,0,0,0h0Zm1.18.89l.04.06c.06-.04.12-.09.17-.14.04,0,.08,0,.12-.02.05-.04.05-.11.01-.15,0,0,0,0,0,0h0c.03-.07.05-.15.06-.22h-.08c0,.06-.02.12-.05.18-.02,0-.04,0-.06,0l-.19-.21-.06.05.19.21s-.02.09,0,.13c-.04.05-.09.09-.14.12h0Zm.38-.6v-.18s.08-.06.08-.11c0-.05-.03-.09-.08-.11v-.24h-.07v.24s-.06.04-.08.07h-.2v.07h.2s.04.06.08.07v.18h.07Zm-.11.38s-.05-.02-.07,0c-.02.02-.02.05,0,.06.02.02.05.02.07,0,.02-.02.02-.05,0-.06,0,0,0,0,0,0h0Zm.09-.21h.08s.01-.21.01-.21l-.08-.03v.11s0,.08,0,.12h0Zm-.06-.24l-.08.02v.1s-.01.1-.01.1l.08.03v-.12s.01-.12.01-.12m.07-.92v.24h-.07v-.24s-.01,0-.02,0l-.27.31-.05-.05.27-.32h0s-.21,0-.21,0v-.08h.2s.06-.08.11-.08c.06,0,.12.05.12.11,0,.05-.03.1-.08.11h0Zm-.73,0v.15h-.08v-.15s-.06-.04-.08-.07h-.18v-.08h.18s.06-.08.11-.08.1.03.11.08h.18v.07h-.18s-.04.06-.07.07h0Zm.4,1.55c-.07.05-.14.09-.22.12l-.02-.07c.07-.02.13-.05.18-.09l.05.05m.04.06c-.07.05-.14.09-.22.12l.05.05c.06-.02.13-.05.18-.09l-.02-.08m-1.26-1.44l-.08.02v.2l.08.02v-.24m.08,0l.07.02v.2l-.07.02v-.25m1.4,0l-.08.02v.2l.08.02v-.24"/>
      <path class="cls-26" d="m7.66,12.98l.08.02v.2l-.08.02v-.25m-.39,1.01l-.07.03-.13-.15.05-.06.16.18m.06-.05l.05-.06-.14-.15-.07.03.17.18m-.83-.92l.07-.03.14.15-.05.06-.17-.18m-.06.05l-.05.06.14.15.07-.03-.17-.18m.85-.05l-.07-.03-.14.15.05.06.17-.18m.05.05l.05.06-.14.15-.07-.03.16-.18m-.93.41l.02-.07h.21l.02.07h-.25m0,.07l.02.07h.21l.02-.07h-.25m-.31-.84s.02-.05.05-.05c.03,0,.05.02.05.05s-.02.05-.05.05c-.02,0-.05-.01-.05-.04,0,0,0,0,0-.01Zm.55.04l-.02.07h-.21l-.02-.07h.25m0-.07l-.02-.07h-.21l-.02.07h.25m.92.85s.02-.05.05-.05.05.02.05.05c0,.03-.02.05-.05.05-.02,0-.05-.01-.05-.04,0,0,0,0,0-.01h0Zm-.2-.03l-.02-.07h-.21l-.02.07h.25m0,.07l-.02.07h-.21l-.02-.07h.25m-.53,1s.02-.05.05-.05.05.02.05.05-.02.05-.05.05c-.03,0-.05-.02-.05-.05,0,0,0,0,0,0h0Zm.09-.36l.08-.02v-.2l-.08-.02v.24m-.07,0l-.08-.02v-.2l.08-.02v.24m.72-1.49s.02-.05.05-.05c.03,0,.05.02.05.04,0,0,0,0,0,0,0,.03-.02.05-.05.05-.03,0-.05-.02-.05-.05,0,0,0,0,0,0h0Zm-.74,0s.02-.05.05-.05c.03,0,.05.02.05.04,0,0,0,0,0,0,0,.03-.02.05-.05.05-.03,0-.05-.02-.05-.05,0,0,0,0,0,0h0Zm.28.04l.02.07h.21l.02-.07h-.25m0-.07l.02-.07h.21l.02.07h-.25m-.27.23l-.07.02v.2l.07.02v-.25m.08,0l.07.02v.2l-.07.02v-.24"/>
      <path class="cls-31" d="m6.77,13.51c0-.06.06-.11.12-.11.06,0,.12.05.12.11,0,.06-.06.11-.12.11-.06,0-.12-.05-.12-.11"/>
      <path class="cls-33" d="m6.92,10.53v-.03h0s-.11-.02-.11-.02c-.04-.01-.07-.03-.11-.05-.04-.03-.05-.05-.07-.05-.06,0-.11.02-.11.02,0,0,.05.02.08.06s.07.06.08.06c.03,0,.12,0,.14,0h.08"/>
      <path class="cls-5" d="m6.92,10.53v-.03h0s-.11-.02-.11-.02c-.04-.01-.07-.03-.11-.05-.04-.03-.05-.05-.07-.05-.06,0-.11.02-.11.02,0,0,.05.02.08.06s.07.06.08.06c.03,0,.12,0,.14,0h.08Z"/>
      <path class="cls-2" d="m7.25,10.43v.06s0,.05,0,.07c0,.02,0,.03.01.04v.04s-.02-.02-.02-.02l-.03-.02v.05s.01.04.03.05l.05.06s0,.06,0,.06c0,0-.02-.03-.04-.04l-.05-.03s.03.04.03.07c0,.04-.01.07-.01.07,0,0-.01-.03-.04-.05l-.05-.04s.02.05.02.09v.11l-.04-.05-.05-.03s.02.03.03.05c0,.02.01.11.08.21.05.06.11.17.24.13.14-.04.09-.22.06-.31-.03-.07-.04-.14-.05-.21,0-.04.03-.13.02-.15,0-.05,0-.1,0-.14.02-.06.03-.08.04-.11,0-.03.02-.04.02-.06v-.06s.04.06.04.06v.07s0-.05.05-.07c.04-.03.08-.05.09-.06.01-.01.01-.02.01-.02,0,0,0,.08-.03.12l-.08.09s.03-.01.05-.01h.04s-.03.02-.06.07c-.04.05-.02.05-.05.1-.03.05-.05.05-.08.07-.05.04-.02.19-.02.22,0,.02.09.21.09.25s0,.15-.07.21c-.05.05-.14.05-.16.05-.02.01-.05.05-.05.13s.03.09.05.11c.03.02.05,0,.06.03,0,.01,0,.02.02.03,0,0,.01.02,0,.04,0,.01-.04.05-.05.08l-.04.11s0,.05,0,.06c0,0,.04.05.01.06-.02,0-.04,0-.05,0l-.04.02s-.01-.01-.02-.04v-.03s-.02,0-.02.02c0,0,0,.04-.01.04,0,0-.02-.02-.04-.02,0,0-.04,0-.04-.02,0-.01.02-.04.03-.05.02,0,.04-.01.02-.02s-.02,0-.03,0-.04,0-.03,0v-.04s-.02-.02,0-.04c.03-.01.04,0,.06,0,.03,0,.04-.01.05-.03,0-.01,0-.05,0-.06-.02-.02-.03-.02-.04-.04v-.04s-.01.1-.01.1l-.03-.04s-.03-.06-.03-.06v.06s.01.03,0,.04c0,0-.04-.03-.05-.04-.02-.01-.03-.03-.05-.05l-.02-.06s0-.05,0-.07l.02-.05h-.06s-.05-.01-.07,0,0,.07,0,.13c.01.05.02.09.02.1,0,.01-.02.03-.03.04h-.04s-.04-.01-.05-.01h-.11s-.04,0-.03.02c0,.03,0,.03-.02.03h-.04s-.04,0-.04-.03c0-.02,0-.02.02-.03,0-.01,0-.02,0-.02h-.03s-.02.02-.04.02c0,0-.02-.02-.02-.05s-.03-.05,0-.05c.02,0,.06.02.06,0,0-.01,0-.02,0-.03s-.04-.02-.01-.03l.03-.02s.02-.04.03-.03c.03,0,0,.03.03.06.03.03.05.05.09.04.05,0,.06,0,.06-.02v-.05s0-.05,0-.05c0,0-.02.01-.02.03l-.02.04v-.09s0-.02,0-.04v.04s-.02.05-.02.05c0,0-.03-.02-.02-.07,0-.03,0-.07,0-.09,0-.01.03-.07.09-.07h.21s-.13-.08-.16-.1c-.03-.03-.07-.06-.09-.09l-.03-.07s-.02,0-.05.01c-.02.01-.04.03-.05.05l-.03.05v-.05s0-.04,0-.04c0,0-.02.05-.05.08l-.06.05v-.08s0,.04-.04.05c-.03,0-.08,0-.09.02,0,.02,0,.05,0,.06,0,.01-.02.02-.02.02l-.04-.02s-.03,0-.03,0c0,0-.01-.02,0-.03,0,0,.03-.03.02-.04h-.04s-.04.02-.04,0c0-.02,0-.03,0-.05,0-.01,0-.02,0-.03h.05s0-.03-.04-.03-.04-.02-.02-.04c.01,0,.01-.01.02-.03,0,0,0-.03.03-.02.02.01.02.04.05.05.03,0,.06,0,.09,0l.07-.05.07-.05-.05-.04s-.03-.04-.05-.05c-.03-.01-.05-.02-.08-.03-.03,0-.05-.01-.08-.02h.04s.03-.04.04-.04h.01-.06s-.05-.03-.06-.03h-.04s.04-.01.06-.02h.05s-.04-.02-.05-.03l-.03-.05s-.01-.02-.03-.02h-.05s-.03,0-.03-.01v-.02s-.03-.04-.01-.05h.06s-.02-.03-.04-.04c-.02,0-.05-.02-.03-.04l.04-.02s.01-.05.03-.03c.02,0,.04.05.05.05.01,0,.01-.04.01-.05,0-.02,0-.05,0-.04.01,0,.02.02.05.02.02,0,.05,0,.05,0s-.01.03-.03.05-.02.05-.01.06c0,.02.03.05.05.06.02.01.05.02.08.04.02.01.08.05.1.06l.04.02s.02,0,.05,0c.03,0,.1,0,.12,0,.03,0,.06-.03.05-.05,0-.03-.06-.05-.05-.06,0-.02.02-.02.05-.02.04,0,.08,0,.09-.05,0-.05,0-.07-.04-.08-.05,0-.08,0-.09-.05,0-.03-.02-.04,0-.05.01,0,.03-.01.06-.02.04,0,.07,0,.09,0,0,0,.01-.03.03-.04s.06-.02.06-.02c0,0,.06.03.12.08.04.03.07.06.1.1"/>
      <path class="cls-39" d="m6.79,10.4v-.03s0-.01,0-.01c0,0,.04,0,.03.01,0,0,0,0-.01.01h0"/>
      <path class="cls-18" d="m6.79,10.4v-.03s0-.01,0-.01c0,0,.04,0,.03.01,0,0,0,0-.01.01h0Z"/>
      <path class="cls-39" d="m6.97,10.33v-.02s.03,0,.05.01c.02.02.04.05.04.05l-.04-.02h-.04v-.02h-.01"/>
      <path class="cls-16" d="m6.97,10.33v-.02s.03,0,.05.01c.02.02.04.05.04.05l-.04-.02h-.04v-.02h-.01,0Z"/>
      <path class="cls-18" d="m7.21,10.6l-.02-.03s0-.01-.01-.02"/>
      <path class="cls-33" d="m6.3,10.39s.02.02.04.02h.04s0-.02,0-.04c0-.05-.05-.06-.05-.06,0,0,.01.03,0,.05,0,.01-.02.03-.03.04"/>
      <path class="cls-5" d="m6.3,10.39s.02.02.04.02h.04s0-.02,0-.04c0-.05-.05-.06-.05-.06,0,0,.01.03,0,.05,0,.01-.02.03-.03.04h0Z"/>
      <path class="cls-33" d="m6.2,10.43s-.02-.03-.06-.03c-.04,0-.06.04-.06.04h.05s.02.05.02.05l.03-.03s.01-.02.02-.03"/>
      <path class="cls-5" d="m6.2,10.43s-.02-.03-.06-.03c-.04,0-.06.04-.06.04h.05s.02.05.02.05l.03-.03s.01-.02.02-.03h0Z"/>
      <path class="cls-33" d="m6.15,10.57s-.04,0-.05.03-.01.06-.01.06c0,0,.02-.02.04-.02h.05s0-.03,0-.03v-.04"/>
      <path class="cls-5" d="m6.15,10.57s-.04,0-.05.03-.01.06-.01.06c0,0,.02-.02.04-.02h.05s0-.03,0-.03v-.04s-.01,0-.01,0Z"/>
      <path class="cls-39" d="m6.79,10.56v-.02s.03.02.03.02h-.03"/>
      <path class="cls-18" d="m6.79,10.56v-.02s.03.02.03.02h-.03"/>
      <path class="cls-39" d="m6.83,10.56v-.02s.03.02.03.02h-.04"/>
      <path class="cls-18" d="m6.83,10.56v-.02s.03.02.03.02h-.04"/>
      <path class="cls-39" d="m6.81,10.42h.04s-.03.03-.03.03v-.03"/>
      <path class="cls-18" d="m6.81,10.42h.04s-.03.03-.03.03v-.03"/>
      <path class="cls-39" d="m6.85,10.43h.03s-.02.03-.02.03v-.03"/>
      <path class="cls-18" d="m6.85,10.43h.03s-.02.03-.02.03v-.03"/>
      <path class="cls-5" d="m6.61,10.71s-.03,0-.05.03c-.02.02-.01.05-.01.05,0,0,.03-.02.07-.01h.05s.06,0,.06,0c0,0-.03.04-.03.06v.05s-.02.07-.02.07h.05s.05-.03.08-.05l.04-.05s0,.05,0,.06v.07s.05-.03.05-.03c0,0,.03-.02.04-.03v-.05s.01.04.03.06l.03.07s.01-.04.03-.05c.01-.02.03-.04.03-.05,0-.01,0-.03,0-.04l.02.04m-.5.03s.02-.04.05-.05l.05-.04.04-.02m.05.23l.06-.04s.03-.03.05-.05"/>
      <path class="cls-33" d="m6.26,11.02s-.02-.02-.05-.01c-.03,0-.05.04-.05.04,0,0,.03,0,.05,0s.03.02.03.02l.02-.02v-.03"/>
      <path class="cls-5" d="m6.26,11.02s-.02-.02-.05-.01c-.03,0-.05.04-.05.04,0,0,.03,0,.05,0s.03.02.03.02l.02-.02v-.03s.01,0,.01,0Z"/>
      <path class="cls-33" d="m6.22,11.15s-.03,0-.05.01c-.02.02-.02.05-.02.05,0,0,.02-.02.04-.01h.04s0-.02,0-.02c0-.02,0-.04,0-.04"/>
      <path class="cls-5" d="m6.22,11.15s-.03,0-.05.01c-.02.02-.02.05-.02.05,0,0,.02-.02.04-.01h.04s0-.02,0-.02c0-.02,0-.04,0-.04h0Z"/>
      <path class="cls-33" d="m6.29,11.27s0,.04.01.06c.02.02.05.02.05.02v-.03s0-.04,0-.04c0,0-.01-.01-.03-.01h-.03"/>
      <path class="cls-5" d="m6.29,11.27s0,.04.01.06c.02.02.05.02.05.02v-.03s0-.04,0-.04c0,0-.01-.01-.03-.01h-.03Zm.73.06s.09.05.09.1c0,.05-.05.11-.05.11"/>
      <path class="cls-33" d="m6.61,11.58s-.02-.03-.05-.03-.06.03-.06.03c0,0,.04,0,.05,0l.02.03h.02s.02-.04.02-.04"/>
      <path class="cls-5" d="m6.61,11.58s-.02-.03-.05-.03-.06.03-.06.03c0,0,.04,0,.05,0l.02.03h.02s.02-.04.02-.04h0Z"/>
      <path class="cls-33" d="m6.52,11.7s-.05,0-.06.01c-.02.02-.02.06-.02.06,0,0,.03-.03.05-.02.02,0,.05.01.05.01v-.06"/>
      <path class="cls-5" d="m6.52,11.7s-.05,0-.06.01c-.02.02-.02.06-.02.06,0,0,.03-.03.05-.02.02,0,.05.01.05.01v-.06s0,0,0,0Z"/>
      <path class="cls-33" d="m6.6,11.83s-.01.03,0,.05c.01.02.05.04.05.04,0,0-.01-.02,0-.04,0-.01.03-.04.03-.04h-.06"/>
      <path class="cls-5" d="m6.6,11.83s-.01.03,0,.05c.01.02.05.04.05.04,0,0-.01-.02,0-.04,0-.01.03-.04.03-.04h-.06s0-.01,0-.01Z"/>
      <path class="cls-33" d="m7.15,11.88s-.04,0-.05,0c-.02.01-.04.06-.04.06,0,0,.03-.03.05-.02.02,0,.05.01.05.01v-.05"/>
      <path class="cls-5" d="m7.15,11.88s-.04,0-.05,0c-.02.01-.04.06-.04.06,0,0,.03-.03.05-.02.02,0,.05.01.05.01v-.05Z"/>
      <path class="cls-33" d="m7.17,12.02s-.03.03-.02.05l.03.05s0-.03,0-.05h.05s-.03-.04-.03-.04c-.01,0-.02,0-.03-.01"/>
      <path class="cls-5" d="m7.17,12.02s-.03.03-.02.05l.03.05s0-.03,0-.05h.05s-.03-.04-.03-.04c-.01,0-.02,0-.03-.01h0Z"/>
      <path class="cls-33" d="m7.31,12.05s-.01.04,0,.06c.03.02.05.02.05.02,0,0-.01-.03,0-.05,0-.02.02-.03.02-.03h-.04s-.03,0-.03,0"/>
      <path class="cls-5" d="m7.31,12.05s-.01.04,0,.06c.03.02.05.02.05.02,0,0-.01-.03,0-.05,0-.02.02-.03.02-.03h-.04s-.03,0-.03,0h0Z"/>
      <path class="cls-6" d="m5.9,14.5c.09.03.14.09.14.17,0,.11-.1.18-.23.18-.14,0-.24-.08-.24-.18,0-.08.05-.17.14-.17v-.02s-.04-.03-.04-.03h.05l.04.02.02-.03s.03-.02.03-.02l.03.03v.02s.05-.02.05-.02h.04s0,0,0,.02v.03"/>
      <path class="cls-21" d="m5.79,14.97s-.17-.12-.25-.14c-.09-.02-.21,0-.25,0,0,0,.05.04.08.06.02.02.11.07.15.08.14.04.27,0,.27,0m.05,0s.11-.11.23-.13c.14-.02.23.01.28.03l-.07.04s-.09.07-.18.07c-.09,0-.2-.01-.22,0h-.04"/>
      <path class="cls-15" d="m5.81,14.84c-.09-.08-.1-.22-.01-.31,0,0,0,0,.01-.01.04.04.07.1.07.16,0,.06-.02.12-.07.17"/>
      <path class="cls-21" d="m5.76,15.08s.03-.07.03-.12v-.1s.03,0,.03,0c0,0,.01.05.01.09v.11s-.04,0-.04,0h-.04"/>
      <path class="cls-28" d="m7.98,8.74s.02-.05.05-.05c.03,0,.05.02.05.05,0,.03-.02.05-.05.05-.03,0-.05-.02-.05-.05"/>
      <path class="cls-5" d="m7.98,8.74s.02-.05.05-.05c.03,0,.05.02.05.05,0,.03-.02.05-.05.05-.03,0-.05-.02-.05-.05h0Z"/>
      <path class="cls-28" d="m8.04,8.63s.02-.05.05-.05.05.02.05.05-.02.05-.05.05c-.03,0-.05-.02-.05-.05"/>
      <path class="cls-5" d="m8.04,8.63s.02-.05.05-.05.05.02.05.05-.02.05-.05.05c-.03,0-.05-.02-.05-.05h0Z"/>
      <path class="cls-28" d="m8.08,8.49s.02-.05.05-.05c.03,0,.05.02.05.05s-.02.05-.05.05c-.03,0-.05-.02-.05-.04,0,0,0,0,0,0"/>
      <path class="cls-5" d="m8.08,8.49s.02-.05.05-.05c.03,0,.05.02.05.05s-.02.05-.05.05c-.03,0-.05-.02-.05-.04,0,0,0,0,0,0Z"/>
      <path class="cls-28" d="m8.09,8.34s.02-.05.05-.05c.03,0,.05.02.05.05,0,.03-.02.05-.05.05-.03,0-.05-.02-.05-.05"/>
      <path class="cls-5" d="m8.09,8.34s.02-.05.05-.05c.03,0,.05.02.05.05,0,.03-.02.05-.05.05-.03,0-.05-.02-.05-.05h0Z"/>
      <path class="cls-28" d="m8.05,8.2s.02-.05.05-.05c.03,0,.06.02.06.05s-.02.05-.05.05c-.03,0-.05-.02-.05-.05"/>
      <path class="cls-5" d="m8.05,8.2s.02-.05.05-.05c.03,0,.06.02.06.05s-.02.05-.05.05c-.03,0-.05-.02-.05-.05h0Z"/>
      <path class="cls-28" d="m7.98,8.07s.02-.05.05-.05c.03,0,.05.02.05.05s-.02.05-.05.05c-.03,0-.05-.02-.05-.05"/>
      <path class="cls-5" d="m7.98,8.07s.02-.05.05-.05c.03,0,.05.02.05.05s-.02.05-.05.05c-.03,0-.05-.02-.05-.05h0Z"/>
      <path class="cls-28" d="m7.88,7.97s.02-.05.05-.05.05.02.05.05-.02.05-.05.05c-.03,0-.05-.02-.05-.05"/>
      <path class="cls-5" d="m7.88,7.97s.02-.05.05-.05.05.02.05.05-.02.05-.05.05c-.03,0-.05-.02-.05-.05Z"/>
      <path class="cls-28" d="m7.76,7.87s.02-.05.05-.05c.03,0,.05.02.05.05s-.02.05-.05.05c-.03,0-.05-.02-.05-.05"/>
      <path class="cls-5" d="m7.76,7.87s.02-.05.05-.05c.03,0,.05.02.05.05s-.02.05-.05.05c-.03,0-.05-.02-.05-.05h0Z"/>
      <path class="cls-28" d="m7.63,7.81s.02-.05.05-.05.05.02.05.05-.02.05-.05.05c-.03,0-.05-.02-.05-.05"/>
      <path class="cls-5" d="m7.63,7.81s.02-.05.05-.05.05.02.05.05-.02.05-.05.05c-.03,0-.05-.02-.05-.05Z"/>
      <path class="cls-28" d="m7.48,7.75s.02-.05.05-.05c.03,0,.05.02.05.05s-.02.05-.05.05-.05-.02-.05-.05"/>
      <path class="cls-5" d="m7.48,7.75s.02-.05.05-.05c.03,0,.05.02.05.05s-.02.05-.05.05-.05-.02-.05-.05h0Z"/>
      <path class="cls-28" d="m7.33,7.72s.02-.05.05-.05.05.02.05.05-.02.05-.05.05c-.03,0-.05-.02-.05-.05"/>
      <path class="cls-5" d="m7.33,7.72s.02-.05.05-.05.05.02.05.05-.02.05-.05.05c-.03,0-.05-.02-.05-.05Z"/>
      <path class="cls-28" d="m7.18,7.71s.02-.05.05-.05.05.02.05.05-.02.05-.05.05c-.03,0-.05-.02-.05-.05"/>
      <path class="cls-5" d="m7.18,7.71s.02-.05.05-.05.05.02.05.05-.02.05-.05.05c-.03,0-.05-.02-.05-.05Z"/>
      <path class="cls-28" d="m7.03,7.72s.02-.05.05-.05c.03,0,.05.02.05.05s-.02.05-.05.05c-.03,0-.05-.02-.05-.05"/>
      <path class="cls-5" d="m7.03,7.72s.02-.05.05-.05c.03,0,.05.02.05.05s-.02.05-.05.05c-.03,0-.05-.02-.05-.05h0Z"/>
      <path class="cls-28" d="m6.88,7.72s.02-.05.05-.05c.03,0,.05.02.05.05s-.02.05-.05.05c-.03,0-.05-.02-.05-.04,0,0,0,0,0,0"/>
      <path class="cls-5" d="m6.88,7.72s.02-.05.05-.05c.03,0,.05.02.05.05s-.02.05-.05.05c-.03,0-.05-.02-.05-.04,0,0,0,0,0,0Z"/>
      <path class="cls-3" d="m6.95,7.85s.02-.05.05-.05c.03,0,.05.02.05.05s-.02.05-.05.05c-.03,0-.05-.02-.05-.05m.03.14s.02-.05.05-.05.05.02.05.05c0,.02-.02.05-.05.05-.03,0-.05-.02-.05-.05m0,.14s.03-.05.05-.05c.03,0,.05.02.05.05s-.02.05-.05.05-.05-.02-.05-.05m-.05.13s.02-.05.05-.05c.03,0,.05.02.05.05,0,.03-.02.05-.05.05-.03,0-.05-.02-.05-.05m-.09.12s.02-.05.05-.05c.03,0,.05.02.05.05s-.02.05-.05.05-.05-.02-.05-.05"/>
      <path class="cls-28" d="m6.77,7.63s.02-.05.05-.05c.03,0,.05.02.05.05s-.02.05-.05.05-.05-.02-.05-.05"/>
      <path class="cls-5" d="m6.77,7.63s.02-.05.05-.05c.03,0,.05.02.05.05s-.02.05-.05.05-.05-.02-.05-.05h0Z"/>
      <path class="cls-28" d="m6.64,7.56s.02-.05.05-.05.05.02.05.05-.02.05-.05.05c-.03,0-.05-.02-.05-.05"/>
      <path class="cls-5" d="m6.64,7.56s.02-.05.05-.05.05.02.05.05-.02.05-.05.05c-.03,0-.05-.02-.05-.05Z"/>
      <path class="cls-28" d="m6.49,7.52s.02-.05.05-.05c.03,0,.05.02.05.05,0,.02-.02.05-.05.05-.03,0-.05-.02-.05-.05"/>
      <path class="cls-5" d="m6.49,7.52s.02-.05.05-.05c.03,0,.05.02.05.05,0,.02-.02.05-.05.05-.03,0-.05-.02-.05-.05Z"/>
      <path class="cls-28" d="m6.34,7.49s.02-.05.05-.05c.03,0,.05.02.05.05s-.02.05-.05.05c-.03,0-.05-.02-.05-.04,0,0,0,0,0,0"/>
      <path class="cls-5" d="m6.34,7.49s.02-.05.05-.05c.03,0,.05.02.05.05s-.02.05-.05.05c-.03,0-.05-.02-.05-.04,0,0,0,0,0,0Z"/>
      <path class="cls-28" d="m6.19,7.49s.02-.05.05-.05.05.02.05.05c0,.02-.02.05-.05.05-.03,0-.05-.02-.05-.05"/>
      <path class="cls-5" d="m6.19,7.49s.02-.05.05-.05.05.02.05.05c0,.02-.02.05-.05.05-.03,0-.05-.02-.05-.05h0Z"/>
      <path class="cls-28" d="m6.04,7.52s.02-.05.05-.05c.03,0,.05.02.05.05s-.02.05-.05.05c-.03,0-.05-.02-.05-.05"/>
      <path class="cls-5" d="m6.04,7.52s.02-.05.05-.05c.03,0,.05.02.05.05s-.02.05-.05.05c-.03,0-.05-.02-.05-.05h0Z"/>
      <path class="cls-28" d="m5.89,7.57s.02-.05.05-.05c.03,0,.05.02.05.05s-.02.05-.05.05c-.03,0-.05-.02-.05-.04,0,0,0,0,0,0"/>
      <path class="cls-5" d="m5.89,7.57s.02-.05.05-.05c.03,0,.05.02.05.05s-.02.05-.05.05c-.03,0-.05-.02-.05-.04,0,0,0,0,0,0Z"/>
      <path class="cls-28" d="m3.48,8.74s.02-.05.05-.05.05.02.05.05c0,.03-.02.05-.05.05-.03,0-.05-.02-.05-.05"/>
      <path class="cls-5" d="m3.48,8.74s.02-.05.05-.05.05.02.05.05c0,.03-.02.05-.05.05-.03,0-.05-.02-.05-.05Z"/>
      <path class="cls-28" d="m3.41,8.63s.02-.05.05-.05c.03,0,.05.02.05.05s-.02.05-.05.05c-.03,0-.05-.02-.05-.05"/>
      <path class="cls-5" d="m3.41,8.63s.02-.05.05-.05c.03,0,.05.02.05.05s-.02.05-.05.05c-.03,0-.05-.02-.05-.05Z"/>
      <path class="cls-28" d="m3.37,8.49s.02-.05.05-.05c.03,0,.05.02.05.05s-.02.05-.05.05c-.03,0-.05-.02-.05-.05"/>
      <path class="cls-5" d="m3.37,8.49s.02-.05.05-.05c.03,0,.05.02.05.05s-.02.05-.05.05c-.03,0-.05-.02-.05-.05h0Z"/>
      <path class="cls-28" d="m3.36,8.34s.02-.05.05-.05c.03,0,.05.02.05.05,0,.03-.02.05-.05.05-.03,0-.05-.02-.05-.05"/>
      <path class="cls-5" d="m3.36,8.34s.02-.05.05-.05c.03,0,.05.02.05.05,0,.03-.02.05-.05.05-.03,0-.05-.02-.05-.05h0Z"/>
      <path class="cls-28" d="m3.4,8.2s.02-.05.05-.05c.03,0,.05.02.05.05s-.02.05-.05.05c-.03,0-.05-.02-.05-.05"/>
      <path class="cls-5" d="m3.4,8.2s.02-.05.05-.05c.03,0,.05.02.05.05s-.02.05-.05.05c-.03,0-.05-.02-.05-.05Z"/>
      <path class="cls-28" d="m3.47,8.07s.02-.05.05-.05c.03,0,.05.02.05.05s-.02.05-.05.05c-.03,0-.05-.02-.05-.05"/>
      <path class="cls-5" d="m3.47,8.07s.02-.05.05-.05c.03,0,.05.02.05.05s-.02.05-.05.05c-.03,0-.05-.02-.05-.05h0Z"/>
      <path class="cls-28" d="m3.58,7.97s.02-.05.05-.05.05.02.05.05-.02.05-.05.05c-.03,0-.05-.02-.05-.05"/>
      <path class="cls-5" d="m3.58,7.97s.02-.05.05-.05.05.02.05.05-.02.05-.05.05c-.03,0-.05-.02-.05-.05Z"/>
      <path class="cls-28" d="m3.69,7.87s.02-.05.05-.05.05.02.05.05-.02.05-.05.05c-.03,0-.05-.02-.05-.05"/>
      <path class="cls-5" d="m3.69,7.87s.02-.05.05-.05.05.02.05.05-.02.05-.05.05c-.03,0-.05-.02-.05-.05Z"/>
      <path class="cls-28" d="m3.83,7.81s.02-.05.05-.05.05.02.05.05-.02.05-.05.05c-.03,0-.05-.02-.05-.05"/>
      <path class="cls-5" d="m3.83,7.81s.02-.05.05-.05.05.02.05.05-.02.05-.05.05c-.03,0-.05-.02-.05-.05Z"/>
      <path class="cls-28" d="m3.97,7.75s.02-.05.05-.05c.03,0,.05.02.05.05s-.02.05-.05.05-.05-.02-.05-.05"/>
      <path class="cls-5" d="m3.97,7.75s.02-.05.05-.05c.03,0,.05.02.05.05s-.02.05-.05.05-.05-.02-.05-.05Z"/>
      <path class="cls-28" d="m4.13,7.72s.02-.05.05-.05c.03,0,.05.02.05.05s-.02.05-.05.05c-.03,0-.05-.02-.05-.05"/>
      <path class="cls-5" d="m4.13,7.72s.02-.05.05-.05c.03,0,.05.02.05.05s-.02.05-.05.05c-.03,0-.05-.02-.05-.05h0Z"/>
      <path class="cls-28" d="m4.28,7.71s.02-.05.05-.05.05.02.05.05-.02.05-.05.05c-.03,0-.05-.02-.05-.05"/>
      <path class="cls-5" d="m4.28,7.71s.02-.05.05-.05.05.02.05.05-.02.05-.05.05c-.03,0-.05-.02-.05-.05Z"/>
      <path class="cls-28" d="m4.43,7.72s.02-.05.05-.05c.03,0,.05.02.05.05s-.02.05-.05.05c-.03,0-.05-.02-.05-.04,0,0,0,0,0,0"/>
      <path class="cls-5" d="m4.43,7.72s.02-.05.05-.05c.03,0,.05.02.05.05s-.02.05-.05.05c-.03,0-.05-.02-.05-.04,0,0,0,0,0,0Z"/>
      <path class="cls-28" d="m4.57,7.72s.02-.05.05-.05c.03,0,.05.02.05.05s-.02.05-.05.05c-.03,0-.05-.02-.05-.05"/>
      <path class="cls-5" d="m4.57,7.72s.02-.05.05-.05c.03,0,.05.02.05.05s-.02.05-.05.05c-.03,0-.05-.02-.05-.05h0Z"/>
      <path class="cls-3" d="m4.5,7.85s.02-.05.05-.05c.03,0,.05.02.05.05s-.02.05-.05.05c-.03,0-.05-.02-.05-.05m-.03.14s.02-.05.05-.05.05.02.05.05c0,.02-.02.05-.05.05-.03,0-.05-.02-.05-.05m0,.14s.02-.05.05-.05c.03,0,.05.02.05.05s-.02.05-.05.05c-.03,0-.05-.02-.05-.05m.04.13s.02-.05.05-.05c.03,0,.05.02.05.05,0,.03-.02.05-.05.05-.03,0-.05-.02-.05-.04,0,0,0,0,0,0m.08.12s.02-.05.05-.05c.03,0,.05.02.05.05s-.02.05-.05.05-.05-.02-.05-.05"/>
      <path class="cls-28" d="m4.69,7.63s.02-.05.05-.05c.03,0,.05.02.05.05s-.02.05-.05.05-.05-.02-.05-.05"/>
      <path class="cls-5" d="m4.69,7.63s.02-.05.05-.05c.03,0,.05.02.05.05s-.02.05-.05.05-.05-.02-.05-.05Z"/>
      <path class="cls-28" d="m4.82,7.56s.02-.05.05-.05.05.02.05.05-.02.05-.05.05c-.03,0-.05-.02-.05-.05"/>
      <path class="cls-5" d="m4.82,7.56s.02-.05.05-.05.05.02.05.05-.02.05-.05.05c-.03,0-.05-.02-.05-.05Z"/>
      <path class="cls-28" d="m4.96,7.52s.02-.05.05-.05c.03,0,.05.02.05.05,0,.02-.02.05-.05.05s-.05-.02-.05-.05"/>
      <path class="cls-5" d="m4.96,7.52s.02-.05.05-.05c.03,0,.05.02.05.05,0,.02-.02.05-.05.05s-.05-.02-.05-.05h0Z"/>
      <path class="cls-28" d="m5.12,7.49s.02-.05.05-.05c.03,0,.05.02.05.05s-.02.05-.05.05c-.03,0-.05-.02-.05-.05"/>
      <path class="cls-5" d="m5.12,7.49s.02-.05.05-.05c.03,0,.05.02.05.05s-.02.05-.05.05c-.03,0-.05-.02-.05-.05h0Z"/>
      <path class="cls-28" d="m5.27,7.49s.02-.05.05-.05.05.02.05.05c0,.02-.02.05-.05.05-.03,0-.05-.02-.05-.05"/>
      <path class="cls-5" d="m5.27,7.49s.02-.05.05-.05.05.02.05.05c0,.02-.02.05-.05.05-.03,0-.05-.02-.05-.05Z"/>
      <path class="cls-28" d="m5.42,7.52s.02-.05.05-.05c.03,0,.05.02.05.05s-.02.05-.05.05c-.03,0-.05-.02-.05-.05"/>
      <path class="cls-5" d="m5.42,7.52s.02-.05.05-.05c.03,0,.05.02.05.05s-.02.05-.05.05c-.03,0-.05-.02-.05-.05h0Z"/>
      <path class="cls-28" d="m5.56,7.57s.02-.05.05-.05c.03,0,.05.02.05.05s-.02.05-.05.05c-.03,0-.05-.02-.05-.05"/>
      <path class="cls-5" d="m5.56,7.57s.02-.05.05-.05c.03,0,.05.02.05.05s-.02.05-.05.05c-.03,0-.05-.02-.05-.05h0Z"/>
      <path class="cls-12" d="m4.34,10.49h-.05v-.05h-.07v.17h.07v.11h-.16v.32h.08v.66h-.16v.33h1.25v-.33h-.16v-.66h.08v-.32h-.16v-.11h.07v-.16h-.07v.04h-.04v-.05h-.07v.05h-.05v-.05h-.07v.17h.07v.11h-.15v-.36h.08v-.16h-.08v.04h-.05v-.05h-.07v.05h-.04v-.05h-.07v.17h.08v.36h-.15v-.11h.07v-.16h-.07v.04h-.04v-.05h-.08v.05Zm-.28,1.54h1.25m-1.25-.08h1.25m-1.25-.08h1.25m-1.25-.08h1.25m-1.25-.09h1.25m-1.09-.07h.93m-.93-.08h.93m-.93-.09h.93m-.93-.08h.93m-.93-.08h.93m-.93-.08h.93m-.93-.08h.93m-1.01-.08h1.09m-1.09-.08h1.09m-1.09-.08h1.09m-1.09-.08h1.09m-.93-.08h.78m-.47-.08h.16m-.16-.08h.16m-.16-.08h.16m-.16-.08h.16m-.23-.1h.31m-.55.34h.17m-.23-.1h.3m-.31,1.49v-.08m0-.08v-.08m-.08.08v.08m.16,0v-.08m.08.17v-.08m0-.08v-.08m0-.09v-.07m0-.08v-.09m-.08.34v-.09m-.16.09v-.09m.32,0v.09m.07-.09v-.07m-.23-.08v.08m.16-.08v.08m.15-.08v.08m-.07-.08v-.09m.08-.08v.08m0-.24v.08m-.08-.17v.08m.08-.16v.08m-.15-.08v.08m-.16-.08v.08m-.07-.16v.08m.15-.08v.08m.16-.08v.08m.08-.17v.08m-.15-.08v.08m-.16-.08v.08m-.07-.17v.08m.31-.08v.08m-.16-.24v.08m.7-.08h-.16m.23-.1h-.3m.31,1.49v-.08m0-.08v-.08m.08.08v.08m-.16,0v-.09m-.08.17v-.08m0-.08v-.08m0-.09v-.07m0-.08v-.09m.08.34v-.09m.16.09v-.09m-.32,0v.09m-.07-.09v-.07m.23-.08v.08m-.16-.08v.08m-.15-.08v.08m.08-.08v-.09m-.08-.08v.08m0-.24v.08m.08-.17v.08m-.08-.16v.08m.15-.08v.08m.16-.08v.08m.07-.16v.08m-.15-.08v.08m-.16-.08v.08m-.08-.17v.08m.15-.08v.08m.16-.08v.08m.07-.17v.08m-.31-.08v.08m.16-.24v.08m-.32.82v-.09m0-.25v-.08m0,.25v-.08m0-.24v-.08m0-.08v-.08m0-.17v-.08m0-.08v-.08m-.38.21h.16m.15-.24h.16m.15.24h.16"/>
      <path class="cls-12" d="m4.9,12.04v-.22s-.02-.16-.21-.16-.2.12-.2.16v.22h.41Z"/>
      <path class="cls-12" d="m4.55,11.83h-.1c0-.05,0-.11.04-.13l.09.07s-.03.05-.03.06Zm.27,0h.1c0-.05,0-.11-.04-.13l-.09.07s.03.05.03.06Zm-.1-.11l.05-.09s-.06-.02-.09-.02l-.08.02.05.09h.07,0Zm-.19-.25v-.22c0-.06-.05-.11-.11-.11s-.11.05-.11.11v.22h.22Zm.31,0v-.22c0-.06.05-.11.11-.11s.11.05.11.11v.22h-.22Zm-.08-.55l.02-.2h-.19v.2h.17Zm.15,0l-.02-.2h.2l-.02.2h-.16Zm-.46,0v-.2s-.18,0-.18,0l.02.2h.16Z"/>
      <path class="cls-37" d="m4.83,12.04v-.18s-.02-.12-.14-.12c-.11,0-.13.09-.13.12v.18h.27Zm-.32-.58v-.19s-.03-.1-.09-.1-.09.05-.09.1v.2h.18Zm.36,0v-.19s.03-.1.09-.1.09.05.09.1v.2h-.18Z"/>
      <path class="cls-32" d="m5.08,12.37c0-.44.32-.81.72-.81s.72.36.72.81-.32.8-.72.8-.72-.36-.72-.8"/>
      <path class="cls-9" d="m5.08,12.37c0-.44.32-.81.72-.81s.72.36.72.81-.32.8-.72.8-.72-.36-.72-.8Z"/>
      <path class="cls-29" d="m5.29,12.36c0-.32.23-.59.5-.59s.5.26.5.59-.23.6-.5.6-.5-.27-.5-.6"/>
      <path class="cls-9" d="m5.29,12.36c0-.32.23-.59.5-.59s.5.26.5.59-.23.6-.5.6-.5-.27-.5-.6Z"/>
      <path class="cls-27" d="m5.55,11.96s-.06.06-.06.12c0,.04.01.08.03.11,0-.02-.04-.04-.06-.04-.04,0-.06.03-.06.06v.04s.03.04.03.04c0-.01.02-.02.05-.02s.05.02.05.05c0,0,0,0,0,0h-.05v.05h.05l-.04.07.05-.02.04.04.04-.04.05.02-.03-.07h.05v-.05h-.05s0,0,0-.01c0-.03.02-.05.05-.05.02,0,.03.01.05.03l.02-.05v-.03s-.02-.06-.05-.06c-.03,0-.05.01-.06.04,0,0,.03-.06.03-.11s-.06-.12-.06-.12"/>
      <path class="cls-8" d="m5.55,11.96s-.06.06-.06.12c0,.04.01.08.03.11,0-.02-.04-.04-.06-.04-.04,0-.06.03-.06.06v.04s.03.04.03.04c0-.01.02-.02.05-.02s.05.02.05.05c0,0,0,0,0,0h-.05v.05h.05l-.04.07.05-.02.04.04.04-.04.05.02-.03-.07h.05v-.05h-.05s0,0,0-.01c0-.03.02-.05.05-.05.02,0,.03.01.05.03l.02-.05v-.03s-.02-.06-.05-.06c-.03,0-.05.01-.06.04,0,0,.03-.06.03-.11s-.06-.12-.06-.12h0Z"/>
      <path class="cls-27" d="m5.46,12.37h.19v-.05h-.19v.05Z"/>
      <path class="cls-18" d="m5.46,12.37h.19v-.05h-.19v.05Z"/>
      <path class="cls-27" d="m6.02,11.96s-.06.06-.06.12.03.11.03.11c0-.02-.03-.04-.06-.04-.04,0-.06.03-.06.06v.04s.03.04.03.04c0-.01.02-.02.05-.02.03,0,.05.02.05.05,0,0,0,0,0,0h-.05v.05h.05l-.04.07.05-.02.04.04.04-.04.05.02-.03-.07h.05v-.05h-.05s0,0,0-.01c0-.03.02-.05.05-.05.02,0,.04.01.05.03l.02-.05v-.03s-.02-.06-.05-.06c-.03,0-.05.01-.06.04,0,0,.03-.06.03-.11s-.06-.12-.06-.12"/>
      <path class="cls-8" d="m6.02,11.96s-.06.06-.06.12.03.11.03.11c0-.02-.03-.04-.06-.04-.04,0-.06.03-.06.06v.04s.03.04.03.04c0-.01.02-.02.05-.02.03,0,.05.02.05.05,0,0,0,0,0,0h-.05v.05h.05l-.04.07.05-.02.04.04.04-.04.05.02-.03-.07h.05v-.05h-.05s0,0,0-.01c0-.03.02-.05.05-.05.02,0,.04.01.05.03l.02-.05v-.03s-.02-.06-.05-.06c-.03,0-.05.01-.06.04,0,0,.03-.06.03-.11s-.06-.12-.06-.12h0Z"/>
      <path class="cls-27" d="m5.93,12.37h.19v-.05h-.19v.05Z"/>
      <path class="cls-18" d="m5.93,12.37h.19v-.05h-.19v.05Z"/>
      <path class="cls-27" d="m5.79,12.36s-.06.07-.06.13.03.11.03.11c0-.02-.03-.04-.06-.04-.04,0-.06.03-.06.06v.03s.03.05.03.05c0-.02.02-.03.05-.03.03,0,.05.02.05.05,0,0,0,0,0,.01h-.05v.05h.05l-.04.07.05-.02.04.04.04-.05.05.02-.03-.07h.05v-.05h-.05s0,0,0-.01c0-.03.02-.05.05-.05.02,0,.03,0,.04.03l.02-.05v-.03s-.02-.06-.05-.06c-.03,0-.05.02-.06.05,0,0,.03-.06.03-.11s-.06-.12-.06-.12"/>
      <path class="cls-8" d="m5.79,12.36s-.06.07-.06.13.03.11.03.11c0-.02-.03-.04-.06-.04-.04,0-.06.03-.06.06v.03s.03.05.03.05c0-.02.02-.03.05-.03.03,0,.05.02.05.05,0,0,0,0,0,.01h-.05v.05h.05l-.04.07.05-.02.04.04.04-.05.05.02-.03-.07h.05v-.05h-.05s0,0,0-.01c0-.03.02-.05.05-.05.02,0,.03,0,.04.03l.02-.05v-.03s-.02-.06-.05-.06c-.03,0-.05.02-.06.05,0,0,.03-.06.03-.11s-.06-.12-.06-.12h0Z"/>
      <path class="cls-27" d="m5.7,12.77h.19v-.05h-.19v.05Z"/>
      <path class="cls-18" d="m5.7,12.77h.19v-.05h-.19v.05Z"/>
      <path class="cls-27" d="m7.22,10.24h-.01s0,.01-.01.02c0,0-.03,0-.04,0,0,0,0-.01,0-.02,0,0-.02,0-.02,0-.01,0-.01-.02,0-.03v-.02h-.02s-.02.02-.03.02c0,0,0,0,0,0h-.01s-.03-.05-.03-.05h0s0,.04,0,.06c0,.03-.01.05-.01.05.05.02.09.04.13.07.04.03.07.06.1.11l.05-.02s.06,0,.06,0h0s-.07,0-.07-.03h0s0,0,0,0c0,0,0-.02,0-.03h0v-.02h-.02s-.03.02-.04,0c0,0,0-.01,0-.02,0,0-.02,0-.02,0,0,0-.01-.02,0-.04h0v-.03"/>
      <path class="cls-18" d="m7.22,10.24h-.01s0,.01-.01.02c0,0-.03,0-.04,0,0,0,0-.01,0-.02,0,0-.02,0-.02,0-.01,0-.01-.02,0-.03v-.02h-.02s-.02.02-.03.02c0,0,0,0,0,0h-.01s-.03-.05-.03-.05h0s0,.04,0,.06c0,.03-.01.05-.01.05.05.02.09.04.13.07.04.03.07.06.1.11l.05-.02s.06,0,.06,0h0s-.07,0-.07-.03h0s0,0,0,0c0,0,0-.02,0-.03h0v-.02h-.02s-.03.02-.04,0c0,0,0-.01,0-.02,0,0-.02,0-.02,0,0,0-.01-.02,0-.04h0v-.03h0Z"/>
      <path class="cls-39" d="m7.12,10.27h0s0,.01,0,.01c0,0,0,0,0,0"/>
      <path class="cls-16" d="m7.12,10.27h0s0,.01,0,.01c0,0,0,0,0,0h0Z"/>
      <path class="cls-39" d="m7.16,10.3h-.01v-.02h.02s.01.02.01.02h0s0,0,0,0h-.01"/>
      <path class="cls-16" d="m7.16,10.3h-.01v-.02h.02s.01.02.01.02h0s0,0,0,0h-.01"/>
      <path class="cls-39" d="m7.09,10.25h0s0,0,0-.01h.01s.01,0,.01,0h0s0,0,0,0h-.01"/>
      <path class="cls-16" d="m7.09,10.25h0s0,0,0-.01h.01s.01,0,.01,0h0s0,0,0,0h-.01"/>
      <path class="cls-39" d="m7.04,10.22h0s0,0,0,0c0,0,0,0,0,0"/>
      <path class="cls-16" d="m7.04,10.22h0s0,0,0,0c0,0,0,0,0,0Z"/>
      <path class="cls-39" d="m7.21,10.34h0s-.01,0-.01,0h0s0,0,0,0"/>
      <path class="cls-16" d="m7.21,10.34h0s-.01,0-.01,0h0s0,0,0,0Z"/>
      <path class="cls-39" d="m7.24,10.37h0s0,0,0,0c0,0,0,0,0,0h0s0-.02,0-.02h0s0,.02,0,.02"/>
      <path class="cls-16" d="m7.24,10.37h0s0,0,0,0c0,0,0,0,0,0h0s0-.02,0-.02h0s0,.02,0,.02"/>
      <path class="cls-39" d="m7.28,10.4h0s-.01-.01-.01-.01h0s.01,0,.01,0"/>
      <path class="cls-16" d="m7.28,10.4h0s-.01-.01-.01-.01h0s.01,0,.01,0h0Z"/>
      <path class="cls-27" d="m7.16,10.13h-.03v.04s0,0,0,0h0l.03-.02v-.02"/>
      <path class="cls-18" d="m7.16,10.13h-.03v.04s0,0,0,0h0l.03-.02v-.02"/>
      <path class="cls-27" d="m7.09,10.16v.02h.04s0,0,0,0h0s-.02-.04-.02-.04h-.02"/>
      <path class="cls-18" d="m7.09,10.16v.02h.04s0,0,0,0h0s-.02-.04-.02-.04h-.02"/>
      <path class="cls-27" d="m7.17,10.2h-.02s-.03-.02-.03-.02h0s.05,0,.05,0v.02"/>
      <path class="cls-18" d="m7.17,10.2h-.02s-.03-.02-.03-.02h0s.05,0,.05,0v.02"/>
      <path class="cls-27" d="m7.12,10.18s.01,0,.02,0c0,0,0,0,0,.01,0,0,0,0-.01,0,0,0,0,0,0-.01"/>
      <path class="cls-18" d="m7.12,10.18s.01,0,.02,0c0,0,0,0,0,.01,0,0,0,0-.01,0,0,0,0,0,0-.01h0Z"/>
      <path class="cls-27" d="m7.02,10.13v-.03s-.03-.02-.03-.02c0,0,.02,0,.04,0,.02.01,0,.04,0,.04h0"/>
      <path class="cls-18" d="m7.02,10.13v-.03s-.03-.02-.03-.02c0,0,.02,0,.04,0,.02.01,0,.04,0,.04h0s0,0,0,0Z"/>
      <path class="cls-27" d="m7.07,10.15l-.02.02-.03-.03h0s.05,0,.05,0v.02"/>
      <path class="cls-18" d="m7.07,10.15l-.02.02-.03-.03h0s.05,0,.05,0v.02"/>
      <path class="cls-27" d="m7.02,10.13h.01s0,0,0,0c0,0,0,0,0,0h0"/>
      <path class="cls-18" d="m7.02,10.13h.01s0,0,0,0c0,0,0,0,0,0h0v-.02Z"/>
      <path class="cls-27" d="m7.26,10.2h-.02v.03s-.01,0-.01,0h0l.04-.02v-.02"/>
      <path class="cls-18" d="m7.26,10.2h-.02v.03s-.01,0-.01,0h0l.04-.02v-.02"/>
      <path class="cls-27" d="m7.18,10.21v.02h.04s0,0,0,0h0s-.02-.04-.02-.04h-.02"/>
      <path class="cls-18" d="m7.18,10.21v.02h.04s0,0,0,0h0s-.02-.04-.02-.04h-.02"/>
      <path class="cls-27" d="m7.26,10.27h-.02s-.02-.02-.02-.02h0s0,0,0,0h.04s0,.03,0,.03"/>
      <path class="cls-18" d="m7.26,10.27h-.02s-.02-.02-.02-.02h0s0,0,0,0h.04s0,.03,0,.03"/>
      <path class="cls-27" d="m7.21,10.23h.02s0,.01,0,.02c0,0,0,0-.01,0,0,0,0-.01,0-.02"/>
      <path class="cls-18" d="m7.21,10.23h.02s0,.01,0,.02c0,0,0,0-.01,0,0,0,0-.01,0-.02h0Z"/>
      <path class="cls-27" d="m7.34,10.28v.02s-.03.01-.03.01h0s.02-.05.02-.05h.02"/>
      <path class="cls-18" d="m7.34,10.28v.02s-.03.01-.03.01h0s.02-.05.02-.05h.02"/>
      <path class="cls-27" d="m7.33,10.35h-.02s-.01-.03-.01-.03h0s0,0,0,0h.04s0,.04,0,.04"/>
      <path class="cls-18" d="m7.33,10.35h-.02s-.01-.03-.01-.03h0s0,0,0,0h.04s0,.04,0,.04"/>
      <path class="cls-27" d="m7.27,10.28v.02s.03.01.03.01h0s-.01-.04-.01-.04h-.02"/>
      <path class="cls-18" d="m7.27,10.28v.02s.03.01.03.01h0s-.01-.04-.01-.04h-.02"/>
      <path class="cls-27" d="m7.31,10.32s0,0,0-.01c0,0-.01,0-.02,0,0,0,0,0,0,.01,0,0,.01,0,.02,0"/>
      <path class="cls-18" d="m7.31,10.32s0,0,0-.01c0,0-.01,0-.02,0,0,0,0,0,0,.01,0,0,.01,0,.02,0Z"/>
      <path class="cls-27" d="m7.37,10.4h.06s0,0-.01-.02c-.01-.01-.04,0-.04,0h0"/>
      <path class="cls-18" d="m7.37,10.4h.06s0,0-.01-.02c-.01-.01-.04,0-.04,0h0Z"/>
      <path class="cls-27" d="m7.35,10.36v.02s.02.02.02.02h0s0,0,0,0v-.05s-.03,0-.03,0"/>
      <path class="cls-18" d="m7.35,10.36v.02s.02.02.02.02h0s0,0,0,0v-.05s-.03,0-.03,0"/>
      <path class="cls-27" d="m7.38,10.4s0,0,0,0h-.01s0,0,0,0h.01"/>
      <path class="cls-18" d="m7.38,10.4s0,0,0,0h-.01s0,0,0,0h.02Zm1.74-1v.03h-.11v-.03h.05v-.06h-.03v-.02h.03v-.03h.03v.03h.03v.03h-.03v.05h.05"/>
      <path class="cls-30" d="m2.49,9.95v-.05m-.02.05v-.05m0,.05v-.05m-.01.05v-.05"/>
      <path class="cls-16" d="m2.44,9.95v-.05m-.02.05v-.05m0,.05v-.05m-.03.05v-.05m0,.05v-.05m-.04.05v-.05m0,.05v-.05m.01.05v-.05m-.03.05v-.05m-.01.04v-.04m0,.04v-.04m-.02.03v-.03m0,.03v-.03m-.02.02v-.02m0,.02v-.02m-.01.01h0m-.01,0h0"/>
      <path class="cls-23" d="m2.25,9.93h0"/>
      <path class="cls-30" d="m2.55,9.95v-.05m-.02.05v-.05m-.02.05v-.05m6.55.05v-.05m-.02.05v-.05m-.01.05v-.05m-.01.05v-.05"/>
      <path class="cls-16" d="m9.01,9.95v-.05m-.03.05v-.05m.01.05v-.05m-.04.05v-.05m.01.05v-.05m-.04.05v-.05m0,.05v-.05m0,.05v-.05m-.03.05v-.05m-.01.04v-.04m0,.04v-.04m-.02.03v-.03m0,.03v-.03m-.02.03v-.03m0,.02v-.02m-.01.02v-.02m0,.01h0"/>
      <path class="cls-23" d="m8.83,9.93h0"/>
      <path class="cls-30" d="m9.13,9.95v-.05m-.03.05v-.05m-.02.05v-.05"/>
    </g>
  </g>
</svg>