<svg xmlns="http://www.w3.org/2000/svg" width="18" height="18" viewBox="0 0 18 18">
  <g id="Sort-Filter-Icon" transform="translate(7205 -988)">
    <rect id="Rectangle_53" data-name="Rectangle 53" width="18" height="18" transform="translate(-7205 988)" fill="none"/>
    <g id="Group_29465" data-name="Group 29465" transform="translate(-7204 991.791)">
      <path id="Union_3" data-name="Union 3" d="M-7642,1143.208a2,2,0,0,1,1.936,1.5H-7634v1h-6.064a2,2,0,0,1-1.936,1.5,2,2,0,0,1-1.937-1.5H-7646v-1h2.063A2,2,0,0,1-7642,1143.208Zm0,3a1,1,0,0,0,1-1,1,1,0,0,0-1-1,1,1,0,0,0-1,1A1,1,0,0,0-7642,1146.209Z" transform="translate(7648 -1143)" fill="#3e3e3e"/>
      <path id="Union_4" data-name="Union 4" d="M-7638,1143.208a2,2,0,0,1,1.937,1.5H-7634v1h-2.063a2,2,0,0,1-1.937,1.5,2,2,0,0,1-1.937-1.5H-7646v-1h6.063A2,2,0,0,1-7638,1143.208Zm0,3a1,1,0,0,0,1-1,1,1,0,0,0-1-1,1,1,0,0,0-1,1A1,1,0,0,0-7638,1146.209Z" transform="translate(7648 -1137)" fill="#3e3e3e"/>
    </g>
  </g>
</svg>
