<svg xmlns="http://www.w3.org/2000/svg" width="46" height="46" viewBox="0 0 46 46">
  <g id="Help" transform="translate(-697 -549)">
    <circle id="Ellipse_327" data-name="Ellipse 327" cx="23" cy="23" r="23" transform="translate(697 549)" fill="#fff"/>
    <g id="Icon_ionic-ios-help-circle-outline" data-name="Icon ionic-ios-help-circle-outline" transform="translate(701.625 554.625)" opacity="0.87">
      <path id="Path_5198" data-name="Path 5198" d="M18,5.327A12.628,12.628,0,0,1,26.951,9a12.479,12.479,0,0,1,0,17.749,12.741,12.741,0,0,1-17.9,0A12.479,12.479,0,0,1,9.049,9,12.628,12.628,0,0,1,18,5.327m0-1.952a14.5,14.5,0,1,0,14.625,14.5A14.561,14.561,0,0,0,18,3.375Z"/>
      <path id="Path_5199" data-name="Path 5199" d="M18.049,11.25c2.637,0,4.451,1.462,4.451,3.565a3.439,3.439,0,0,1-1.976,3.122c-1.223.71-1.638,1.23-1.638,2.13v.555h-2.44l-.021-.6a2.927,2.927,0,0,1,1.659-3.094c1.188-.71,1.688-1.16,1.688-2.032A1.707,1.707,0,0,0,17.88,13.38,1.779,1.779,0,0,0,16,15.11H13.5C13.549,12.846,15.223,11.25,18.049,11.25ZM16.2,23.3a1.509,1.509,0,1,1,1.5,1.448A1.473,1.473,0,0,1,16.2,23.3Z" transform="translate(0 -0.125)"/>
    </g>
  </g>
</svg>
