<svg xmlns="http://www.w3.org/2000/svg" width="17.027" height="17.027" viewBox="0 0 17.027 17.027">
  <g id="noun-target-2762925" transform="translate(0.15 0.15)">
    <path id="Path_5278" data-name="Path 5278" d="M78.761,1.743a6.651,6.651,0,0,1,6.22,6.22H86.3a.415.415,0,0,1,.424.377.422.422,0,0,1-.424.424H84.981a6.689,6.689,0,0,1-6.22,6.22V16.3a.422.422,0,0,1-.424.424.415.415,0,0,1-.377-.424V14.984a6.651,6.651,0,0,1-6.22-6.22H70.374A.415.415,0,0,1,70,8.34a.405.405,0,0,1,.377-.377H71.74a6.614,6.614,0,0,1,6.22-6.22V.377A.405.405,0,0,1,78.337,0a.415.415,0,0,1,.424.377Zm-.424.8a5.819,5.819,0,1,0,5.843,5.8,5.791,5.791,0,0,0-5.843-5.8Z" transform="translate(-69.997 0)" fill="#3e3e3e" stroke="#3e3e3e" stroke-width="0.3" opacity="0.87"/>
    <path id="Path_5279" data-name="Path 5279" d="M280.346,208.23a2.12,2.12,0,1,1-2.12,2.12A2.111,2.111,0,0,1,280.346,208.23Zm0,.8a1.348,1.348,0,0,0-1.319,1.319,1.317,1.317,0,0,0,1.319,1.319,1.288,1.288,0,0,0,1.319-1.319A1.317,1.317,0,0,0,280.346,209.031Z" transform="translate(-272.006 -202.01)" fill="#3e3e3e" stroke="#3e3e3e" stroke-width="0.3" opacity="0.87"/>
  </g>
</svg>