<svg id="Group_16399" data-name="Group 16399" xmlns="http://www.w3.org/2000/svg" width="16.111" height="16.111" viewBox="0 0 16.111 16.111">
  <path id="Path_5233" data-name="Path 5233" d="M0,0H16.111V16.111H0Z" fill="none"/>
  <rect id="Rectangle_3079" data-name="Rectangle 3079" width="12.376" height="2.197" rx="1" transform="translate(2.6 5.864)" fill="none" stroke="#c48d35" stroke-linecap="round" stroke-linejoin="round" stroke-width="1"/>
  <line id="Line_317" data-name="Line 317" y2="7.727" transform="translate(8.459 5.821)" fill="none" stroke="#c48d35" stroke-linecap="round" stroke-linejoin="round" stroke-width="1"/>
  <path id="Path_5234" data-name="Path 5234" d="M14.368,12v4.721a1.344,1.344,0,0,1-1.338,1.349H6.338A1.344,1.344,0,0,1,5,16.721V12" transform="translate(-0.935 -3.981)" fill="none" stroke="#c48d35" stroke-linecap="round" stroke-linejoin="round" stroke-width="1"/>
  <path id="Path_5235" data-name="Path 5235" d="M6.673,6.372A1.686,1.686,0,0,1,6.673,3c1.321-.023,2.516,1.315,3.011,3.372.5-2.057,1.69-3.4,3.011-3.372a1.686,1.686,0,0,1,0,3.372" transform="translate(-0.935 -0.977)" fill="none" stroke="#c48d35" stroke-linecap="round" stroke-linejoin="round" stroke-width="1"/>
</svg>
