<svg width="24" height="24" viewBox="0 0 24 24" fill="none" xmlns="http://www.w3.org/2000/svg">
<path fill-rule="evenodd" clip-rule="evenodd" d="M12 10.3365L7.00983 5.34629C6.54713 4.8836 5.80503 4.88614 5.34557 5.34557C4.88288 5.80808 4.8865 6.55 5.34629 7.00983L10.3365 12L5.34629 16.9902C4.8836 17.4529 4.88614 18.195 5.34557 18.6544C5.80808 19.1171 6.55 19.1135 7.00983 18.6537L12 13.6635L16.9902 18.6537C17.4529 19.1164 18.195 19.1139 18.6544 18.6544C19.1171 18.1919 19.1135 17.45 18.6537 16.9902L13.6635 12L18.6537 7.00983C19.1164 6.54713 19.1139 5.80503 18.6544 5.34557C18.1919 4.88288 17.45 4.8865 16.9902 5.34629L12 10.3365Z" fill="white"/>
</svg>
