<svg xmlns="http://www.w3.org/2000/svg" width="9.946" height="9.236" viewBox="0 0 9.946 9.236">
  <path id="Icon_ionic-ios-star" data-name="Icon ionic-ios-star" d="M11.819,6.572H8.553L7.561,3.61a.36.36,0,0,0-.675,0L5.893,6.572H2.605a.356.356,0,0,0-.355.355.261.261,0,0,0,.007.06.341.341,0,0,0,.149.251L5.09,9.13l-1.03,2.995a.356.356,0,0,0,.122.4.344.344,0,0,0,.2.087.435.435,0,0,0,.222-.08l2.62-1.867,2.62,1.867a.416.416,0,0,0,.222.08.319.319,0,0,0,.2-.087.352.352,0,0,0,.122-.4L9.354,9.13,12.016,7.22l.064-.056a.339.339,0,0,0-.262-.593Z" transform="translate(-2.25 -3.375)" fill="#c48d35"/>
</svg>
