<?xml version="1.0" encoding="UTF-8"?>
<svg id="Layer_1" data-name="Layer 1" xmlns="http://www.w3.org/2000/svg" xmlns:xlink="http://www.w3.org/1999/xlink" viewBox="0 0 22 22">
  <defs>
    <style>
      .cls-1 {
        fill: #fff;
      }

      .cls-2 {
        fill: #ba2025;
      }

      .cls-3 {
        stroke: #010101;
        stroke-miterlimit: 30;
        stroke-width: .14px;
      }

      .cls-3, .cls-4 {
        fill: #010101;
      }

      .cls-5 {
        fill: #186734;
      }

      .cls-6 {
        clip-path: url(#clippath);
      }

      .cls-7 {
        fill: none;
      }
    </style>
    <clipPath id="clippath">
      <circle class="cls-7" cx="11" cy="11" r="11"/>
    </clipPath>
  </defs>
  <g class="cls-6">
    <g>
      <path class="cls-1" d="m-3.79-.08h29.56v22.17H-3.79V-.08Z"/>
      <path class="cls-4" d="m-3.79-.08h29.56v6.65H-3.79V-.08Z"/>
      <path class="cls-5" d="m-3.79,15.43h29.56v6.65H-3.79v-6.65Z"/>
      <g id="b">
        <path id="a" class="cls-3" d="m7.03,17.58l.25.14,6.47-11.22c.37-.08.58-.44.79-.8.14-.25.69-1.21.93-2.45-.66.58-1.21,1.27-1.65,2.04-.21.36-.42.72-.32,1.09l-6.47,11.21Z"/>
        <path id="a-2" data-name="a" class="cls-1" d="m7.03,17.58l.25.14,6.47-11.22c.37-.08.58-.44.79-.8.14-.25.69-1.21.93-2.45-.66.58-1.21,1.27-1.65,2.04-.21.36-.42.72-.32,1.09l-6.47,11.21Z"/>
      </g>
      <g id="b-2" data-name="b">
        <path id="a-3" data-name="a" class="cls-3" d="m14.96,17.58l-.25.14-6.47-11.22c-.37-.08-.58-.44-.79-.8-.14-.25-.69-1.21-.93-2.45.66.58,1.21,1.27,1.65,2.04.21.36.42.72.32,1.09l6.47,11.21Z"/>
        <path id="a-4" data-name="a" class="cls-1" d="m14.96,17.58l-.25.14-6.47-11.22c-.37-.08-.58-.44-.79-.8-.14-.25-.69-1.21-.93-2.45.66.58,1.21,1.27,1.65,2.04.21.36.42.72.32,1.09l6.47,11.21Z"/>
      </g>
      <path class="cls-2" d="m25.8,7.67h-12.17c-.42-1.11-1.8-3.33-2.63-3.33s-2.22,2.22-2.63,3.33H-3.8v6.65h12.16c.42,1.11,1.8,3.33,2.63,3.33s2.22-2.22,2.63-3.33h12.17v-6.65Z"/>
      <path id="c" class="cls-4" d="m13.63,14.33c.42-1.11.69-2.22.69-3.33s-.28-2.22-.69-3.33c-.42,1.11-.69,2.22-.69,3.33s.28,2.22.69,3.33"/>
      <path id="c-2" data-name="c" class="cls-4" d="m8.36,14.33c-.42-1.11-.69-2.22-.69-3.33s.28-2.22.69-3.33c.42,1.11.69,2.22.69,3.33s-.28,2.22-.69,3.33"/>
      <g>
        <ellipse class="cls-1" cx="10.99" cy="11" rx=".55" ry=".83"/>
        <path id="d" class="cls-1" d="m11.13,11.8s.55,1.11.55,2.91-.55,2.91-.55,2.91v-5.82Z"/>
        <path id="d-2" data-name="d" class="cls-1" d="m10.85,10.2s-.55-1.11-.55-2.91.55-2.91.55-2.91v5.82Z"/>
        <path id="d-3" data-name="d" class="cls-1" d="m10.85,11.8s-.55,1.11-.55,2.91.55,2.91.55,2.91v-5.82Z"/>
        <path id="d-4" data-name="d" class="cls-1" d="m11.13,10.2s.55-1.11.55-2.91-.55-2.91-.55-2.91v5.82Z"/>
      </g>
    </g>
  </g>
</svg>