<svg xmlns="http://www.w3.org/2000/svg" xmlns:xlink="http://www.w3.org/1999/xlink" width="160" height="110" viewBox="0 0 160 110">
  <defs>
    <clipPath id="clip-path">
      <path id="Path_7597" data-name="Path 7597" d="M129.729,264.313c-3.175-5.471-10.1-19.27-7.241-36.2,1.024-6.057,2.891-17.28,11.585-23.17,9.558-6.476,15.862,1.029,28.962-4.055,13.99-5.429,12.675-16.269,28.093-22.011a40.287,40.287,0,0,1,21.432-1.738c2.779.543,18.224,3.56,24.328,15.35,6.911,13.347-5.514,23.711,2.027,38.809,4.146,8.3,9.568,8.506,10.716,15.929,1.258,8.132-3.5,19.217-11.585,22.59-13.933,5.811-26.5-15.964-43.443-11.006-10.129,2.964-8.12,11.475-21.432,16.508-15.718,5.943-30.715-1.309-31.569-1.738a39.017,39.017,0,0,1-11.875-9.268" transform="translate(-117.137 -169.65)" fill="#cfdaff"/>
    </clipPath>
  </defs>
  <g id="Mail-Box-Illustration" transform="translate(6.983 1.269)">
    <rect id="Bound" width="160" height="110" transform="translate(-6.983 -1.269)" fill="none"/>
    <g id="BG">
      <path id="Path_7582" data-name="Path 7582" d="M2.818,33.485c7.951-22.078,31.116-28.694,38.2-30.717,5.02-1.434,19.721-5.632,34.989.35C87.944,7.8,87.02,13.522,102.966,24.853c19.069,13.551,26.527,9.723,35.378,20.405,8.14,9.824,12.476,25.908,7.365,38.791-9.683,24.411-50.852,31.206-70.6,18.171-10.142-6.694-8.473-14.549-19.622-19.946-16.907-8.184-29.363,5.708-42.14-1.591C.635,73.424-3.275,50.4,2.818,33.485" transform="translate(0.001 0.003)" fill="#d9e2ff"/>
      <path id="Path_7583" data-name="Path 7583" d="M129.729,264.313c-3.175-5.471-10.1-19.27-7.241-36.2,1.024-6.057,2.891-17.28,11.585-23.17,9.558-6.476,15.862,1.029,28.962-4.055,13.99-5.429,12.675-16.269,28.093-22.011a40.287,40.287,0,0,1,21.432-1.738c2.779.543,18.224,3.56,24.328,15.35,6.911,13.347-5.514,23.711,2.027,38.809,4.146,8.3,9.568,8.506,10.716,15.929,1.258,8.132-3.5,19.217-11.585,22.59-13.933,5.811-26.5-15.964-43.443-11.006-10.129,2.964-8.12,11.475-21.432,16.508-15.718,5.943-30.715-1.309-31.569-1.738a39.017,39.017,0,0,1-11.875-9.268" transform="translate(-117.137 -169.65)" fill="#cfdaff"/>
    </g>
    <path id="Path_7584" data-name="Path 7584" d="M1852.542,790.694v23.041l-26.85.036V790.729a14.857,14.857,0,0,1,.083-1.576,13.7,13.7,0,0,1,13.341-12.523h.018c7.406,0,13.407,6.292,13.407,14.063" transform="translate(-1755.658 -746.84)" fill="#6883de"/>
    <path id="Path_7585" data-name="Path 7585" d="M1839.151,1744.36h-13.459l13.459-.018Z" transform="translate(-1755.658 -1677.43)" fill="#8096e3"/>
    <path id="Path_7586" data-name="Path 7586" d="M1832.394,1744.812h-28.6l14.35,9.322c4.843,3.146,15.171,5.7,23.068,5.7h0c7.9,0,10.373-2.551,5.53-5.7Z" transform="translate(-1734.602 -1677.882)" fill="#8fa6f2"/>
    <g id="Mask_Group_31" data-name="Mask Group 31" clip-path="url(#clip-path)">
      <rect id="Rectangle_11131" data-name="Rectangle 11131" width="10.469" height="51.423" transform="translate(55.904 66.931)" fill="#8096e3"/>
    </g>
    <rect id="Rectangle_11132" data-name="Rectangle 11132" width="10.469" height="2.806" transform="translate(55.904 66.93)" fill="#6883de"/>
    <path id="Path_7587" data-name="Path 7587" d="M1825.694,799.781h27.758v-23.4a14.3,14.3,0,0,0-14.3-14.3v.558c7.4.009,13.391,6.3,13.391,14.062v23.041Z" transform="translate(-1755.66 -732.851)" fill="#8fa6f2"/>
    <path id="Path_7595" data-name="Path 7595" d="M871.714,776.383v23.4h36.595V776.74a14.864,14.864,0,0,1,.083-1.576,13.7,13.7,0,0,1,13.342-12.523h.034v-.558H886.013a14.3,14.3,0,0,0-14.3,14.3" transform="translate(-838.274 -732.851)" fill="#8096e3"/>
    <path id="Path_7596" data-name="Path 7596" d="M1803.794,776.383v23.4h.84V776.74a14.864,14.864,0,0,1,.083-1.576,13.7,13.7,0,0,1,13.342-12.523h.034v-.558a14.3,14.3,0,0,0-14.3,14.3" transform="translate(-1734.6 -732.851)" fill="#8fa6f2"/>
    <g id="Error" transform="translate(-35.245 17.419)">
      <g id="Group_24533" data-name="Group 24533" transform="translate(58.261 6.313)">
        <g id="Ellipse_406" data-name="Ellipse 406" fill="#ed1c24" stroke="#fff" stroke-width="1">
          <circle cx="12" cy="12" r="12" stroke="none"/>
          <circle cx="12" cy="12" r="11.5" fill="none"/>
        </g>
        <path id="Path_7607" data-name="Path 7607" d="M860.114,164.2c-.5,1.882.735,4.976.725,8.318,0,.4,1.582.4,1.581,0-.01-3.4,1.263-6.542.7-8.414-.571-1.892-2.508-1.793-3,.1" transform="translate(-849.629 -157.516)" fill="#fff" fill-rule="evenodd"/>
        <path id="Path_7608" data-name="Path 7608" d="M864.11,304.978a1.432,1.432,0,1,0,1.431,1.432,1.432,1.432,0,0,0-1.431-1.432" transform="translate(-852.109 -289.06)" fill="#fff" fill-rule="evenodd"/>
      </g>
    </g>
  </g>
</svg>
