<svg xmlns="http://www.w3.org/2000/svg" xmlns:xlink="http://www.w3.org/1999/xlink" width="160" height="110" viewBox="0 0 160 110">
  <defs>
    <clipPath id="clip-path">
      <path id="Path_7597" data-name="Path 7597" d="M129.729,264.313c-3.175-5.471-10.1-19.27-7.241-36.2,1.024-6.057,2.891-17.28,11.585-23.17,9.558-6.476,15.862,1.029,28.962-4.055,13.99-5.429,12.675-16.269,28.093-22.011a40.287,40.287,0,0,1,21.432-1.738c2.779.543,18.224,3.56,24.328,15.35,6.911,13.347-5.514,23.711,2.027,38.809,4.146,8.3,9.568,8.506,10.716,15.929,1.258,8.132-3.5,19.217-11.585,22.59-13.933,5.811-26.5-15.964-43.443-11.006-10.129,2.964-8.12,11.475-21.432,16.508-15.718,5.943-30.715-1.309-31.569-1.738a39.017,39.017,0,0,1-11.875-9.268" transform="translate(-117.137 -169.65)" fill="#cfdaff"/>
    </clipPath>
  </defs>
  <g id="Mail-Box-Illustration" transform="translate(6.983 1.269)">
    <rect id="Bound" width="160" height="110" transform="translate(-6.983 -1.269)" fill="none"/>
    <g id="BG">
      <path id="Path_7582" data-name="Path 7582" d="M2.818,33.485c7.951-22.078,31.116-28.694,38.2-30.717,5.02-1.434,19.721-5.632,34.989.35C87.944,7.8,87.02,13.522,102.966,24.853c19.069,13.551,26.527,9.723,35.378,20.405,8.14,9.824,12.476,25.908,7.365,38.791-9.683,24.411-50.852,31.206-70.6,18.171-10.142-6.694-8.473-14.549-19.622-19.946-16.907-8.184-29.363,5.708-42.14-1.591C.635,73.424-3.275,50.4,2.818,33.485" transform="translate(0.001 0.003)" fill="#d9e2ff"/>
      <path id="Path_7583" data-name="Path 7583" d="M129.729,264.313c-3.175-5.471-10.1-19.27-7.241-36.2,1.024-6.057,2.891-17.28,11.585-23.17,9.558-6.476,15.862,1.029,28.962-4.055,13.99-5.429,12.675-16.269,28.093-22.011a40.287,40.287,0,0,1,21.432-1.738c2.779.543,18.224,3.56,24.328,15.35,6.911,13.347-5.514,23.711,2.027,38.809,4.146,8.3,9.568,8.506,10.716,15.929,1.258,8.132-3.5,19.217-11.585,22.59-13.933,5.811-26.5-15.964-43.443-11.006-10.129,2.964-8.12,11.475-21.432,16.508-15.718,5.943-30.715-1.309-31.569-1.738a39.017,39.017,0,0,1-11.875-9.268" transform="translate(-117.137 -169.65)" fill="#cfdaff"/>
    </g>
    <path id="Path_7584" data-name="Path 7584" d="M1852.542,790.694v23.041l-26.85.036V790.729a14.857,14.857,0,0,1,.083-1.576,13.7,13.7,0,0,1,13.341-12.523h.018c7.406,0,13.407,6.292,13.407,14.063" transform="translate(-1755.658 -746.84)" fill="#6883de"/>
    <path id="Path_7585" data-name="Path 7585" d="M1839.151,1744.36h-13.459l13.459-.018Z" transform="translate(-1755.658 -1677.43)" fill="#8096e3"/>
    <path id="Path_7586" data-name="Path 7586" d="M1832.394,1744.812h-28.6l14.35,9.322c4.843,3.146,15.171,5.7,23.068,5.7h0c7.9,0,10.373-2.551,5.53-5.7Z" transform="translate(-1734.602 -1677.882)" fill="#8fa6f2"/>
    <g id="Mask_Group_31" data-name="Mask Group 31" clip-path="url(#clip-path)">
      <rect id="Rectangle_11131" data-name="Rectangle 11131" width="10.469" height="51.423" transform="translate(55.904 66.931)" fill="#8096e3"/>
    </g>
    <rect id="Rectangle_11132" data-name="Rectangle 11132" width="10.469" height="2.806" transform="translate(55.904 66.93)" fill="#6883de"/>
    <path id="Path_7587" data-name="Path 7587" d="M1825.694,799.781h27.758v-23.4a14.3,14.3,0,0,0-14.3-14.3v.558c7.4.009,13.391,6.3,13.391,14.062v23.041Z" transform="translate(-1755.66 -732.851)" fill="#8fa6f2"/>
    <g id="Letter">
      <path id="Path_7588" data-name="Path 7588" d="M1777.692,1041.293l-6.155,17.449a1.67,1.67,0,0,1-.9.973c-.031.014-.062.027-.094.039a1.668,1.668,0,0,1-1.141.01l-28.715-10.128a1.665,1.665,0,0,1-.879-.719c-.018-.03-.036-.062-.052-.093a1.7,1.7,0,0,1-.133-.35,1.667,1.667,0,0,1,0-.814q.02-.079.048-.158l6.154-17.449a1.569,1.569,0,0,1,.063-.153,1.667,1.667,0,0,1,.837-.82c.032-.015.065-.028.1-.04a1.667,1.667,0,0,1,1.136-.008l28.716,10.128a1.667,1.667,0,0,1,.882.723c.017.029.034.059.049.089a1.669,1.669,0,0,1,.09,1.322" transform="translate(-1672.841 -989.465)" fill="#7597ff"/>
      <path id="Path_7589" data-name="Path 7589" d="M1758.683,1047.005l-2.877.689-16,3.829c-.018-.031-.035-.062-.052-.093a1.687,1.687,0,0,1-.133-.35,1.667,1.667,0,0,1,0-.814l6.265-17.76a1.669,1.669,0,0,1,.837-.82q.048-.022.1-.04l9.817,12.71.239.308Z" transform="translate(-1672.841 -992.072)" fill="#c48d35"/>
      <path id="Path_7590" data-name="Path 7590" d="M2256.823,1315.734l-6.154,17.449a1.67,1.67,0,0,1-.9.973c-.031.014-.062.027-.094.038l-10.056-13.018-1.8-2.337,2.872-.687.379-.091,15.619-3.738c.017.029.033.059.049.089a1.67,1.67,0,0,1,.09,1.322" transform="translate(-2151.972 -1263.905)" fill="#c48d35"/>
      <path id="Path_7591" data-name="Path 7591" d="M1758.2,1363.291l1.808,2.341-2.877.689-16,3.829c-.018-.031-.035-.062-.052-.093a1.656,1.656,0,0,1-.133-.35l14.788-5.845,2.226-.88Z" transform="translate(-1674.162 -1310.699)" fill="#9e702d"/>
      <path id="Path_7592" data-name="Path 7592" d="M2250.093,1427.68a1.685,1.685,0,0,1-.323.189c-.031.014-.062.027-.094.038l-10.056-13.018-1.8-2.337,2.872-.687.379-.091,1.179,2.077Z" transform="translate(-2151.972 -1357.618)" fill="#9e702d"/>
      <path id="Path_7593" data-name="Path 7593" d="M1775.218,1366.212a1.938,1.938,0,0,1-1.6-.081l-27.72-9.772a2.633,2.633,0,0,1-1.566-1.038l5.439-2.149,5.439-2.149,5.439-2.149,2.852-1.127a1.25,1.25,0,0,1,1.545.545l10.172,17.92h0" transform="translate(-1677.421 -1295.962)" fill="#dda243"/>
      <path id="Path_7594" data-name="Path 7594" d="M1956.944,1040.005c-.015-.03-.031-.06-.049-.089a1.669,1.669,0,0,0-.882-.723l-28.716-10.128a1.665,1.665,0,0,0-1.136.008c-.033.012-.066.026-.1.04l7.877,13.879,1.208,2.13,1.107,1.95a1.2,1.2,0,0,0,1.486.524l2.089-.826,2.273-.9Z" transform="translate(-1852.179 -989.498)" fill="#dda243"/>
    </g>
    <path id="Path_7595" data-name="Path 7595" d="M871.714,776.383v23.4h36.595V776.74a14.864,14.864,0,0,1,.083-1.576,13.7,13.7,0,0,1,13.342-12.523h.034v-.558H886.013a14.3,14.3,0,0,0-14.3,14.3" transform="translate(-838.274 -732.851)" fill="#8096e3"/>
    <path id="Path_7596" data-name="Path 7596" d="M1803.794,776.383v23.4h.84V776.74a14.864,14.864,0,0,1,.083-1.576,13.7,13.7,0,0,1,13.342-12.523h.034v-.558a14.3,14.3,0,0,0-14.3,14.3" transform="translate(-1734.6 -732.851)" fill="#8fa6f2"/>
    <g id="Tick" transform="translate(-268.983 -516.269)">
      <circle id="Ellipse_405" data-name="Ellipse 405" cx="12" cy="12" r="12" transform="translate(292 540)" fill="#45a03f"/>
      <path id="Path_7581" data-name="Path 7581" d="M-8598.166,12787.732l3.8,3.419,8.114-8.114" transform="translate(8896.687 -12235.094)" fill="none" stroke="#fff" stroke-linecap="round" stroke-linejoin="round" stroke-width="2"/>
    </g>
  </g>
</svg>
