<?xml version="1.0" encoding="UTF-8"?>
<svg id="Layer_1" data-name="Layer 1" xmlns="http://www.w3.org/2000/svg" xmlns:xlink="http://www.w3.org/1999/xlink" viewBox="0 0 22 22">
  <defs>
    <style>
      .cls-1 {
        fill: #fff;
      }

      .cls-2 {
        fill: #273476;
        fill-rule: evenodd;
      }

      .cls-3 {
        fill: #222d65;
      }

      .cls-4 {
        clip-path: url(#clippath);
      }

      .cls-5 {
        fill: none;
      }

      .cls-6 {
        fill: #c8202f;
      }

      .cls-7 {
        fill: #cc202d;
      }
    </style>
    <clipPath id="clippath">
      <circle class="cls-5" cx="11" cy="11" r="11"/>
    </clipPath>
  </defs>
  <g class="cls-4">
    <g>
      <path class="cls-2" d="m-3.83-.12h29.66v22.24H-3.83V-.12Z"/>
      <g>
        <g id="b">
          <g id="a">
            <path class="cls-1" d="m18.9,4.85v.7l1.41-.7h-1.41Z"/>
            <path class="cls-1" d="m19.2,5.63l-.41-.57,1.55-.26-1.14.83Z"/>
          </g>
          <g id="a-2" data-name="a">
            <path class="cls-1" d="m18.9,4.85v.7l-1.41-.7h1.41Z"/>
            <path class="cls-1" d="m18.6,5.63l.41-.57-1.55-.26,1.14.83Z"/>
          </g>
          <g id="a-3" data-name="a">
            <path class="cls-1" d="m19.3,5.14l-.67.22,1.1,1.12-.43-1.34Z"/>
            <path class="cls-1" d="m18.65,5.66l.41-.57.72,1.4-1.14-.83Z"/>
          </g>
          <g id="a-4" data-name="a">
            <path class="cls-1" d="m18.5,5.14l.67.22-.23-1.55-.43,1.34Z"/>
            <path class="cls-1" d="m19.33,5.09l-.67.22.23-1.55.43,1.34Z"/>
          </g>
          <g id="a-5" data-name="a">
            <path class="cls-1" d="m18.5,5.14l.67.22-1.1,1.12.43-1.34Z"/>
            <path class="cls-1" d="m19.15,5.66l-.41-.57-.72,1.4,1.14-.83Z"/>
          </g>
        </g>
        <g id="b-2" data-name="b">
          <g id="a-6" data-name="a">
            <path class="cls-7" d="m18.9,4.99v.46l.93-.46h-.93Z"/>
            <path class="cls-7" d="m19.1,5.5l-.27-.38,1.02-.17-.75.55Z"/>
          </g>
          <g id="a-7" data-name="a">
            <path class="cls-7" d="m18.9,4.99v.46l-.93-.46h.93Z"/>
            <path class="cls-7" d="m18.7,5.5l.27-.38-1.02-.17.75.55Z"/>
          </g>
          <g id="a-8" data-name="a">
            <path class="cls-7" d="m19.16,5.18l-.44.14.73.74-.29-.88Z"/>
            <path class="cls-7" d="m18.73,5.53l.27-.38.48.92-.75-.55Z"/>
          </g>
          <g id="a-9" data-name="a">
            <path class="cls-7" d="m18.63,5.18l.44.14-.15-1.03-.29.88Z"/>
            <path class="cls-7" d="m19.18,5.15l-.44.14.15-1.03.29.88Z"/>
          </g>
          <g id="a-10" data-name="a">
            <path class="cls-7" d="m18.63,5.18l.44.14-.73.74.29-.88Z"/>
            <path class="cls-7" d="m19.06,5.53l-.27-.38-.48.92.75-.55Z"/>
          </g>
        </g>
      </g>
      <g>
        <g id="b-3" data-name="b">
          <g id="a-11" data-name="a">
            <path class="cls-1" d="m22.58,8.09v.63l-1.25-.63h1.25Z"/>
            <path class="cls-1" d="m22.31,8.79l.37-.51-1.38-.23,1.01.74Z"/>
          </g>
          <g id="a-12" data-name="a">
            <path class="cls-1" d="m22.22,8.35l.59.19-.98,1,.39-1.19Z"/>
            <path class="cls-1" d="m22.8,8.82l-.37-.51-.64,1.24,1.01-.74Z"/>
          </g>
        </g>
        <g id="b-4" data-name="b">
          <g id="a-13" data-name="a">
            <path class="cls-7" d="m22.58,8.23v.39l-.77-.39h.77Z"/>
            <path class="cls-7" d="m22.42,8.66l.23-.31-.85-.14.63.46Z"/>
          </g>
        </g>
      </g>
      <g>
        <g id="b-5" data-name="b">
          <g id="a-14" data-name="a">
            <path class="cls-1" d="m14.61,9.17v.7l1.41-.7h-1.41Z"/>
            <path class="cls-1" d="m14.91,9.95l-.41-.57,1.55-.26-1.14.83Z"/>
          </g>
          <g id="a-15" data-name="a">
            <path class="cls-1" d="m14.61,9.17v.7l-1.41-.7h1.41Z"/>
            <path class="cls-1" d="m14.31,9.95l.41-.57-1.55-.26,1.14.83Z"/>
          </g>
          <g id="a-16" data-name="a">
            <path class="cls-1" d="m15.01,9.46l-.67.22,1.1,1.12-.43-1.34Z"/>
            <path class="cls-1" d="m14.36,9.98l.41-.57.72,1.4-1.14-.83Z"/>
          </g>
          <g id="a-17" data-name="a">
            <path class="cls-1" d="m14.21,9.46l.67.22-.23-1.55-.43,1.34Z"/>
            <path class="cls-1" d="m15.04,9.41l-.67.22.23-1.55.43,1.34Z"/>
          </g>
          <g id="a-18" data-name="a">
            <path class="cls-1" d="m14.21,9.46l.67.22-1.1,1.12.43-1.34Z"/>
            <path class="cls-1" d="m14.86,9.98l-.41-.57-.72,1.4,1.14-.83Z"/>
          </g>
        </g>
        <g id="b-6" data-name="b">
          <g id="a-19" data-name="a">
            <path class="cls-7" d="m14.61,9.31v.46l.93-.46h-.93Z"/>
            <path class="cls-7" d="m14.8,9.82l-.27-.38,1.02-.17-.75.55Z"/>
          </g>
          <g id="a-20" data-name="a">
            <path class="cls-7" d="m14.61,9.31v.46l-.93-.46h.93Z"/>
            <path class="cls-7" d="m14.41,9.82l.27-.38-1.02-.17.75.55Z"/>
          </g>
          <g id="a-21" data-name="a">
            <path class="cls-7" d="m14.87,9.5l-.44.14.73.74-.29-.88Z"/>
            <path class="cls-7" d="m14.44,9.85l.27-.38.48.92-.75-.55Z"/>
          </g>
          <g id="a-22" data-name="a">
            <path class="cls-7" d="m14.34,9.5l.44.14-.15-1.03-.29.88Z"/>
            <path class="cls-7" d="m14.89,9.47l-.44.14.15-1.03.29.88Z"/>
          </g>
          <g id="a-23" data-name="a">
            <path class="cls-7" d="m14.34,9.5l.44.14-.73.74.29-.88Z"/>
            <path class="cls-7" d="m14.77,9.85l-.27-.38-.48.92.75-.55Z"/>
          </g>
        </g>
      </g>
      <g>
        <g id="b-7" data-name="b">
          <g id="a-24" data-name="a">
            <path class="cls-1" d="m18.9,15.95v.78l1.56-.78h-1.56Z"/>
            <path class="cls-1" d="m19.23,16.81l-.46-.63,1.72-.29-1.26.92Z"/>
          </g>
          <g id="a-25" data-name="a">
            <path class="cls-1" d="m18.9,15.95v.78l-1.56-.78h1.56Z"/>
            <path class="cls-1" d="m18.57,16.81l.46-.63-1.72-.29,1.26.92Z"/>
          </g>
          <g id="a-26" data-name="a">
            <path class="cls-1" d="m19.34,16.27l-.74.24,1.22,1.24-.48-1.48Z"/>
            <path class="cls-1" d="m18.62,16.85l.46-.63.8,1.55-1.26-.92Z"/>
          </g>
          <g id="a-27" data-name="a">
            <path class="cls-1" d="m18.45,16.27l.74.24-.26-1.73-.48,1.48Z"/>
            <path class="cls-1" d="m19.38,16.22l-.74.24.26-1.73.48,1.48Z"/>
          </g>
          <g id="a-28" data-name="a">
            <path class="cls-1" d="m18.45,16.27l.74.24-1.22,1.24.48-1.48Z"/>
            <path class="cls-1" d="m19.17,16.85l-.46-.63-.8,1.55,1.26-.92Z"/>
          </g>
        </g>
        <g id="b-8" data-name="b">
          <g id="a-29" data-name="a">
            <path class="cls-7" d="m18.9,16.09v.54l1.08-.54h-1.08Z"/>
            <path class="cls-7" d="m19.13,16.69l-.32-.44,1.2-.2-.88.64Z"/>
          </g>
          <g id="a-30" data-name="a">
            <path class="cls-7" d="m18.9,16.09v.54l-1.08-.54h1.08Z"/>
            <path class="cls-7" d="m18.67,16.69l.32-.44-1.2-.2.88.64Z"/>
          </g>
          <g id="a-31" data-name="a">
            <path class="cls-7" d="m19.21,16.31l-.52.17.85.86-.33-1.03Z"/>
            <path class="cls-7" d="m18.71,16.72l.32-.44.56,1.08-.88-.64Z"/>
          </g>
          <g id="a-32" data-name="a">
            <path class="cls-7" d="m18.59,16.31l.52.17-.18-1.2-.33,1.03Z"/>
            <path class="cls-7" d="m19.23,16.28l-.52.17.18-1.2.33,1.03Z"/>
          </g>
          <g id="a-33" data-name="a">
            <path class="cls-7" d="m18.59,16.31l.52.17-.85.86.33-1.03Z"/>
            <path class="cls-7" d="m19.09,16.72l-.32-.44-.56,1.08.88-.64Z"/>
          </g>
        </g>
      </g>
      <path class="cls-3" d="m-3.83-.12h14.83v11.12H-3.83V-.12Z"/>
      <path class="cls-1" d="m-2.09-.12L3.56,4.07,9.19-.12h1.81v1.44l-5.56,4.15,5.56,4.12v1.41h-1.85L3.59,6.85-1.95,11h-1.88v-1.39L1.71,5.49-3.83,1.36V-.12h1.74Z"/>
      <path class="cls-6" d="m6,6.39l5,3.68v.93l-6.28-4.61h1.27Zm-4.26.46l.14.81-4.45,3.34h-1.25L1.73,6.85ZM11-.12V-.05l-5.77,4.36.05-1.02L9.84-.12h1.16ZM-3.83-.12L1.71,3.96H.32L-3.83.85V-.12Z"/>
      <path class="cls-1" d="m1.75-.12v11.12h3.71V-.12H1.75ZM-3.83,3.59v3.71h14.83v-3.71H-3.83Z"/>
      <path class="cls-6" d="m-3.83,4.35v2.22h14.83v-2.22H-3.83ZM2.5-.12v11.12h2.22V-.12h-2.22Z"/>
    </g>
  </g>
</svg>