<?xml version="1.0" encoding="UTF-8"?>
<svg id="Layer_1" data-name="Layer 1" xmlns="http://www.w3.org/2000/svg" xmlns:xlink="http://www.w3.org/1999/xlink" viewBox="0 0 22 22">
  <defs>
    <style>
      .cls-1 {
        stroke-width: .04px;
      }

      .cls-1, .cls-2, .cls-3, .cls-4, .cls-5, .cls-6, .cls-7 {
        fill-rule: evenodd;
      }

      .cls-1, .cls-2, .cls-4, .cls-6, .cls-8, .cls-9, .cls-7 {
        fill: #fff;
      }

      .cls-1, .cls-10, .cls-11, .cls-12, .cls-13, .cls-4, .cls-6, .cls-8, .cls-14, .cls-9, .cls-7 {
        stroke: #ee3129;
      }

      .cls-10, .cls-11, .cls-12, .cls-13, .cls-15 {
        fill: none;
      }

      .cls-10, .cls-7 {
        stroke-width: .06px;
      }

      .cls-11 {
        stroke-width: .11px;
      }

      .cls-3 {
        fill: #0e9146;
      }

      .cls-12 {
        stroke-width: .09px;
      }

      .cls-13 {
        stroke-width: .08px;
      }

      .cls-16 {
        clip-path: url(#clippath-1);
      }

      .cls-4 {
        stroke-width: .06px;
      }

      .cls-5 {
        fill: #ee312b;
      }

      .cls-6, .cls-14, .cls-9 {
        stroke-width: .06px;
      }

      .cls-17 {
        clip-path: url(#clippath);
      }

      .cls-8 {
        stroke-width: .2px;
      }

      .cls-14 {
        fill: #ed1c24;
      }
    </style>
    <clipPath id="clippath">
      <circle class="cls-15" cx="11" cy="11" r="11"/>
    </clipPath>
    <clipPath id="clippath-1">
      <rect class="cls-15" x="-3.67" width="29.33" height="22"/>
    </clipPath>
  </defs>
  <g class="cls-17">
    <g class="cls-16">
      <g>
        <path class="cls-5" d="m-3.82-.99H28.37v25.35H-3.82V-.99Z"/>
        <path class="cls-3" d="m4.34,14.54h24.55v9.52H4.34v-9.52Z"/>
        <path class="cls-2" d="m4.34-1.62h25.89V7.09H4.33V-1.62Z"/>
        <g>
          <g>
            <path class="cls-4" d="m1.7,3.19h1.05c.06,0,.1.04.1.1v.5c0,.05-.05.1-.1.1h-1.05c-.06,0-.1-.04-.1-.1v-.5c0-.05.05-.1.1-.1Z"/>
            <path class="cls-6" d="m1.73,3.22h1c.05,0,.1.04.1.09v.46s-.04.09-.1.09h-1c-.05,0-.1-.04-.1-.09v-.46s.04-.09.1-.09Z"/>
            <path class="cls-6" d="m2.18,3.39h.06s0,.03,0,.03l.05.03.04-.03.05.03-.04.03v.04s.07,0,.07,0v.05h-.04s-.02.03-.02.03l.05.04-.04.03-.04-.03h-.06s0,.06,0,.06h-.07s0-.04,0-.04l-.05-.02-.03.03-.05-.02.03-.04-.03-.02h-.05v-.07s.04,0,.04,0l.03-.04-.04-.03.05-.03.04.03h.06s0-.04,0-.04Z"/>
            <ellipse class="cls-9" cx="2.2" cy="3.53" rx=".07" ry=".06"/>
            <path class="cls-6" d="m1.79,3.25l-.1.09m.16-.09l-.1.09m.16-.09l-.1.09m.16-.09l-.1.09m.16-.09l-.1.09m.16-.09l-.1.09m.16-.09l-.1.09m.16-.09l-.1.09m.16-.09l-.1.09m.16-.09l-.1.09m.16-.09l-.1.09m.16-.09l-.1.09m-.16-.09l-.1.09m.42-.09l-.1.09m.16-.09l-.1.09m.16-.09l-.1.09m.16-.09l-.1.09m0-.09l.1.09m-.16-.09l.1.09m-.16-.09l.1.09m-.16-.09l.1.09m-.16-.09l.1.09m-.16-.09l.1.09m-.16-.09l.1.09m-.16-.09l.1.09m-.16-.09l.1.09m-.16-.09l.1.09m-.16-.09l.1.09m-.16-.09l.1.09m.16-.09l.1.09m-.42-.09l.1.09m-.16-.09l.1.09m-.16-.09l.1.09m-.16-.09l.1.09m0,.4l-.1.09m.16-.09l-.1.09m.16-.09l-.1.09m.16-.09l-.1.09m.16-.09l-.1.09m.16-.09l-.1.09m.16-.09l-.1.09m.16-.09l-.1.09m.16-.09l-.1.09m.16-.09l-.1.09m.16-.09l-.1.09m.16-.09l-.1.09m-.16-.09l-.1.09m.42-.09l-.1.09m.16-.09l-.1.09m.16-.09l-.1.09m.16-.09l-.1.09m0-.09l.1.09m-.16-.09l.1.09m-.16-.09l.1.09m-.16-.09l.1.09m-.16-.09l.1.09m-.16-.09l.1.09m-.16-.09l.1.09m-.16-.09l.1.09m-.16-.09l.1.09m-.16-.09l.1.09m-.16-.09l.1.09m-.16-.09l.1.09m.16-.09l.1.09m-.42-.09l.1.09m-.16-.09l.1.09m-.16-.09l.1.09m-.16-.09l.1.09"/>
          </g>
          <path class="cls-6" d="m-.66,4.61c-1.56,1.53-2.23,1.73-1.92,1.85s1.32-.67,2.37-1.72,1.69-1.99,1.38-2.11-.16.35-1.83,1.98Z"/>
          <g>
            <path class="cls-6" d="m1.13,3.23c.69-1.2,1.15-2.22,1.03-2.28s-.79.87-1.49,2.07l.46.21Z"/>
            <path class="cls-6" d="m1.08,3.21c.67-1.16,1.13-2.14,1.03-2.18s-.73.86-1.4,2.01"/>
            <path class="cls-6" d="m.97,2.6c-.08.14-.17.29-.25.43l.37.17c.08-.14.17-.3.25-.43l-.37-.17Z"/>
            <path class="cls-6" d="m1,2.65c-.08.14-.14.24-.22.38l.27.13c.08-.14.15-.25.22-.38l-.27-.13Z"/>
            <path class="cls-6" d="m1.2,2.8l-.18-.08-.16.28.18.08.16-.28Zm0,0l-.35.2m.18.08l-.02-.37m1.01-1.35l-.18-.08"/>
            <ellipse class="cls-14" cx="2.02" cy="1.19" rx=".05" ry=".05" transform="translate(-.22 .5) rotate(-13.48)"/>
          </g>
          <path class="cls-6" d="m.86,4.58c1.56,1.53,2.23,1.73,1.92,1.85s-1.32-.67-2.37-1.72-1.69-1.99-1.38-2.11.16.35,1.83,1.98Z"/>
          <path class="cls-7" d="m2.17,5.7l-.55.14c.52.49,1.1.69,1.26.61s-.29-.29-.71-.75h0Z"/>
          <path class="cls-6" d="m2.17,5.75l-.45.11c.5.47,1,.61,1.13.55.13-.06-.27-.22-.68-.66Z"/>
          <path class="cls-13" d="m.49,4.51s0,.04,0,.05c0,.02,0,.03,0,.05,0,.01,0,.02.02.03,0,.01.02.02.03.03.01,0,.03.02.04.02.02,0,.03,0,.05,0,.01,0,.02-.02.04-.03,0-.01,0-.03,0-.04,0,.02,0,.03,0,.05,0,.02,0,.03.02.04"/>
          <path class="cls-13" d="m.64,4.75h0s0,0,.02-.01c.02,0,.03-.01.05-.01h.06s.04,0,.05,0c.01.01.03.02.04.03.01,0,.02.02.02.03.01,0,.02.02.03.03,0,.02.01.02.02.03-.02,0-.03,0-.04.01-.02,0,.01,0,.02-.01.01,0,.02,0,.04,0,.02,0,.03,0,.05,0,.01,0,.01,0,.03,0"/>
          <path class="cls-13" d="m.85,4.93s.05,0,.06,0c.02,0,.03-.01.04-.03,0,0,0,.02,0,.03,0,.02,0,.02.02.04.01,0,.02.02.04.02.01,0,.02.01.04.02.01,0,.03.01.04.02.01,0,.01.02.02.03,0,.02,0,.03-.02.04,0,.01-.02.02-.02.03,0,.02-.02.02,0,.03.01,0,.02,0,.04,0"/>
          <path class="cls-13" d="m1.11,5.18s.04-.01.06-.02h.06s.03,0,.04.01c.01.01.02.02.04.03,0,0,.03.03.03.04,0,.01,0,.03,0,.05,0,.02,0,.03,0,.04,0,.02-.01.03-.02.04,0,0,0,0,0,0"/>
          <path class="cls-11" d="m1.3,5.42s0,0,.01.02c.01.01.01.01.03.01.02,0,.02,0,.03-.01,0,0,.01-.02.02-.03,0,0,0-.02.01-.03,0,0,.01-.01.02-.02,0,0,0,0,.01,0-.02,0-.02,0-.03.02,0,0,0,.02-.01.03,0,.01,0,.02,0,.04,0,.02,0,.03,0,.04,0,0,.01.01.02.02,0,0,.01.01.02.02l.03.02s.02,0,.03.01c.02,0,.02,0,.03-.01.01,0,.02-.01.03-.02,0,0,.01-.01.02-.02.02,0,.03,0,.03,0,0,0,.01.01.02.02,0,0,.01,0,.02.01"/>
          <path class="cls-12" d="m1.61,5.54s-.02.01-.03.02c0,.02-.01.02-.01.04,0,.01,0,.03,0,.05,0,.02.01.03.02.04.01,0,.02.01.03.02.01,0,.03,0,.05,0,.01,0,.03,0,.04,0,.02,0,.03,0,.04-.01.01,0,.02-.01.04-.02,0-.01.02-.02.03-.03,0-.01.02-.02.02-.03,0,.01-.01.03-.02.04,0,.01-.01.02-.01.04,0,.01,0,.03,0,.05,0,.01,0,.03,0,.04h0"/>
          <path class="cls-10" d="m2.13,5.86h0s0,0,0,.03c-.01.01-.04.01-.06,0-.02-.01-.02-.02-.05-.03-.03,0-.05,0-.06.02-.02,0-.04.02-.05.03,0,.02-.01.03.01.04.02.01.04.02.06.02.03,0,.04,0,.06.01.02.02.02.03.02.06,0,0,0,.04.01.05.02,0,.03.01.05,0,0-.02.01-.04.02-.06,0-.02,0-.04.02-.06.01-.01.02-.03.04-.04,0,0,.02-.02.03-.02-.02,0-.03.02-.03.05.02,0,.02.01.06.02.03,0,.04,0,.05-.03,0,.03.01.03.02.06.01.01.02.03.03.05,0,.02-.02.03-.02.06,0,.02,0,.04-.02.05,0,0-.01,0-.03,0,.03,0,.05,0,.07-.01.02,0,.03-.02.05-.03.02-.01.04-.02.07-.03.03,0,.05,0,.06.01.02.01.03.03.03.05,0,.03,0,.04,0,.06,0,.02-.01.03,0,.05.01.02.03.02.06.03.02,0,.04,0,.06,0"/>
          <g>
            <path class="cls-6" d="m-.37,2.59c0,1.01,0,1.39-.07,1.44-.07.06-2.03,0-2.03.29s1.61.58,2.09.58c.65,0,.97-.29.97-.87v-1.44H-.37h0Z"/>
            <path class="cls-6" d="m-.37,2.87v.14c.32.05.65.05.97,0v-.14c-.32.05-.65.05-.97,0Z"/>
            <path class="cls-6" d="m-.37,2.59v.14c.32.05.65.05.97,0v-.14c-.32.05-.65.05-.97,0Z"/>
            <path class="cls-6" d="m-.37,2.73v.14c.32.05.65.05.97,0v-.14c-.32.05-.65.05-.97,0Z"/>
            <path class="cls-6" d="m-.37,3.02v.14c.32.05.65.05.97,0v-.14c-.32.05-.65.05-.97,0Z"/>
            <ellipse class="cls-8" cx=".02" cy="2.84" rx=".04" ry=".03"/>
            <ellipse class="cls-8" cx=".2" cy="2.84" rx=".04" ry=".03"/>
            <ellipse class="cls-8" cx=".37" cy="2.83" rx=".04" ry=".03"/>
            <ellipse class="cls-8" cx=".55" cy="2.81" rx=".04" ry=".03"/>
            <path class="cls-6" d="m-.37,3.31l.97.78m-.87-.78l.87.69m-.74-.66l.74.58M-.05,3.33l.65.49M.05,3.34l.55.4m-.45-.4l.45.32m-.35-.32l.35.23m-.26-.23l.26.17m-.16-.17l.16.12m-.06-.12l.06.06m-.97,0l.97.78m0-.86l-1.06.86m.97-.86l-.93.75m.81-.72l-.74.58m.64-.58l-.64.49m.55-.49l-.55.4m.45-.4l-.45.32M-.02,3.34l-.35.23m.26-.23l-.26.17m.16-.17l-.16.12m.06-.12l-.06.06m.97,0l-1.06.87m1.06-.78l-1.06.86m1.06-.78l-1.06.86m1.06-.78l-1.06.87m1.06-.78l-1.06.86m1.06-.78l-1.06.86m1.06-.78l-1.06.86m1.06-.78l-1.06.86m1.06-.78l-1,.81m1-.72l-.9.72m.87-.61l-.71.58m.68-.46l-.58.46m.52-.32l-.29.23m-.55-1.3l.93.75m-.93-.66l.93.75m-.93-.66l.9.72m-.9-.63l.9.72m-.9-.63l.87.69m-.9-.63l.87.69m-.87-.6l.81.63m-.84-.58l.81.63m-.84-.58l.77.61m-.77-.52l.74.58m-.74-.49l.65.52"/>
            <path class="cls-6" d="m-.37,3.16v.14c.32.05.65.05.97,0v-.14c-.32.05-.65.05-.97,0Z"/>
            <path class="cls-6" d="m-.47,4.34l.58.46m-.58-.37l.52.4m-.52-.32l.45.35m-.45-.26l.32.26m-.32-.17l.26.2m-.26-.12l.16.12"/>
            <ellipse class="cls-8" cx=".02" cy="3.27" rx=".04" ry=".03"/>
            <ellipse class="cls-8" cx=".2" cy="3.27" rx=".04" ry=".03"/>
            <ellipse class="cls-8" cx=".37" cy="3.26" rx=".04" ry=".03"/>
            <ellipse class="cls-8" cx=".55" cy="3.24" rx=".04" ry=".03"/>
            <path class="cls-6" d="m.59,2.64v-.15c-.15,0-.24-.09-.24-.17H-.13c0,.09-.1.17-.24.17v.14h.97Z"/>
            <path class="cls-4" d="m-.1,2.15h.41v.17H-.1v-.17Zm.04-.17h.34v.17H-.06v-.17Zm0-.17h.34v.17H-.06v-.17Zm.03-.23H.25v.23H-.03v-.23Zm-.01-.2h.3v.2H-.04v-.2Z"/>
            <ellipse class="cls-9" cx=".13" cy="1.19" rx=".4" ry=".27"/>
            <path class="cls-6" d="m.33,1.17c0,.08.1.2.1.2-.07.05-.19.09-.3.09s-.25-.02-.3-.09c0,0,.1-.13.1-.2s-.1-.17-.1-.17c.09-.06.19-.09.3-.09.11,0,.23.04.3.09,0,0-.1.1-.1.17H.33Z"/>
            <path class="cls-6" d="m.26,1.17c0,.08.1.23.1.23-.07.05-.12.06-.23.06s-.18,0-.23-.06C-.11,1.4,0,1.25,0,1.17s-.1-.2-.1-.2c.07-.05.12-.06.23-.06s.16,0,.23.06c0,0-.1.13-.1.2Z"/>
            <ellipse class="cls-9" cx=".53" cy="1.2" rx=".1" ry=".09"/>
            <ellipse class="cls-9" cx=".13" cy="1.2" rx=".1" ry=".09"/>
            <ellipse class="cls-9" cx=".13" cy=".91" rx=".1" ry=".09"/>
            <ellipse class="cls-9" cx=".39" cy="2.56" rx=".1" ry=".09"/>
            <path class="cls-6" d="m-.13,2.33h.48l-.24.26-.24-.26Z"/>
            <ellipse class="cls-9" cx=".11" cy="2.53" rx=".14" ry=".11"/>
          </g>
          <g>
            <path class="cls-7" d="m-.38,3.39H.28s.04.01.04.03v.11s-.02.03-.04.03H-.38s-.04-.01-.04-.03v-.11s.02-.03.04-.03Z"/>
            <path class="cls-7" d="m.55,3.25c-.09,0-.16.07-.16.15v.13c0,.08.07.15.16.15,0,0,0,0,0,0,.09,0,.16-.07.16-.15,0,0,0,0,0,0v-.13c0-.08-.07-.15-.16-.15,0,0,0,0,0,0Zm0,.06c-.05,0-.1.05-.1.12v.08c0,.07.04.12.1.12s.1-.05.1-.12v-.08c0-.07-.04-.12-.1-.12h0Zm-.84-.03c-.05,0-.1.05-.1.12v.13c0,.07.04.12.1.12s.1-.05.1-.12v-.13c0-.07-.04-.12-.1-.12H-.29Zm0-.06c-.09,0-.16.07-.16.15,0,0,0,0,0,0v.19c0,.08.07.15.16.15,0,0,0,0,0,0,.09,0,.16-.07.16-.15v-.19c0-.08-.07-.15-.16-.15,0,0,0,0,0,0H-.29Z"/>
            <path class="cls-1" d="m1.16,3.28c-.1,0-.18.06-.18.13v.15c0,.07.08.13.18.13s.17-.06.17-.14v-.15c0-.07-.08-.13-.17-.13Zm0-.06c-.16,0-.29.08-.29.17,0,0,0,0,0,0v.21c0,.09.12.17.28.17,0,0,0,0,0,0,.16,0,.29-.08.29-.17v-.21c0-.09-.12-.17-.29-.17,0,0,0,0,0,0h0Z"/>
            <path class="cls-7" d="m.63,3.39h.34s.02.01.02.03v.11s0,.03-.02.03h-.34s-.02-.01-.02-.03v-.11s0-.03.02-.03Z"/>
            <path class="cls-7" d="m.27,3.36h.2s.01.02.01.04v.15s0,.04-.01.04h-.2s-.01-.02-.01-.04v-.15s0-.04.01-.04Z"/>
            <path class="cls-7" d="m1.31,3.36h.37s.02.02.02.05v.19s-.01.05-.02.05h-.37s-.02-.02-.02-.05v-.19s.01-.05.02-.05Z"/>
          </g>
        </g>
      </g>
    </g>
  </g>
</svg>