<svg xmlns="http://www.w3.org/2000/svg" width="34" height="34" viewBox="0 0 34 34">
  <g id="Group_15264" data-name="Group 15264" transform="translate(0 0)">
    <rect id="Rectangle_2166" data-name="Rectangle 2166" width="34" height="34" transform="translate(0 0)" fill="#fff" opacity="0"/>
    <path id="noun-guarantee-4200277" d="M139.055,26.27a1.3,1.3,0,0,0-.663.216c-.2.112-.411.248-.614.388s-.4.282-.569.388a2.28,2.28,0,0,1-.331.179,2.46,2.46,0,0,1-.376.008c-.2-.009-.437-.03-.683-.049s-.495-.037-.728-.033a1.125,1.125,0,0,0-1.145.657c-.121.2-.229.428-.335.649s-.208.437-.3.612a2.43,2.43,0,0,1-.2.323,2.384,2.384,0,0,1-.322.2c-.175.09-.4.192-.618.3s-.447.218-.646.339a1.113,1.113,0,0,0-.659,1.139c0,.232.013.482.033.727s.04.485.049.681a2.38,2.38,0,0,1-.008.376,2.542,2.542,0,0,1-.184.33c-.107.166-.245.365-.384.568s-.277.412-.389.616a1.107,1.107,0,0,0,0,1.314c.112.2.25.414.389.617s.278.4.384.563a2.555,2.555,0,0,1,.184.33,2.431,2.431,0,0,1,.008.376c-.009.2-.03.44-.049.685s-.037.495-.033.727a1.113,1.113,0,0,0,.659,1.139c.118.071.245.139.374.2l-3.372,5.836a.418.418,0,0,0,.4.626l3.6-.293,1.546,3.257a.418.418,0,0,0,.737.031l3.374-5.831c.07.044.14.088.21.126a1.118,1.118,0,0,0,1.321,0c.08-.044.16-.094.241-.145l3.341,5.779h0a.418.418,0,0,0,.74-.031l1.545-3.253,3.6.29a.418.418,0,0,0,.394-.626l-3.344-5.78c.119-.061.236-.124.344-.189a1.113,1.113,0,0,0,.659-1.139c0-.232-.01-.482-.029-.727s-.044-.489-.053-.685a2.038,2.038,0,0,1,.012-.376,2.272,2.272,0,0,1,.18-.33c.106-.166.245-.36.384-.563s.28-.413.392-.617a1.12,1.12,0,0,0,0-1.314c-.112-.2-.253-.413-.392-.616s-.278-.4-.384-.568a2.355,2.355,0,0,1-.18-.33,2.264,2.264,0,0,1-.012-.376c.01-.2.034-.436.053-.681s.033-.495.029-.727a1.113,1.113,0,0,0-.659-1.139c-.2-.12-.423-.233-.646-.339s-.442-.208-.618-.3a2.419,2.419,0,0,1-.323-.2,2.437,2.437,0,0,1-.2-.323c-.09-.175-.192-.39-.3-.612s-.215-.451-.335-.649a1.125,1.125,0,0,0-1.145-.657c-.233,0-.482.014-.728.033s-.486.04-.683.049a2.4,2.4,0,0,1-.376-.008,2.291,2.291,0,0,1-.331-.179c-.166-.107-.366-.25-.569-.389s-.409-.275-.613-.388a1.28,1.28,0,0,0-.658-.216Zm0,.836c-.034,0,.1.025.253.111s.352.212.548.347.395.278.585.4a1.588,1.588,0,0,0,1.2.318c.226-.011.47-.031.707-.049s.468-.032.646-.029.308.046.278.029.075.073.167.225.2.361.3.575.2.437.307.637a1.974,1.974,0,0,0,.352.53,1.944,1.944,0,0,0,.528.347c.2.1.427.208.642.311s.42.206.572.3.242.193.225.163.029.1.033.278-.01.408-.029.646-.042.485-.053.71a1.931,1.931,0,0,0,.037.629,1.972,1.972,0,0,0,.286.567c.122.19.262.392.4.588s.262.387.348.543.114.292.114.258-.029.1-.114.257-.213.346-.348.543-.275.4-.4.588a1.545,1.545,0,0,0-.323,1.2c.011.225.034.468.053.706s.032.468.029.646-.05.307-.033.277-.073.075-.225.167-.357.2-.572.3-.441.208-.642.311a1.589,1.589,0,0,0-.88.873c-.1.2-.2.427-.307.641s-.206.419-.3.571-.2.242-.167.225-.1.029-.278.033-.408-.01-.646-.029-.482-.042-.707-.053a1.568,1.568,0,0,0-1.2.322c-.19.122-.388.265-.585.4s-.392.262-.548.347-.287.11-.253.11-.1-.024-.258-.11-.348-.213-.544-.347-.4-.278-.588-.4a1.571,1.571,0,0,0-1.2-.322c-.226.011-.47.035-.707.053s-.468.032-.646.029-.308-.05-.278-.033-.075-.073-.167-.225-.2-.356-.3-.571-.2-.441-.307-.641a1.94,1.94,0,0,0-.348-.526,1.969,1.969,0,0,0-.531-.347c-.2-.1-.427-.208-.642-.311s-.421-.206-.573-.3-.242-.2-.225-.167-.03-.1-.033-.277.01-.408.029-.646.043-.481.054-.706a1.545,1.545,0,0,0-.323-1.2c-.122-.19-.262-.392-.4-.588s-.262-.387-.348-.543-.115-.291-.115-.257.029-.1.115-.258.213-.346.348-.543.275-.4.4-.588a1.974,1.974,0,0,0,.286-.567,1.938,1.938,0,0,0,.037-.629c-.011-.225-.035-.473-.054-.71s-.032-.468-.029-.646.051-.307.033-.278.072-.071.224-.163.358-.2.573-.3.441-.208.642-.311a1.549,1.549,0,0,0,.879-.877c.1-.2.2-.422.307-.637s.206-.423.3-.575.2-.242.167-.225.1-.025.278-.029.408.01.646.029.482.038.707.049a1.591,1.591,0,0,0,1.2-.318c.19-.122.392-.265.588-.4s.388-.261.544-.347.292-.111.258-.111Zm0,2.706a5.724,5.724,0,1,0,4.3,9.5,5.627,5.627,0,0,0,1.43-3.778A5.735,5.735,0,0,0,139.053,29.812Zm0,.836a4.888,4.888,0,1,1-4.9,4.888A4.886,4.886,0,0,1,139.053,30.648Zm2.254,2.926h0a.418.418,0,0,0-.287.127l-2.754,2.788L137.088,35.3a.419.419,0,1,0-.595.589l1.477,1.486a.418.418,0,0,0,.6,0l3.049-3.09a.418.418,0,0,0-.308-.712Zm4.171,7.611,2.974,5.144-3.09-.25a.418.418,0,0,0-.414.237l-1.326,2.8-2.972-5.136c.081-.055.173-.119.244-.165a2.361,2.361,0,0,1,.331-.18,2.459,2.459,0,0,1,.376-.008c.2.009.437.03.683.049s.495.033.728.029a1.125,1.125,0,0,0,1.145-.657c.121-.2.229-.424.335-.646s.208-.441.3-.616a2.4,2.4,0,0,1,.2-.322,2.381,2.381,0,0,1,.323-.2c.047-.024.114-.054.167-.079Zm-12.817.015c.042.02.1.044.133.064a2.348,2.348,0,0,1,.322.2,2.4,2.4,0,0,1,.2.322c.09.175.192.394.3.616s.215.446.335.646a1.125,1.125,0,0,0,1.145.657c.233,0,.482-.01.728-.029s.486-.04.683-.049a2.4,2.4,0,0,1,.376.008,2.327,2.327,0,0,1,.331.18c.08.051.182.122.274.184l-3,5.188-1.329-2.8a.417.417,0,0,0-.41-.237l-3.093.253Z" transform="translate(-121.637 -21.328)" fill="#c48d35"/>
  </g>
</svg>
