<svg xmlns="http://www.w3.org/2000/svg" width="15.372" height="15.385" viewBox="0 0 15.372 15.385">
  <path id="Copy-Icon" d="M4.537,4.674v8.217a3.514,3.514,0,0,0,3.587,3.194h7.042a2.319,2.319,0,0,1-2.174,1.28H7.612A4.281,4.281,0,0,1,3,13.531V6.487A1.981,1.981,0,0,1,4.537,4.674ZM16.066,2a2.14,2.14,0,0,1,2.306,1.922v8.967a2.14,2.14,0,0,1-2.306,1.922H8.38a2.14,2.14,0,0,1-2.306-1.922V3.925A2.14,2.14,0,0,1,8.38,2Zm0,1.281H8.38a.713.713,0,0,0-.769.641v8.967a.713.713,0,0,0,.769.64h7.686a.713.713,0,0,0,.769-.64V3.925a.713.713,0,0,0-.769-.641Z" transform="translate(-3 -1.995)" fill="#e3afff"/>
</svg>
