<?xml version="1.0" encoding="UTF-8"?>
<svg id="Layer_1" data-name="Layer 1" xmlns="http://www.w3.org/2000/svg" xmlns:xlink="http://www.w3.org/1999/xlink" viewBox="0 0 22 22">
  <defs>
    <style>
      .cls-1, .cls-2, .cls-3, .cls-4, .cls-5 {
        stroke: #010101;
      }

      .cls-1, .cls-6 {
        fill: #ed2224;
      }

      .cls-1, .cls-4 {
        stroke-width: .02px;
      }

      .cls-1, .cls-4, .cls-5 {
        stroke-miterlimit: 4.27;
      }

      .cls-7, .cls-5 {
        fill: #fff;
      }

      .cls-2 {
        stroke-miterlimit: 4.27;
        stroke-width: .02px;
      }

      .cls-2, .cls-8, .cls-3, .cls-4 {
        fill: #f6eb16;
      }

      .cls-9 {
        fill: #243e90;
      }

      .cls-10 {
        fill: #186734;
      }

      .cls-3 {
        fill-rule: evenodd;
        stroke-linecap: round;
        stroke-linejoin: round;
        stroke-width: .03px;
      }

      .cls-11 {
        clip-path: url(#clippath);
      }

      .cls-12 {
        fill: none;
      }

      .cls-5 {
        stroke-width: .03px;
      }

      .cls-13 {
        fill: #010101;
      }
    </style>
    <clipPath id="clippath">
      <circle class="cls-12" cx="11" cy="11" r="11"/>
    </clipPath>
  </defs>
  <g class="cls-11">
    <g>
      <path class="cls-6" d="m8.07,0h17.59v21.99H8.07V0Z"/>
      <path class="cls-10" d="m-3.66,0h11.73v21.99H-3.66V0Z"/>
      <g>
        <path class="cls-3" d="m11.89,14.03c-1.48-.05-8.25-4.27-8.29-4.95l.37-.62c.67.98,7.59,5.09,8.27,4.94l-.35.63"/>
        <path class="cls-3" d="m3.89,8.38c-.13.36,1.77,1.53,4.05,2.92,2.29,1.39,4.26,2.24,4.4,2.13l.07-.13s-.09.06-.2.03c-.62-.18-2.23-.92-4.22-2.13-2-1.21-3.73-2.32-4-2.79-.02-.04-.03-.09-.03-.14h0l-.05.1h0s0,.01,0,.01Zm8.03,5.67s-.07.05-.16.04c-.55-.06-2.23-.87-4.21-2.06-2.31-1.38-4.21-2.64-4-2.97l.05-.1h0c-.18.56,3.76,2.82,3.99,2.96,2.28,1.41,4.21,2.24,4.37,2.02l-.06.11Z"/>
        <path class="cls-3" d="m8.08,9.5c1.48-.01,3.3-.2,4.35-.62l-.23-.37c-.62.34-2.45.57-4.14.6-1.99-.02-3.39-.21-4.1-.68l-.21.39c1.29.55,2.62.66,4.32.67"/>
        <path class="cls-3" d="m12.49,8.88c-.04.06-.72.29-1.73.47-.89.13-1.79.2-2.68.2-.86,0-1.72-.05-2.57-.16-1.06-.16-1.6-.39-1.81-.48l.05-.1c.58.23,1.13.37,1.77.47.85.11,1.7.17,2.56.17.89,0,1.79-.06,2.67-.2,1.03-.17,1.59-.38,1.68-.48l.07.12h0Zm-.2-.37c-.11.09-.67.29-1.65.44-.85.12-1.7.18-2.56.18-1.01,0-1.84-.07-2.46-.16-1-.13-1.53-.37-1.72-.43l.06-.1c.15.08.66.28,1.67.43.81.11,1.63.16,2.46.16.85,0,1.7-.06,2.54-.18.98-.14,1.52-.38,1.6-.45l.07.12Zm-9.06,2.76c.91.49,2.93.73,4.84.75,1.74,0,4-.27,4.85-.71l-.02-.49c-.27.41-2.69.81-4.85.8-2.15-.02-4.16-.35-4.82-.78v.44"/>
        <path class="cls-3" d="m12.96,11.21v.11c-.13.16-.93.38-1.92.55-.99.14-1.99.21-3,.2-.95,0-1.9-.06-2.84-.2-.7-.08-1.39-.27-2.03-.55v-.13c.44.29,1.64.51,2.05.58.72.11,1.65.19,2.83.19,1.23,0,2.22-.09,2.98-.2.72-.11,1.74-.38,1.94-.55h0Zm0-.41v.11c-.13.15-.93.38-1.92.55-.99.14-1.99.21-3,.21-.95,0-1.9-.06-2.84-.2-.7-.08-1.39-.27-2.03-.55v-.14c.44.3,1.65.51,2.05.58.94.14,1.88.2,2.83.2,1.23,0,2.22-.09,2.98-.21.72-.1,1.74-.37,1.94-.55Zm-4.9,3.15c-2.09,0-3.88-.57-4.26-.66l.27.43c1.28.46,2.64.68,4,.66,1.59-.05,2.98-.17,3.95-.65l.28-.45c-.66.32-2.93.67-4.26.67"/>
        <path class="cls-3" d="m12.14,13.62c-.04.06-.08.12-.13.18-.46.16-1.19.34-1.49.38-.81.15-1.63.23-2.46.23-1.85-.03-3.37-.39-4.08-.7l-.06-.1v-.02s.11.04.11.04c1.3.43,2.67.66,4.04.66.86,0,1.72-.1,2.41-.22,1.06-.22,1.49-.38,1.63-.45l.03-.02h0Zm.24-.4c-.03.05-.06.11-.09.16-.25.09-.92.28-1.89.42-.64.09-1.04.17-2.32.2-1.46-.01-2.91-.23-4.32-.64l-.05-.11c1.42.39,2.89.61,4.37.64,1.17-.02,1.67-.11,2.3-.2,1.14-.17,1.71-.37,1.88-.42,0,0,0,0,0,0l.12-.05h0Z"/>
        <path class="cls-3" d="m12.41,10.89c0,1.37-.7,2.61-1.26,3.15-.83.81-1.94,1.27-3.11,1.29-1.39.02-2.69-.88-3.05-1.28-.79-.84-1.24-1.94-1.26-3.09.08-1.5.67-2.55,1.53-3.27.83-.68,1.87-1.05,2.94-1.04,1.27.06,2.45.65,3.25,1.63.57.7.82,1.45.96,2.6h0Zm-4.36-4.7c2.67,0,4.84,2.15,4.86,4.82,0,2.67-2.17,4.84-4.84,4.84s-4.84-2.17-4.84-4.84c0-2.66,2.17-4.82,4.83-4.82"/>
        <path class="cls-3" d="m8.06,6.17c2.67,0,4.84,2.17,4.84,4.84s-2.17,4.84-4.83,4.84-4.84-2.17-4.84-4.84,2.17-4.84,4.84-4.84h0Zm-4.73,4.83c0,2.6,2.14,4.73,4.73,4.73s4.73-2.13,4.73-4.73-2.14-4.73-4.73-4.73-4.73,2.13-4.73,4.73Z"/>
        <path class="cls-3" d="m8.07,6.57c2.44,0,4.42,1.99,4.43,4.43,0,2.44-1.99,4.42-4.43,4.43-2.43,0-4.43-2-4.43-4.43.01-2.44,1.99-4.42,4.43-4.43h0Zm-4.32,4.43c0,2.38,1.95,4.32,4.32,4.32s4.32-1.95,4.32-4.32-1.95-4.32-4.32-4.32c-2.38.01-4.31,1.94-4.32,4.32Z"/>
        <path class="cls-3" d="m8.27,6.14h-.42v9.73h.41V6.14Z"/>
        <path class="cls-3" d="m8.22,6.09h.11v9.84h-.1V6.09h0Zm-.41,0h.11v9.84h-.11V6.09h0Z"/>
        <path class="cls-3" d="m12.91,11.19v-.36l-.29-.27-1.66-.44-2.39-.24-2.89.15-2.05.49-.41.31v.36l1.05-.47,2.49-.39h2.4l1.76.19,1.22.29.78.39Z"/>
        <path class="cls-3" d="m8.07,10.26c1.14,0,2.24.11,3.13.27.91.18,1.54.41,1.76.66v.13c-.27-.32-1.12-.55-1.79-.69-.87-.16-1.97-.27-3.11-.27s-2.31.12-3.17.28c-.69.14-1.61.41-1.72.68v-.13c.06-.18.75-.46,1.71-.66.87-.17,1.98-.28,3.19-.28h0Zm0-.42c1.05,0,2.1.09,3.13.27.91.18,1.54.41,1.76.67v.12c-.27-.32-1.12-.55-1.79-.68-.87-.17-1.97-.27-3.11-.27-1.06,0-2.12.09-3.17.28-.66.12-1.62.41-1.73.67v-.13c.06-.18.76-.47,1.71-.66.87-.17,1.98-.28,3.19-.28Zm-.03-2.12c1.8,0,3.37.25,4.09.62l.26.46c-.62-.34-2.32-.69-4.35-.64-1.65.01-3.42.18-4.31.66l.31-.52c.73-.38,2.44-.57,3.99-.57"/>
        <path class="cls-3" d="m8.07,8.1c.94-.02,1.88.05,2.81.2.73.14,1.43.34,1.53.45l.08.14c-.24-.16-.85-.33-1.63-.48s-1.77-.2-2.79-.19c-1.16,0-2.06.05-2.83.19-.53.07-1.05.23-1.53.47l.08-.14c.27-.14.7-.31,1.42-.44.8-.15,1.71-.19,2.86-.19Zm0-.41c.98,0,1.95.05,2.71.18.49.07.96.23,1.4.46l.11.18c-.19-.22-.92-.42-1.56-.53-.75-.13-1.68-.18-2.66-.19-.91,0-1.82.06-2.73.2-.47.07-.93.21-1.36.42l.1-.15c.27-.14.7-.27,1.24-.37.91-.14,1.83-.21,2.74-.2h0Zm2.4,5.33c-.79-.14-1.6-.2-2.41-.18-3,.04-3.97.62-4.09.79l-.23-.37c.77-.55,2.4-.86,4.33-.83,1,.02,1.87.09,2.59.23l-.21.37"/>
        <path class="cls-3" d="m8.05,12.78c.83.01,1.65.05,2.44.19l-.05.1c-.73-.14-1.52-.18-2.38-.18-1.11,0-2.23.1-3.21.38-.31.09-.82.28-.87.45l-.05-.09c.02-.1.32-.3.9-.46,1.12-.32,2.16-.38,3.23-.38h0Zm.04-.42c.88,0,1.76.08,2.62.23l-.06.11c-.85-.16-1.71-.23-2.57-.22-1.11,0-2.29.08-3.36.39-.34.1-.94.32-.96.49l-.05-.1c0-.16.53-.36.99-.49,1.08-.32,2.26-.39,3.38-.4Z"/>
        <path class="cls-3" d="m12.35,13.31l-.36.56-1.04-.92-2.68-1.81-3.03-1.66-1.57-.54.33-.62.11-.06.98.24,3.23,1.66,1.86,1.17,1.56,1.12.64.73-.02.11Z"/>
        <path class="cls-3" d="m3.61,8.96c.27-.18,2.3.71,4.43,2,2.11,1.28,4.14,2.73,3.95,3l-.06.1-.03.02s.04-.05,0-.14c-.09-.3-1.53-1.44-3.91-2.88-2.32-1.38-4.26-2.21-4.44-1.97l.06-.12Zm8.81,4.35c.17-.35-1.7-1.76-4.04-3.14-2.38-1.35-4.1-2.15-4.42-1.91l-.06.13s0,0,.02-.02c.05-.05.15-.05.19-.05.54,0,2.08.72,4.25,1.96.95.55,4.01,2.52,4,3.07,0,.05,0,.05-.01.08l.08-.12h0Z"/>
      </g>
      <g>
        <path class="cls-5" d="m5.17,11.54c0,.77.31,1.5.86,2.04.54.55,1.27.86,2.04.86.77,0,1.51-.31,2.05-.85.54-.54.85-1.28.85-2.04v-3.87h-5.8s0,3.87,0,3.87h0Z"/>
        <path class="cls-1" d="m5.27,11.54c0,.73.3,1.44.82,1.95.52.52,1.23.82,1.96.82.74,0,1.44-.29,1.96-.81.52-.52.82-1.22.82-1.95v-3.76h-5.56v3.75m4.45-2.62v2.64c0,.44-.18.86-.49,1.17-.31.31-.73.49-1.17.49-.46,0-.86-.2-1.17-.5-.31-.31-.49-.73-.49-1.17v-2.64h3.32Z"/>
        <g id="e">
          <g id="d">
            <path class="cls-8" d="m5.63,8.77c0-.27.2-.33.2-.33,0,0,.21.07.21.34h-.41"/>
            <path class="cls-4" d="m5.47,8.45l-.03.31h.21c0-.25.2-.29.2-.29,0,0,.2.05.2.29h.21l-.04-.31h-.73Zm-.05.31h.83s.03.01.03.03c0,.02-.01.04-.03.04h-.83s-.03-.01-.03-.04c0-.02.01-.03.03-.03h0Z"/>
            <path class="cls-4" d="m5.72,8.75c0-.16.11-.21.11-.21,0,0,.11.05.11.21h-.22m-.28-.44h.8s.03.02.03.04c0,.01-.01.03-.03.03h-.8s-.03-.01-.03-.03c0-.01.01-.03.03-.03h0Zm.02.07h.75s.03.01.03.03-.01.03-.03.03h-.76s-.03-.01-.03-.03,0-.03.03-.03h0Zm.24-.52h.06v.04h.04v-.04h.06v.04h.04v-.05h.06v.1s0,.03-.02.03h-.22s-.03,0-.03-.02v-.1h0Zm.22.13v.31s-.2,0-.2,0v-.32h.2"/>
            <path id="a" class="cls-4" d="m5.67,8.15v.17h-.2v-.17h.2Z"/>
            <path id="a-2" data-name="a" class="cls-4" d="m6.19,8.15v.17h-.2v-.17h.2Z"/>
            <path id="b" class="cls-4" d="m5.44,8.02h.06v.05h.04v-.05h.06v.05h.04v-.05h.06v.1s0,.03-.02.03h-.21s-.03-.01-.03-.03h0v-.1h0Z"/>
            <path id="b-2" data-name="b" class="cls-4" d="m5.96,8.02h.06v.05h.04v-.05h.06v.05h.04v-.05h.06v.1s0,.03-.02.03h-.21s-.03-.01-.03-.03h0v-.1h0Z"/>
            <path class="cls-13" d="m5.82,8.1s.04-.03.04,0v.08h-.04v-.08"/>
            <path id="c" class="cls-13" d="m5.56,8.21s.04-.03.04,0v.06h-.04v-.06"/>
            <path id="c-2" data-name="c" class="cls-13" d="m6.07,8.21s.04-.03.04,0v.06h-.04v-.06"/>
          </g>
          <g id="d-2" data-name="d">
            <path class="cls-8" d="m5.63,11.04c0-.27.2-.33.2-.33,0,0,.21.07.21.34h-.41"/>
            <path class="cls-4" d="m5.47,10.71l-.03.31h.21c0-.25.2-.29.2-.29,0,0,.2.05.2.29h.21l-.04-.31h-.73Zm-.05.31h.83s.03.01.03.03c0,.02-.01.04-.03.04h-.83s-.03-.01-.03-.04c0-.02.01-.03.03-.03h0Z"/>
            <path class="cls-4" d="m5.72,11.02c0-.16.11-.21.11-.21,0,0,.11.05.11.21h-.22m-.28-.44h.8s.03.02.03.04c0,.01-.01.03-.03.03h-.8s-.03-.01-.03-.03c0-.01.01-.03.03-.03h0Zm.02.07h.75s.03.01.03.03-.01.03-.03.03h-.76s-.03-.01-.03-.03,0-.03.03-.03h0Zm.24-.52h.06v.04h.04v-.04h.06v.04h.04v-.05h.06v.1s0,.03-.02.03h-.22s-.03,0-.03-.02v-.1h0Zm.22.13v.31s-.2,0-.2,0v-.32h.2"/>
            <path id="a-3" data-name="a" class="cls-4" d="m5.67,10.41v.17h-.2v-.17h.2Z"/>
            <path id="a-4" data-name="a" class="cls-4" d="m6.19,10.41v.17h-.2v-.17h.2Z"/>
            <path id="b-3" data-name="b" class="cls-4" d="m5.44,10.28h.06v.05h.04v-.05h.06v.05h.04v-.05h.06v.1s0,.03-.02.03h-.21s-.03-.01-.03-.03h0v-.1h0Z"/>
            <path id="b-4" data-name="b" class="cls-4" d="m5.96,10.28h.06v.05h.04v-.05h.06v.05h.04v-.05h.06v.1s0,.03-.02.03h-.21s-.03-.01-.03-.03h0v-.1h0Z"/>
            <path class="cls-13" d="m5.82,10.36s.04-.03.04,0v.08h-.04v-.08"/>
            <path id="c-3" data-name="c" class="cls-13" d="m5.56,10.47s.04-.03.04,0v.06h-.04v-.06"/>
            <path id="c-4" data-name="c" class="cls-13" d="m6.07,10.47s.04-.03.04,0v.06h-.04v-.06"/>
          </g>
          <g id="d-3" data-name="d">
            <path class="cls-8" d="m6.52,13.39c-.19-.19-.1-.37-.1-.37,0,0,.2-.1.39.09l-.29.29"/>
            <path class="cls-2" d="m6.17,13.28l.19.24.14-.15c-.18-.18-.07-.35-.07-.35,0,0,.18-.1.35.06l.14-.15-.25-.19-.52.52h0Zm.19.26l.59-.59s.03-.01.04,0c.02.02.02.04,0,.05l-.59.59s-.03.01-.05,0c-.01-.01-.01-.03,0-.05h0Z"/>
            <path class="cls-2" d="m6.56,13.32c-.11-.11-.07-.22-.07-.22,0,0,.11-.05.22.06l-.16.16m-.51-.11l.56-.57s.03,0,.05,0c.01.01.01.03,0,.04l-.56.57s-.03.01-.04,0c-.01-.01-.01-.03,0-.04h0Zm.07.04l.53-.53s.03-.01.04,0,.01.03,0,.04l-.53.54s-.03.01-.04,0-.02-.03,0-.04h0Zm-.2-.54l.04-.04.03.03.03-.03-.03-.03.04-.05.03.03.03-.03-.03-.03.04-.04.07.07s.01.03,0,.04l-.15.15s-.03.01-.04,0l-.07-.07h0Zm.25-.07l.23.21-.15.15-.22-.23.13-.13"/>
            <path id="a-5" data-name="a" class="cls-2" d="m6.1,12.93l.12.12-.14.14-.12-.12.14-.14Z"/>
            <path id="a-6" data-name="a" class="cls-2" d="m6.47,12.56l.12.12-.14.14-.12-.12.14-.14Z"/>
            <path id="b-5" data-name="b" class="cls-2" d="m5.85,13l.04-.04.03.03.03-.03-.03-.03.04-.04.03.03.03-.03-.03-.03.04-.04.07.07s.01.03,0,.04l-.15.15s-.03.01-.04,0h0s-.07-.07-.07-.07h0Z"/>
            <path id="b-6" data-name="b" class="cls-2" d="m6.21,12.63l.04-.04.03.03.03-.03-.03-.03.04-.04.03.03.03-.03-.03-.03.04-.04.07.07s.01.03,0,.04l-.15.15s-.03.01-.04,0h0s-.07-.07-.07-.07h0Z"/>
            <path class="cls-13" d="m6.17,12.79s.01-.05.03-.03l.06.06-.03.03-.06-.06"/>
            <path id="c-5" data-name="c" class="cls-13" d="m6.06,13.05s0-.05.03-.03l.04.04-.03.03-.04-.04"/>
            <path id="c-6" data-name="c" class="cls-13" d="m6.42,12.68s0-.05.03-.03l.04.04-.03.03-.04-.04"/>
          </g>
        </g>
        <g id="d-4" data-name="d">
          <path class="cls-8" d="m7.87,8.77c0-.27.2-.33.2-.33,0,0,.21.07.21.34h-.41"/>
          <path class="cls-4" d="m7.7,8.45l-.03.31h.21c0-.25.2-.29.2-.29,0,0,.2.05.2.29h.21l-.04-.31h-.73Zm-.05.31h.83s.03.01.03.03c0,.02-.01.04-.03.04h-.83s-.03-.01-.03-.04c0-.02.01-.03.03-.03h0Z"/>
          <path class="cls-4" d="m7.96,8.75c0-.16.11-.21.11-.21,0,0,.11.05.11.21h-.22m-.28-.44h.8s.03.02.03.04c0,.01-.01.03-.03.03h-.8s-.03-.01-.03-.03c0-.01.01-.03.03-.03h0Zm.02.07h.75s.03.01.03.03-.01.03-.03.03h-.76s-.03-.01-.03-.03,0-.03.03-.03h0Zm.24-.52h.06v.04h.04v-.04h.06v.04h.04v-.05h.06v.1s0,.03-.02.03h-.22s-.03,0-.03-.02v-.1h0Zm.22.13v.31s-.2,0-.2,0v-.32h.2"/>
          <path id="a-7" data-name="a" class="cls-4" d="m7.91,8.15v.17h-.2v-.17h.2Z"/>
          <path id="a-8" data-name="a" class="cls-4" d="m8.42,8.15v.17h-.2v-.17h.2Z"/>
          <path id="b-7" data-name="b" class="cls-4" d="m7.68,8.02h.06v.05h.04v-.05h.06v.05h.04v-.05h.06v.1s0,.03-.02.03h-.21s-.03-.01-.03-.03h0v-.1h0Z"/>
          <path id="b-8" data-name="b" class="cls-4" d="m8.2,8.02h.06v.05h.04v-.05h.06v.05h.04v-.05h.06v.1s0,.03-.02.03h-.21s-.03-.01-.03-.03h0v-.1h0Z"/>
          <path class="cls-13" d="m8.05,8.1s.04-.03.04,0v.08h-.04v-.08"/>
          <path id="c-7" data-name="c" class="cls-13" d="m7.79,8.21s.04-.03.04,0v.06h-.04v-.06"/>
          <path id="c-8" data-name="c" class="cls-13" d="m8.31,8.21s.04-.03.04,0v.06h-.04v-.06"/>
        </g>
        <g id="e-2" data-name="e">
          <g id="d-5" data-name="d">
            <path class="cls-8" d="m10.49,8.77c0-.27-.2-.33-.2-.33,0,0-.21.07-.21.34h.41"/>
            <path class="cls-4" d="m10.66,8.45l.03.31h-.21c0-.25-.2-.29-.2-.29,0,0-.2.05-.2.29h-.21l.04-.31h.73Zm.05.31h-.83s-.03.01-.03.03c0,.02.01.04.03.04h.83s.03-.01.03-.04c0-.02-.01-.03-.03-.03h0Z"/>
            <path class="cls-4" d="m10.4,8.75c0-.16-.11-.21-.11-.21,0,0-.11.05-.11.21h.22m.28-.44h-.8s-.03.02-.03.04c0,.01.01.03.03.03h.8s.03-.01.03-.03c0-.01-.01-.03-.03-.03h0Zm-.02.07h-.75s-.03.01-.03.03.01.03.03.03h.76s.03-.01.03-.03,0-.03-.03-.03h0Zm-.24-.52h-.06v.04h-.04v-.04h-.06v.04h-.04v-.05h-.06v.1s0,.03.02.03h.22s.03,0,.03-.02v-.1h0Zm-.22.13v.31s.2,0,.2,0v-.32h-.2"/>
            <path id="a-9" data-name="a" class="cls-4" d="m10.45,8.15v.17h.2v-.17h-.2Z"/>
            <path id="a-10" data-name="a" class="cls-4" d="m9.93,8.15v.17h.2v-.17h-.2Z"/>
            <path id="b-9" data-name="b" class="cls-4" d="m10.68,8.02h-.06v.05h-.04v-.05h-.06v.05h-.04v-.05h-.06v.1s0,.03.02.03h.21s.03-.01.03-.03h0v-.1h0Z"/>
            <path id="b-10" data-name="b" class="cls-4" d="m10.16,8.02h-.06v.05h-.04v-.05h-.06v.05h-.04v-.05h-.06v.1s0,.03.02.03h.21s.03-.01.03-.03h0v-.1h0Z"/>
            <path class="cls-13" d="m10.31,8.1s-.04-.03-.04,0v.08h.04v-.08"/>
            <path id="c-9" data-name="c" class="cls-13" d="m10.57,8.21s-.04-.03-.04,0v.06h.04v-.06"/>
            <path id="c-10" data-name="c" class="cls-13" d="m10.05,8.21s-.04-.03-.04,0v.06h.04v-.06"/>
          </g>
          <g id="d-6" data-name="d">
            <path class="cls-8" d="m10.49,11.04c0-.27-.2-.33-.2-.33,0,0-.21.07-.21.34h.41"/>
            <path class="cls-4" d="m10.66,10.71l.03.31h-.21c0-.25-.2-.29-.2-.29,0,0-.2.05-.2.29h-.21l.04-.31h.73Zm.05.31h-.83s-.03.01-.03.03c0,.02.01.04.03.04h.83s.03-.01.03-.04c0-.02-.01-.03-.03-.03h0Z"/>
            <path class="cls-4" d="m10.4,11.02c0-.16-.11-.21-.11-.21,0,0-.11.05-.11.21h.22m.28-.44h-.8s-.03.02-.03.04c0,.01.01.03.03.03h.8s.03-.01.03-.03c0-.01-.01-.03-.03-.03h0Zm-.02.07h-.75s-.03.01-.03.03.01.03.03.03h.76s.03-.01.03-.03,0-.03-.03-.03h0Zm-.24-.52h-.06v.04h-.04v-.04h-.06v.04h-.04v-.05h-.06v.1s0,.03.02.03h.22s.03,0,.03-.02v-.1h0Zm-.22.13v.31s.2,0,.2,0v-.32h-.2"/>
            <path id="a-11" data-name="a" class="cls-4" d="m10.45,10.41v.17h.2v-.17h-.2Z"/>
            <path id="a-12" data-name="a" class="cls-4" d="m9.93,10.41v.17h.2v-.17h-.2Z"/>
            <path id="b-11" data-name="b" class="cls-4" d="m10.68,10.28h-.06v.05h-.04v-.05h-.06v.05h-.04v-.05h-.06v.1s0,.03.02.03h.21s.03-.01.03-.03h0v-.1h0Z"/>
            <path id="b-12" data-name="b" class="cls-4" d="m10.16,10.28h-.06v.05h-.04v-.05h-.06v.05h-.04v-.05h-.06v.1s0,.03.02.03h.21s.03-.01.03-.03h0v-.1h0Z"/>
            <path class="cls-13" d="m10.31,10.36s-.04-.03-.04,0v.08h.04v-.08"/>
            <path id="c-11" data-name="c" class="cls-13" d="m10.57,10.47s-.04-.03-.04,0v.06h.04v-.06"/>
            <path id="c-12" data-name="c" class="cls-13" d="m10.05,10.47s-.04-.03-.04,0v.06h.04v-.06"/>
          </g>
          <g id="d-7" data-name="d">
            <path class="cls-8" d="m9.61,13.39c.19-.19.1-.37.1-.37,0,0-.2-.1-.39.09l.29.29"/>
            <path class="cls-2" d="m9.96,13.28l-.19.24-.14-.15c.18-.18.07-.35.07-.35,0,0-.18-.1-.35.06l-.14-.15.25-.19.52.52h0Zm-.19.26l-.59-.59s-.03-.01-.04,0c-.02.02-.02.04,0,.05l.59.59s.03.01.05,0c.01-.01.01-.03,0-.05h0Z"/>
            <path class="cls-2" d="m9.56,13.32c.11-.11.07-.22.07-.22,0,0-.11-.05-.22.06l.16.16m.51-.11l-.56-.57s-.03,0-.05,0c-.01.01-.01.03,0,.04l.56.57s.03.01.04,0c.01-.01.01-.03,0-.04h0Zm-.07.04l-.53-.53s-.03-.01-.04,0-.01.03,0,.04l.53.54s.03.01.04,0,.02-.03,0-.04h0Zm.2-.54l-.04-.04-.03.03-.03-.03.03-.03-.04-.05-.03.03-.03-.03.03-.03-.04-.04-.07.07s-.01.03,0,.04l.15.15s.03.01.04,0l.07-.07h0Zm-.25-.07l-.23.21.15.15.22-.23-.13-.13"/>
            <path id="a-13" data-name="a" class="cls-2" d="m10.03,12.93l-.12.12.14.14.12-.12-.14-.14Z"/>
            <path id="a-14" data-name="a" class="cls-2" d="m9.66,12.56l-.12.12.14.14.12-.12-.14-.14Z"/>
            <path id="b-13" data-name="b" class="cls-2" d="m10.28,13l-.04-.04-.03.03-.03-.03.03-.03-.04-.04-.03.03-.03-.03.03-.03-.04-.04-.07.07s-.01.03,0,.04l.15.15s.03.01.04,0h0s.07-.07.07-.07h0Z"/>
            <path id="b-14" data-name="b" class="cls-2" d="m9.91,12.63l-.04-.04-.03.03-.03-.03.03-.03-.04-.04-.03.03-.03-.03.03-.03-.04-.04-.07.07s-.01.03,0,.04l.15.15s.03.01.04,0h0s.07-.07.07-.07h0Z"/>
            <path class="cls-13" d="m9.96,12.79s-.01-.05-.03-.03l-.06.06.03.03.06-.06"/>
            <path id="c-13" data-name="c" class="cls-13" d="m10.07,13.05s0-.05-.03-.03l-.04.04.03.03.04-.04"/>
            <path id="c-14" data-name="c" class="cls-13" d="m9.7,12.68s0-.05-.03-.03l-.04.04.03.03.04-.04"/>
          </g>
        </g>
        <g id="f">
          <path class="cls-9" d="m7.71,11.12c0,.1.04.2.11.28.07.07.16.12.26.12.1,0,.2-.05.26-.12.07-.08.11-.18.11-.28v-.53h-.73v.53"/>
          <circle class="cls-7" cx="7.88" cy="10.79" r=".07"/>
          <circle class="cls-7" cx="8.28" cy="10.79" r=".07"/>
          <circle class="cls-7" cx="8.08" cy="10.99" r=".07"/>
          <circle class="cls-7" cx="7.88" cy="11.19" r=".07"/>
          <circle class="cls-7" cx="8.28" cy="11.19" r=".07"/>
        </g>
        <g id="f-2" data-name="f">
          <path class="cls-9" d="m7.71,9.85c0,.1.04.2.11.28.07.07.16.12.26.12.1,0,.2-.05.26-.12.07-.08.11-.18.11-.28v-.53h-.73v.53"/>
          <circle class="cls-7" cx="7.88" cy="9.52" r=".07"/>
          <circle class="cls-7" cx="8.28" cy="9.52" r=".07"/>
          <circle class="cls-7" cx="8.08" cy="9.72" r=".07"/>
          <circle class="cls-7" cx="7.88" cy="9.92" r=".07"/>
          <circle class="cls-7" cx="8.28" cy="9.92" r=".07"/>
        </g>
        <g id="f-3" data-name="f">
          <path class="cls-9" d="m6.69,11.12c0,.1.04.2.11.28.07.07.16.12.26.12.1,0,.2-.05.26-.12.07-.08.11-.18.11-.28v-.53h-.73v.53"/>
          <circle class="cls-7" cx="6.86" cy="10.79" r=".07"/>
          <circle class="cls-7" cx="7.27" cy="10.79" r=".07"/>
          <circle class="cls-7" cx="7.06" cy="10.99" r=".07"/>
          <circle class="cls-7" cx="6.86" cy="11.19" r=".07"/>
          <circle class="cls-7" cx="7.27" cy="11.19" r=".07"/>
        </g>
        <g id="f-4" data-name="f">
          <path class="cls-9" d="m8.72,11.12c0,.1.04.2.11.28.07.07.16.12.26.12.1,0,.2-.05.26-.12.07-.08.11-.18.11-.28v-.53h-.73v.53"/>
          <circle class="cls-7" cx="8.89" cy="10.79" r=".07"/>
          <circle class="cls-7" cx="9.3" cy="10.79" r=".07"/>
          <circle class="cls-7" cx="9.09" cy="10.99" r=".07"/>
          <circle class="cls-7" cx="8.89" cy="11.19" r=".07"/>
          <circle class="cls-7" cx="9.3" cy="11.19" r=".07"/>
        </g>
        <g id="f-5" data-name="f">
          <path class="cls-9" d="m7.71,12.38c0,.1.04.2.11.28.07.07.16.12.26.12.1,0,.2-.05.26-.12.07-.08.11-.18.11-.28v-.53h-.73v.53"/>
          <circle class="cls-7" cx="7.88" cy="12.05" r=".07"/>
          <circle class="cls-7" cx="8.28" cy="12.05" r=".07"/>
          <circle class="cls-7" cx="8.08" cy="12.25" r=".07"/>
          <circle class="cls-7" cx="7.88" cy="12.45" r=".07"/>
          <circle class="cls-7" cx="8.28" cy="12.45" r=".07"/>
        </g>
      </g>
    </g>
  </g>
</svg>