<svg xmlns="http://www.w3.org/2000/svg" width="35" height="35" viewBox="0 0 35 35">
  <g id="Group_15265" data-name="Group 15265" transform="translate(-0.47 0)">
    <rect id="Rectangle_2166" data-name="Rectangle 2166" width="35" height="35" transform="translate(0.47 0)" fill="#fff" opacity="0"/>
    <path id="Path_4459" data-name="Path 4459" d="M150.918,75.545a11.5,11.5,0,0,1-21.724,1.638l-.157.773h0a.469.469,0,1,1-.92-.184l.515-2.434a.475.475,0,0,1,.92-.023,10.584,10.584,0,0,0,20.5,0,.45.45,0,1,1,.87.23Zm-21.95-5.177a.491.491,0,0,0,.115,0,.46.46,0,0,0,.46-.345,10.584,10.584,0,0,1,20.5,0,.461.461,0,1,0,.92-.042l.382-2.333h0a.466.466,0,1,0-.92-.147l-.087.538h0a11.5,11.5,0,0,0-21.673,1.753.46.46,0,0,0,.308.575Zm15.871-3.221a.46.46,0,0,1,.46.46V77.731a.46.46,0,0,1-.46.46H134.716a.46.46,0,0,1-.46-.46V67.608a.46.46,0,0,1,.46-.46Zm-6.442.92v2.347a.574.574,0,0,1,.46-.046l.957.46.957-.46a.46.46,0,0,1,.391,0v-2.3Zm5.982,0h-2.3v3.3a.46.46,0,0,1-.759.35l-.423-.359-.893.423h0a.46.46,0,0,1-.4,0l-.893-.46-.483.423a.462.462,0,0,1-.75-.359V68.068h-2.3v9.2h9.2Z" transform="translate(-121.83 -54.85)" fill="#c48d35"/>
  </g>
</svg>
