<?xml version="1.0" encoding="UTF-8"?>
<svg id="Layer_1" data-name="Layer 1" xmlns="http://www.w3.org/2000/svg" xmlns:xlink="http://www.w3.org/1999/xlink" viewBox="0 0 22 22">
  <defs>
    <style>
      .cls-1 {
        fill: #fff;
      }

      .cls-1, .cls-2 {
        fill-rule: evenodd;
      }

      .cls-2 {
        fill: #185e31;
      }

      .cls-3 {
        clip-path: url(#clippath-1);
      }

      .cls-4 {
        clip-path: url(#clippath);
      }

      .cls-5 {
        fill: none;
      }
    </style>
    <clipPath id="clippath">
      <circle class="cls-5" cx="11" cy="11" r="11"/>
    </clipPath>
    <clipPath id="clippath-1">
      <rect class="cls-5" x="-3.74" y="-.06" width="29.49" height="22.12"/>
    </clipPath>
  </defs>
  <g class="cls-4">
    <g class="cls-3">
      <g>
        <path class="cls-2" d="m-5.59-.06H27.59v22.12H-5.59V-.06Z"/>
        <path class="cls-1" d="m2.77,6.21c-.03.52-.09,1.43.36,1.52.53.05.24-.9.43-1.07.03-.09.1-.09.1.02v.81c0,.26.17.34.3.39.14,0,.23,0,.29.13l.07,1.4s.32.1.34-.78c.01-.52-.1-.95-.03-1.05,0-.1.13-.1.22-.06.14.1.2.22.41.17.33-.1.53-.25.53-.51,0-.25-.06-.49-.15-.72.02-.04-.06-.16-.04-.2.06.1.15.09.16,0-.06-.18-.14-.36-.28-.43-.12-.1-.29-.09-.35.13-.03.25.09.54.26.78.04.09.09.25.07.38-.1.06-.19.03-.27-.05,0,0-.26-.19-.26-.24.07-.44.01-.49-.03-.62-.03-.17-.11-.22-.17-.34-.06-.07-.15-.07-.19,0-.12.2-.06.63.02.82.06.18.15.29.11.29-.03.1-.11.07-.16-.04-.06-.25-.09-.5-.09-.75-.02-.2-.05-.62-.18-.73-.08-.1-.19-.05-.24.04-.01.19,0,.39.01.58.09.32.12.6.16.93.01.44-.25.19-.24-.03.06-.28.05-.56-.01-.84-.04-.11-.09-.14-.2-.12-.08,0-.29.23-.35.62,0,0-.05.2-.07.38-.03.2-.16.35-.25-.03-.08-.27-.13-.93-.26-.78h0Z"/>
        <path class="cls-1" d="m4.22,8.33l-1.38.67c.01-.32.65-.88,1.09-.89.28,0,.21.11.29.22h0Z"/>
        <path class="cls-1" d="m3.97,8.76c-.73,1.88,1.71,2.14,1.98.08.03-.09.13-.17.15-.03-.06,1.87-1.88,2-2.19,1.41-.07-.2-.11-.42-.11-.63-.04-.37-.24-.22-.27.14-.03.2-.02.26-.02.45.1,1.48,2.45.84,2.83-.38.2-.67-.03-1.17.07-1.17.23.25.56.03.64-.05.03-.04.11-.07.16-.02.18.13.5.07.57-.16.04-.23.07-.46.08-.7-.15.04-.26.07-.27.14l-.03.2c-.01.06-.14.06-.15-.02-.06-.26-.29-.29-.43.11-.09.08-.26.1-.28-.02.02-.27-.09-.3-.3-.18l-.21-1.56c.09,0,.17.06.25-.04-.09-.28-.28-.85-.39-.89-.05-.06-.09-.02-.16,0-.11.03-.22.13-.18.32.13.81.22,1.43.35,2.25.02.09-.06.22-.16.2-.17-.12-.22-.35-.52-.35-.22,0-.46.24-.49.46-.04.18-.05.38,0,.53.15.18.33.16.49.13.13-.06.24-.19.29-.16.03.04,0,.47-.62.8-.38.17-.68.21-.84-.1-.1-.19,0-.92-.24-.76Z"/>
        <path class="cls-1" d="m7.07,6.85c.14-.05.83-.85.83-.85l-.1-.09s-.03-.06,0-.1c.17-.1.12-.32.03-.42-.12-.06-.26-.06-.38,0-.12.12-.15.3-.05.41.09.04.18.14.12.19-.29.3-1.06.83-.97.84.02.03.5.03.51,0h0Zm-4.19,2.81c-.26.41-.28,1.03-.14,1.22.08.09.2.13.29.1.16-.07.24-.4.2-.52-.06-.09-.1-.1-.16-.03-.11.23-.16.07-.17-.06-.01-.22,0-.44.03-.66.03-.18,0-.13-.06-.05Zm11.11-.66c-.25-.54-.6-1.08-.71-1.28-.34-.53-.69-1.05-1.07-1.56-.27-.32.44.13-.09-.51l-.38-.32c-.09-.06-.29-.17-.33,0-.02.16,0,.25.02.38.02.09.15.24.22.32.89,1.17,1.66,2.42,2.32,3.74.11-.06.09-.7.02-.79Z"/>
        <path class="cls-1" d="m12.88,10.81c-.05.06.12.29.35.29.37-.04.7-.25,1-.8.12-.18.2-.39.23-.61.04-1.05-.05-2.1-.25-3.13-.01-.09,0-.19,0-.22.03-.03.11,0,.15-.07.06-.06-.17-.6-.3-.81-.04-.1-.06-.16-.14,0-.09.18-.14.38-.13.59.18,1.23.23,2.31.35,3.54.01.12,0,.29-.09.36-.33.36-.72.65-1.17.85h0Zm5.03,0c-.27.16-.27.33-.05.34.37-.04.81-.07,1.11-.53.11-.22.17-.45.18-.69.05-1.03-.01-2.07-.2-3.08,0-.09-.05-.29-.03-.32.03-.06.15,0,.19-.06.06-.06-.32-.55-.45-.76-.04-.1-.06-.16-.14,0-.09.18-.11.39-.08.59.2,1.34.35,2.34.38,3.53-.02.11-.02.17-.07.32-.12.15-.25.34-.37.43-.12.09-.38.17-.46.24h0Z"/>
        <path class="cls-1" d="m18.12,9.6c0-.32,0-.58,0-.82,0-.2-.05-.4-.13-.58-.08-.18-.03-.32-.07-.51-.03-.19-.03-.48-.08-.7-.02-.09-.06-.37-.05-.4.02-.06.1,0,.15-.07.06-.06-.22-.78-.35-.98-.05-.09-.14-.06-.25.09-.11.1-.07.32-.03.53.26,1.4.47,2.66.42,3.99-.02.11.39-.34.39-.55h0Zm-1.97-1.73c-.17,0-.52-.33-.62-.52-.03-.09-.03-.19.02-.28.06-.04.16-.09.23-.04,0,0,.07.1.06.12.09.04.13.02.14-.02,0-.06-.03-.1-.03-.17.04-.2.26-.23.35-.1.06.08.09.24.09.35,0,.06-.09,0-.14,0-.05.02-.06.08-.06.13,0,.14-.03.37-.03.54h0Zm-3.1,2.07c.04-.42-.02-1.18-.02-1.43-.02-.64-.08-1.29-.16-1.93-.05-.36.15.04.12-.17-.06-.36-.26-.6-.5-.93-.07-.11-.07-.13-.19.03-.13.29-.02.49.02.72.17.74.27,1.43.32,2.1.05.7.06,1.41.02,2.12.13,0,.33-.2.4-.51h0Z"/>
        <path class="cls-1" d="m18.69,9.27c-.3-.5-.74-1.04-.86-1.24-.4-.56-.82-1.1-1.26-1.63-.37-.39.17-.06-.07-.37-.2-.22-.26-.29-.44-.43-.09-.06-.14-.16-.17.02-.01.16-.02.32,0,.48,0,.07.08.22.15.3.89,1.1,1.87,2.22,2.66,3.64.11-.06.07-.69,0-.78h0Z"/>
        <path class="cls-2" d="m5.24,8.35s-.07.09-.05.13c.03.04.06.06.11.06.05,0,.12.01.13-.01.03-.03.04-.09.03-.14-.05-.13-.19-.08-.22-.03Z"/>
        <path class="cls-1" d="m15.24,15.6c.4.02.66.02,1.01.06l.41-.04c.46-.04.48.65.48.65,0,.41-.16.43-.36.48-.12.02-.17-.07-.24-.16-.1.03-.2.04-.3.02-.17,0-.33,0-.5-.02-.17-.01-.27.02-.44,0-.03.06-.09.13-.19.11-.09-.01-.19-.26-.16-.45.06-.14.04-.09.04-.15-1.62-.04-3.26-.12-4.85-.1-1.24,0-2.47.06-3.7.11-.66,0-1.16-.11-1.5-.62.03,0,1.68.09,2.16.06.89,0,1.7-.08,2.6-.11,1.78.03,3.55.03,5.33.16-.17-.12-.17-.39.09-.46.02-.02.03.13.07.13.21-.01.12.27.07.33h0Zm-7.15-9.82c-.27.77.16,1.62.45,1.53.22.09.35-.32.43-.76.06-.13.11-.14.14-.07,0,.59.04.72.19.9.34.26.62.03.64.01l.26-.26c.06-.06.14-.06.22-.01.08.07.07.2.24.29.15.06.45.02.53-.11.1-.17.12-.22.16-.29.07-.09.19-.05.19-.02-.01.05-.08.1-.03.19.09.06.1.02.15,0,.17-.09.3-.46.3-.46,0-.14-.07-.13-.13-.1l-.13.09c-.09.01-.25.07-.33-.06-.08-.15-.08-.36-.14-.51,0,0-.11-.24,0-.25.05,0,.16.04.18-.05.05-.09-.11-.35-.23-.48-.1-.11-.24-.12-.37,0-.1.09-.08.18-.1.27-.03.13,0,.27.09.38.1.18.26.42.21.76,0,0-.1.16-.27.13-.07-.01-.19-.04-.25-.51-.05-.35,0-.84-.14-1.07-.06-.14-.1-.28-.22-.04-.03.1-.19.24-.08.53.1.26.13.54.09.82-.06.1-.08.13-.16.22-.11.13-.24.1-.33.05-.09-.06-.16-.09-.2-.28,0-.3.03-.8-.03-.9-.08-.16-.22-.1-.27-.05-.26.29-.43.64-.5,1.02-.08.25-.16.18-.22.08-.14-.13-.15-1.15-.32-.98h0Z"/>
        <path class="cls-1" d="m8.9,7.46c.13-.09.07-.15.25.03.23.41.37.88.4,1.35,0,.11.07.18.11.16.02-.26.65-.62,1.24-.67.09-.02.04-.19.06-.28-.03-.32.18-.62.48-.64.41.06.55.28.56.61-.05.65-.72.76-1.1.81-.06.02-.08.05,0,.08h1.58s.08.05.08.05c0,.04-.03,0-.09.11-.09.15-.14.32-.16.5-.47.16-.96.22-1.45.28-.17.09-.26.2-.22.33.06.14.44.29.44.29.07.04.16.15-.02.37-.77-.03-1.37-.36-1.58-.83-.06-.05-.13,0-.17.06-.3.39-.6.73-1.11.92-.3.08-.62-.05-.76-.25-.1-.12-.1-.24-.13-.27-.17.07-1.59.68-1.41.39.35-.37.95-.64,1.48-1.01.04-.13.11-.54.32-.67.01,0-.03.24-.03.35,0,.09,0,.12,0,.1.04-.02.68-.53.73-.68.06-.09.01-.31.01-.32-.12-.31-.29-.34-.35-.49-.06-.2-.03-.44.09-.51.1-.09.22-.08.34.02.13.12.24.35.28.51-.02.06-.17-.04-.22-.01.08.1.14.21.16.34.09.35.06.49-.03.72-.29.6-.65.78-.97,1,0,0-.01.15.1.23.04.04.21.06.41,0,.42-.23.75-.58.96-1.01.04-.32,0-.65-.1-.96-.13-.29-.27-.7-.27-.71,0-.18,0-.24.09-.33h0Zm-4.14-1.67c.18.09.53.05.51-.25v-.13c-.04-.09-.15-.06-.17.02,0,.03.01.08-.01.09-.02.02-.07,0-.07-.07,0-.03-.02-.05-.03-.07,0,0-.02,0-.04,0-.03,0-.03,0-.04.03,0,.02-.01.04-.01.07,0,.03-.02.04-.03.04-.03,0-.02,0-.04,0,0-.01-.02-.02-.02-.04v-.07s-.04-.02-.06-.03c-.1,0-.11.12-.1.16,0,0-.01.21.12.27h0Z"/>
        <path class="cls-1" d="m10.1,8.05c.18.09.62.04.51-.24v-.14c-.05-.09-.15-.06-.17.03,0,.03.01.07-.02.09-.01.02-.07,0-.07-.07,0-.03-.02-.06-.03-.07-.01,0-.02,0-.04,0-.02,0-.02,0-.03.03,0,.02-.01.04-.01.07,0,.03-.02.03-.04.04-.02,0-.02,0-.03-.01-.01-.01-.03-.02-.03-.04v-.07s-.04-.02-.06-.03c-.1,0-.11.11-.1.16,0,0,0,.22.13.27h0Zm3.11-.93c.18.09.52.05.51-.24v-.14c-.05-.09-.15-.06-.17.02,0,.03.01.08-.02.1-.01.01-.07,0-.07-.08,0-.03-.02-.05-.03-.07-.01,0-.02,0-.04,0-.02,0-.02,0-.03.03v.06s-.03.04-.05.04-.02,0-.03,0c-.01-.01-.03-.02-.03-.04s0-.06-.01-.07c0-.01-.03-.02-.04-.02-.1,0-.11.11-.1.16,0,0,0,.21.13.27h0Zm1.61,2.35c-.32.36-.18.95-.1,1.08.1.21.19.34.39.44.19.13.33.05.41-.04.19-.19.19-.69.28-.79.06-.18.22-.15.29-.07.07.1.16.18.27.23.17.15.38.18.59.04.14-.08.23-.18.31-.38.09-.24.04-1.37.02-2.03l-.18-.93s-.02-.44-.04-.54c0-.04-.01-.06.03-.05.05.04.05.04.09.06.04,0,.09-.07.06-.14l-.43-.8s-.08-.07-.14,0c-.07.06-.1.15-.1.24.01.19.04.38.06.57l.17.98c.06.69.07,1.26.13,1.96,0,.29-.1.55-.19.59,0,0-.13.07-.22,0-.06-.03-.32-.43-.32-.43-.13-.12-.22-.09-.31,0-.26.25-.37.71-.55,1.03-.04.07-.17.13-.31,0-.35-.49-.15-1.18-.19-1h0Zm-1.53-4.05c.16.06.28.4.24.56-.03.19-.12.41-.18.38-.07-.03.04-.2-.02-.38-.03-.12-.26-.34-.23-.4-.04-.13.1-.19.19-.17h0Z"/>
        <path class="cls-1" d="m15.35,9.66c.03-.4-.03-.64-.03-.87s-.26-2.01-.32-2.19c-.06-.34.25-.04.21-.24-.11-.24-.37-.6-.45-.81-.05-.09-.03-.17-.14-.02-.1.27-.13.55-.1.83.27,1.4.54,2.55.5,3.88.13,0,.27-.29.34-.57h0Zm2.78-3.69c.15.07.24.49.22.6-.03.22-.11.45-.16.42-.06-.03.01-.32-.02-.41-.03-.13-.24-.36-.22-.43-.04-.15.09-.21.18-.18h0Zm-11.05,2.93c.14.06.23.36.22.44-.03.16-.11.33-.16.31-.06-.02.01-.23-.01-.3-.01-.16-.21-.25-.21-.32-.03-.13.09-.15.17-.13h0Z"/>
        <path class="cls-2" d="m10.52,9.37c.18,0,.27.16.1.22-.17.06-.33.1-.34.35.06.35-.09.22-.17.18-.1-.08-.4-.26-.44-.65,0-.09.07-.17.19-.17.17.05.43.05.66.08Z"/>
        <path class="cls-1" d="m3.28,5.31c.21.06.22.37.21.46-.03.16-.1.34-.16.32-.06-.02,0-.25-.03-.32-.03-.1-.21-.28-.19-.33-.04-.11.09-.16.17-.14Zm4.14,1.45c-.16.09-.22.35-.13.5.1.13.24.08.26.08.16.02.25-.3.25-.3,0,0,0-.09-.18.08-.08.01-.09-.02-.11-.06-.02-.08-.01-.17.02-.25.03-.08-.03-.11-.12-.06h0Zm1.21-1.57c-.09.06-.25.22-.25.41,0,.11-.03.11.04.17.06.08.1.07.21.02.05-.03.09-.09.1-.15.03-.12-.13.06-.15-.08-.03-.13.06-.18.16-.3,0-.09,0-.14-.12-.08h0Zm.97.17c-.04.16-.06.32-.07.48-.03.12.13.17.19.02.1-.28.1-.4.11-.52-.03-.19-.16-.18-.24.02Zm6.13,3.12s.86-.62.86-.62c.09-.03.06.31.03.31-.26.25-.56.46-.89.62-.04.03-.08-.23,0-.3h0Zm.76,0c.15.07.21.51.19.63,0,.23-.14.41-.2.39-.06-.03,0-.29-.02-.38-.03-.13-.16-.37-.14-.44-.04-.15.08-.22.17-.2h0Zm-5.01,1.87c.07-.08.15-.15.24-.21.09-.04.16.03.16.03.01.09-.05.16-.03.27.02.04.03.1.11.08.13-.11.26-.12.39-.12.11,0,.11.18.04.18-.25.05-.35.12-.53.19-.09.05-.16-.01-.16-.02s-.05-.05-.02-.16c0-.09-.03-.14-.1-.13-.05.03-.1.05-.13-.01-.01-.04-.02-.07.02-.1h0Zm5.9.23s.06.09,0,.16l-.16.14s-.04.12.04.14c.16.04.52-.19.52-.2.06-.04.04-.13.03-.13-.03-.04-.11-.01-.16-.02-.03,0-.11,0-.07-.09.03-.04.05-.08.07-.13.02-.05,0-.09-.09-.12-.09-.02-.13,0-.23,0-.05,0-.07.03-.08.1,0,.1.06.1.13.13h0Z"/>
        <path class="cls-2" d="m11.52,8.14s-.1.04-.17,0-.12-.11-.09-.15.1-.04.17,0,.11.11.09.15Zm-3.84-2.32s-.1-.03-.13-.09-.01-.11.03-.13.1.03.13.09.01.12-.03.13h0Z"/>
        <path class="cls-2" d="m15.29,16.14c.41.02.79,0,1.19.02.07.06.02.22-.03.21h-.34c0-.14-.33-.12-.32,0-.18.02-.34,0-.52-.01-.05-.06-.04-.18.02-.21h0Z"/>
      </g>
    </g>
  </g>
</svg>