<svg xmlns="http://www.w3.org/2000/svg" width="33.227" height="33" viewBox="0 0 33.227 33">
  <g id="Group_15267" data-name="Group 15267" transform="translate(0 0)">
    <rect id="Rectangle_2166" data-name="Rectangle 2166" width="33" height="33" transform="translate(0 0)" fill="#fff" opacity="0"/>
    <g id="noun-shipping-1541529" transform="translate(1.985 8.047)">
      <path id="Path_4399" data-name="Path 4399" d="M130,290.11h-4.378a.389.389,0,1,0,0,.779H130a.389.389,0,1,0,0-.779Z" transform="translate(-125.228 -281.112)" fill="#c48d35"/>
      <path id="Path_4400" data-name="Path 4400" d="M175.624,333.18h-.451a.389.389,0,1,0,0,.779h.451a.389.389,0,1,0,0-.779Z" transform="translate(-171.34 -321.189)" fill="#c48d35"/>
      <path id="Path_4401" data-name="Path 4401" d="M213.815,170.292l-3.79-4.154h-4.513v-2.706h-9.679A4.692,4.692,0,1,0,191.019,170v2.636H188.1a.389.389,0,1,0,0,.779h2.921v2.172h1.82a1.911,1.911,0,0,0,3.786,0h10.88a1.911,1.911,0,0,0,3.786,0h2.522v-5.3Zm-26.181-4.953a3.915,3.915,0,1,1,3.915,3.915A3.92,3.92,0,0,1,187.634,165.339Zm7.1,11.118a1.142,1.142,0,1,1,1.143-1.143A1.144,1.144,0,0,1,194.732,176.458Zm10-1.649h-8.157a1.91,1.91,0,0,0-3.688,0H191.8V170.02a4.67,4.67,0,0,0,4.3-5.81h8.634v10.6Zm4.665,1.649a1.142,1.142,0,1,1,1.142-1.143A1.144,1.144,0,0,1,209.4,176.458Zm3.638-1.649h-1.793a1.91,1.91,0,0,0-3.688,0h-2.043v-7.893h4.169l3.355,3.677Z" transform="translate(-182.572 -160.646)" fill="#c48d35"/>
      <path id="Path_4402" data-name="Path 4402" d="M137.118,238.1h2.24a.389.389,0,1,0,0-.779h-2.24a.389.389,0,1,0,0,.779Z" transform="translate(-135.929 -231.988)" fill="#c48d35"/>
      <path id="Path_4403" data-name="Path 4403" d="M251.022,181.832a.392.392,0,0,0,.063.042.387.387,0,0,0,.152.031h2.24a.389.389,0,1,0,0-.779h-1.851v-2.971a.389.389,0,0,0-.779,0v3.36a.387.387,0,0,0,.031.152.381.381,0,0,0,.042.063.385.385,0,0,0,.04.06.348.348,0,0,0,.061.041Z" transform="translate(-242.117 -176.576)" fill="#c48d35"/>
    </g>
  </g>
</svg>
