<svg xmlns="http://www.w3.org/2000/svg" xmlns:xlink="http://www.w3.org/1999/xlink" width="335" height="147.5" viewBox="0 0 335 147.5">
  <defs>
    <clipPath id="clip-path">
      <rect id="Rectangle_3625" data-name="Rectangle 3625" width="335" height="147.5" fill="none" stroke="#707070" stroke-width="1"/>
    </clipPath>
  </defs>
  <g id="Group_19171" data-name="Group 19171" opacity="0.2">
    <g id="Group_19119" data-name="Group 19119" clip-path="url(#clip-path)">
      <path id="Path_5586" data-name="Path 5586" d="M370.817,42.53c-.07-.191-.141-.381-12.912.826s-38.243,3.813-56.784.477S270.971,31.217,257.6,25.5s-28.5-7.881-41.339-4.639-23.4,11.885-28.673,16.207-5.277,4.322-5.312,2.733-.106-4.767-.077-10.217.158-13.172.228-17.4.083-4.957.054-5.45-.1-.747-2.808-1.256A78.488,78.488,0,0,0,166.451,4.2,107.4,107.4,0,0,0,153.7,5.233c-2.6.286-2.826.106-2.9.524s-.006,1.435-.006,3.31-.07,4.608-.088,10.421.018,14.707.024,19.247-.017,4.725.6,4.791a23.8,23.8,0,0,0,2.568-.017c.7-.027.838-.027.856.37s-.088,1.192-.073,1.846.149,1.168.483,1.374.868.106,3.035-.04a92.78,92.78,0,0,1,9.7-.177c3.729.159,7.388.667,9.253.667s1.935-.508,1.9-1.271A10.4,10.4,0,0,1,179,43.96c.141-.54.563-.6,2.041-.6s4.011.064,5.383.032,1.583-.159,1.935,1.3a30.864,30.864,0,0,0,2.5,7.754c1.654,3.241,4.468,6.673,6.249,10.287a32.167,32.167,0,0,1,2.87,10.191,33.32,33.32,0,0,1,.252,5.418c-.022.867,0,.832.573.815a17.292,17.292,0,0,0,2.333-.145c.633-.127.774-.381.844-1.176s.07-2.129.07-2.923,0-1.049-.493-1.176a9.752,9.752,0,0,0-2.463-.063c-.985.063-1.97.19-2.5,2.32s-.6,6.26-2.181,10.232-4.679,7.785-6.157,11.662-1.337,7.817-1.583,9.692-.88,1.684-2.357,1.652-3.8.1-5,.127-1.266-.032-1.372-1.112-.246-3.178-.422-4.163-.387-.858-2.462-.572a88.288,88.288,0,0,1-9.6.794c-3.589.063-6.826-.254-8.514-.318s-1.829.127-1.829,1.112a16.038,16.038,0,0,1-.141,3.686c-.281.921-.985.985-2.674,1.017s-4.362.032-5.7-.052-1.337-.251-1.337-.664a19.947,19.947,0,0,0-.317-3.213,33.8,33.8,0,0,0-2.551-9.2c-1.6-3.441-4.168-6.7-5.927-10.514A26.074,26.074,0,0,1,136,74.139a26.735,26.735,0,0,1,3.219-10.35c1.583-3.21,3.342-6.324,4.292-8.9a19.2,19.2,0,0,0,1.161-6.228c.07-1.621.07-2.828.08-3.465s.03-.7.8-.733,2.3-.03,3.1-.029.87,0,.94.6.141,1.812.281,4.227.352,6.038-.352,8.516-2.322,3.813-3.94,6.959a22.442,22.442,0,0,0-2.357,13.569,23.98,23.98,0,0,0,9.358,15.094c5.1,3.654,11.927,4.989,18.225,4.512a25.827,25.827,0,0,0,16.219-6.8,24.274,24.274,0,0,0,7.072-15.19,21.018,21.018,0,0,0-4.362-14.268,28.731,28.731,0,0,0-10.942-8.516,20.547,20.547,0,0,0-10.379-1.78,35.513,35.513,0,0,0-9.921,2.288c-2.92,1.144-5.172,2.542-5.911,3.432s.036,1.271,1.337,2.669,3.131,3.813,5.819,6.869,6.234,6.751,8.626,8.277,3.631.88,3.758-.046a2.053,2.053,0,0,0-1.878-2.1c-1.02.032-2.076,1.3-4.89,4.417S157.966,85.239,155.01,88.7s-4.292,5.434-4.877,8.68-.417,7.766-.03,15.87.993,19.789,1.3,26.394.3,8.131.479,8.925.528.858,3.272,1.144a117.115,117.115,0,0,0,13.37.731,137.133,137.133,0,0,0,14.389-1.081c3.061-.381,3.342-.509,3.589-1.907a66.591,66.591,0,0,0,.457-10.169c0-6.1-.211-15.635-.317-20.4s-.105-4.767-1.156-5.251-3.152-1.453-13.39,1.916-28.613,11.074-50.923,4.122S72.614,89.116,50.225,78.791-22.133,36.454-75.311,86.155" transform="translate(75.311 -3.576)" fill="none" stroke="#000" stroke-linecap="round" stroke-width="1"/>
    </g>
  </g>
</svg>
