<svg xmlns="http://www.w3.org/2000/svg" xmlns:xlink="http://www.w3.org/1999/xlink" width="403.583" height="147.5" viewBox="0 0 403.583 147.5">
  <defs>
    <clipPath id="clip-path">
      <rect id="Rectangle_3625" data-name="Rectangle 3625" width="403.583" height="147.5" fill="none" stroke="#707070" stroke-width="1"/>
    </clipPath>
  </defs>
  <g id="Group_19122" data-name="Group 19122" opacity="0.2">
    <g id="Group_19119" data-name="Group 19119" clip-path="url(#clip-path)">
      <path id="Path_5586" data-name="Path 5586" d="M327.647,42.53c-.063-.191-.127-.381-11.662.826s-34.542,3.813-51.289.477S237.462,31.217,225.387,25.5s-25.74-7.881-37.339-4.639-21.132,11.885-25.9,16.207-4.766,4.322-4.8,2.733-.1-4.767-.069-10.217.142-13.172.206-17.4.075-4.957.048-5.45-.09-.747-2.537-1.256A64.275,64.275,0,0,0,143.056,4.2a87.846,87.846,0,0,0-11.519,1.033c-2.352.286-2.553.106-2.622.524s-.005,1.435-.005,3.31-.063,4.608-.079,10.421.017,14.707.022,19.247-.016,4.725.54,4.791a19.416,19.416,0,0,0,2.32-.017c.63-.027.757-.027.773.37s-.08,1.192-.066,1.846.135,1.168.437,1.374.784.106,2.741-.04a75.716,75.716,0,0,1,8.757-.177c3.368.159,6.673.667,8.357.667s1.748-.508,1.716-1.271a11.5,11.5,0,0,1-.032-2.32c.127-.54.509-.6,1.843-.6s3.623.064,4.862.032,1.43-.159,1.748,1.3a33.309,33.309,0,0,0,2.256,7.754c1.494,3.241,4.036,6.673,5.645,10.287a34.876,34.876,0,0,1,2.593,10.191,36.86,36.86,0,0,1,.228,5.418c-.02.867,0,.832.518.815a14.129,14.129,0,0,0,2.107-.145c.572-.127.7-.381.763-1.176s.063-2.129.063-2.923,0-1.049-.445-1.176a7.966,7.966,0,0,0-2.224-.063c-.89.063-1.78.19-2.256,2.32s-.54,6.26-1.97,10.232-4.226,7.785-5.561,11.662-1.207,7.817-1.43,9.692-.794,1.684-2.129,1.652-3.432.1-4.513.127-1.144-.032-1.239-1.112-.222-3.178-.382-4.163-.349-.858-2.224-.572a72.215,72.215,0,0,1-8.675.794c-3.241.063-6.165-.254-7.69-.318s-1.652.127-1.652,1.112a17.737,17.737,0,0,1-.127,3.686c-.254.921-.89.985-2.415,1.017s-3.94.032-5.148-.052-1.208-.251-1.208-.664a22.031,22.031,0,0,0-.286-3.213,36.693,36.693,0,0,0-2.3-9.2c-1.445-3.441-3.765-6.7-5.354-10.514a28.478,28.478,0,0,1-2.241-12.016,28.829,28.829,0,0,1,2.908-10.35c1.43-3.21,3.019-6.324,3.877-8.9a21.053,21.053,0,0,0,1.049-6.228c.063-1.621.063-2.828.072-3.465s.027-.7.726-.733,2.08-.03,2.8-.029.786,0,.849.6.127,1.812.254,4.227.318,6.038-.318,8.516-2.1,3.813-3.559,6.959a23.751,23.751,0,0,0,6.323,28.664c4.608,3.654,10.773,4.989,16.461,4.512a22.254,22.254,0,0,0,14.65-6.8,25.469,25.469,0,0,0,6.387-15.19,22.6,22.6,0,0,0-3.94-14.268,26.481,26.481,0,0,0-9.883-8.516,16.977,16.977,0,0,0-9.375-1.78,29.5,29.5,0,0,0-8.961,2.288,15.239,15.239,0,0,0-5.339,3.432c-.667.89.032,1.271,1.208,2.669s2.828,3.813,5.256,6.869,5.631,6.751,7.791,8.277,3.28.88,3.394-.046a1.991,1.991,0,0,0-1.7-2.1c-.921.032-1.875,1.3-4.417,4.417s-6.673,8.071-9.343,11.535-3.877,5.434-4.4,8.68-.377,7.766-.027,15.87.9,19.789,1.171,26.394.274,8.131.433,8.925.477.858,2.955,1.144a95.671,95.671,0,0,0,12.076.731,112.119,112.119,0,0,0,13-1.081c2.765-.381,3.019-.509,3.241-1.907a73.649,73.649,0,0,0,.413-10.169c0-6.1-.19-15.635-.286-20.4s-.1-4.767-1.044-5.251-2.847-1.453-12.094,1.916-25.844,11.074-46,4.122S58.3,89.116,38.077,78.791-27.278,36.454-75.311,86.155" transform="translate(75.311 -3.576)" fill="none" stroke="#000" stroke-linecap="round" stroke-width="1"/>
    </g>
  </g>
</svg>
