<svg xmlns="http://www.w3.org/2000/svg" width="95.48" height="17.994" viewBox="0 0 95.48 17.994">
  <g id="Group_11667" data-name="Group 11667" transform="translate(0 -105.784)">
    <g id="Layer_x0020_1" transform="translate(28.387 106.784)">
      <path id="Path_4372" data-name="Path 4372" d="M188.877-.01h0V1.314h-5.168v14.66h-2.685V1.314h-5.18V-.01h13.034Zm41.1,0h1.469L241.64,11.4V-.01h1.3V15.974h-.605L231.275,3.308V16.03l-1.3.031V-.01Zm-13.894,9.8h5.671l-2.743-6.2Zm3.846-9.8h0l7.388,16.047h-2.68l-2.4-5.237h-6.617l-2.478,5.237h-1.424L219.279-.01h.653Zm-7.943,0H198.955V1.314h5.18v14.66h2.685V1.314h5.168V-.01Zm-19.415,0h2.686V15.974h-2.686Z" transform="translate(-175.843 0.01)" fill="#373435" fill-rule="evenodd"/>
    </g>
    <g id="Layer_x0020_1-2" data-name="Layer_x0020_1" transform="translate(0 105.784)">
      <path id="Path_4372-2" data-name="Path 4372" d="M17.059,6.026c1.51,3.674-.682,9.043-4.213,10.326V2.39h5.606l1.482-2.4h-9.5l0,16.756v1.238c4.921-.322,9.427-4.357,9.427-9.472a10.027,10.027,0,0,0-.316-2.486H17.06ZM9.483-.01H-.01l1.478,2.4H7.073V16.352C3.578,15.082,1.3,9.626,2.872,6.026H.369A10.034,10.034,0,0,0,.053,8.512c0,5.114,4.507,9.15,9.427,9.472V16.746l0-16.756Z" transform="translate(0.01 0.01)" fill="#373435" fill-rule="evenodd"/>
    </g>
  </g>
</svg>
