<?xml version="1.0" encoding="UTF-8"?>
<svg id="Layer_1" data-name="Layer 1" xmlns="http://www.w3.org/2000/svg" xmlns:xlink="http://www.w3.org/1999/xlink" viewBox="0 0 22 22">
  <defs>
    <style>
      .cls-1 {
        fill: #fff;
      }

      .cls-1, .cls-2, .cls-3 {
        fill-rule: evenodd;
      }

      .cls-2 {
        fill: #1c305d;
      }

      .cls-3 {
        fill: #bf3e45;
      }

      .cls-4 {
        clip-path: url(#clippath);
      }

      .cls-5 {
        fill: none;
      }
    </style>
    <clipPath id="clippath">
      <circle class="cls-5" cx="11" cy="11" r="11"/>
    </clipPath>
  </defs>
  <g class="cls-4">
    <g>
      <g>
        <path class="cls-3" d="m-9.9,0H31.9v1.7H-9.9V0Zm0,3.39H31.9v1.7H-9.9v-1.7Zm0,3.38H31.9v1.7H-9.9v-1.7Zm0,3.38H31.9v1.7H-9.9v-1.7Zm0,3.39H31.9v1.69H-9.9v-1.69Zm0,3.38H31.9v1.7H-9.9v-1.7Zm0,3.38H31.9v1.7H-9.9v-1.7Z"/>
        <path class="cls-1" d="m-9.9,1.7H31.9v1.69H-9.9v-1.69Zm0,3.38H31.9v1.69H-9.9v-1.69Zm0,3.38H31.9v1.7H-9.9v-1.7Zm0,3.39H31.9v1.7H-9.9v-1.7Zm0,3.38H31.9v1.7H-9.9v-1.7Zm0,3.38H31.9v1.7H-9.9v-1.7Z"/>
      </g>
      <path class="cls-2" d="m-9.9,0H6.82v11.85H-9.9V0Z"/>
      <path class="cls-1" d="m-8.51.5l.16.47h.49l-.39.29.15.47-.4-.29-.39.29.15-.47-.4-.29h.5l.15-.47Zm2.79,0l.15.47h.5l-.4.29.15.47-.39-.29-.4.29.15-.47-.39-.29h.49l.16-.47Zm2.79,0l.15.47h.49l-.39.29.15.47-.4-.29-.4.29.15-.47-.4-.29h.5l.15-.47ZM-.15.5L0,.98h.5l-.4.29.15.47-.4-.29-.4.29.16-.47-.4-.29h.49l.16-.47Zm2.79,0l.15.47h.49l-.39.29.15.47-.4-.29-.4.29.15-.47-.39-.29h.49l.15-.47Zm2.79,0l.15.47h.49l-.4.29.16.47-.4-.29-.4.29.16-.47-.4-.29h.49l.15-.47ZM-7.11,1.7l.15.47h.5l-.4.28.15.47-.39-.29-.4.29.14-.47-.38-.28h.49l.14-.47Zm2.79,0l.16.47h.49l-.4.28.16.47-.4-.29-.4.29.15-.47-.4-.28h.5l.15-.47Zm2.79,0l.15.47h.5l-.4.28.15.47-.4-.29-.4.29.15-.47-.39-.28h.49l.16-.47Zm2.79,0l.16.47h.49l-.4.28.16.47-.4-.29-.39.29.15-.47-.4-.28h.5l.15-.47Zm2.79,0l.15.47h.49l-.4.28.15.47-.4-.29-.4.29.15-.47-.39-.28h.49l.15-.47Zm-12.54,1.17l.16.48h.49l-.39.29.15.47-.4-.29-.39.29.15-.47-.4-.29h.5l.15-.48Zm2.79,0l.15.48h.5l-.4.29.15.47-.39-.29-.4.29.15-.47-.39-.29h.49l.16-.47Zm2.79,0l.15.47h.49l-.39.29.15.47-.4-.29-.4.29.15-.47-.4-.29h.5l.15-.47ZM-.15,2.87L0,3.34h.5l-.4.29.15.47-.4-.29-.4.29.16-.47-.4-.29h.49l.16-.47Zm2.79,0l.15.47h.49l-.39.29.15.47-.4-.29-.4.29.15-.47-.39-.29h.49l.15-.47Zm2.79,0l.15.47h.49l-.4.29.16.47-.4-.29-.4.29.16-.47-.4-.29h.49l.15-.47Zm-12.54,1.19l.15.47h.5l-.4.29.15.47-.4-.29-.4.29.15-.47-.39-.29h.49l.15-.47Zm2.79,0l.16.47h.49l-.4.29.16.47-.4-.29-.4.29.15-.47-.4-.29h.5l.15-.47Zm2.79,0l.15.47h.5l-.4.29.15.47-.4-.29-.4.29.15-.47-.39-.29h.49l.16-.47Zm2.79,0l.16.47h.49l-.4.29.15.47-.4-.29-.39.29.15-.47-.4-.29h.5l.15-.47Zm2.79,0l.15.47h.49l-.4.29.15.47-.4-.29-.4.29.15-.47-.39-.29h.49l.15-.47Zm-12.54,1.19l.16.47h.49l-.39.29.15.47-.4-.29-.39.29.15-.47-.4-.29h.5l.15-.47Zm2.79,0l.15.47h.5l-.4.29.15.47-.39-.29-.4.29.15-.47-.39-.29h.49l.16-.47Zm2.79,0l.15.47h.49l-.39.29.15.47-.4-.29-.4.29.15-.47-.4-.29h.5l.15-.47ZM-.15,5.25L0,5.72h.5l-.4.29.15.47-.4-.29-.4.29.16-.47-.4-.29h.49l.16-.47Zm2.79,0l.15.47h.49l-.39.29.15.47-.4-.29-.4.29.15-.47-.39-.29h.49l.15-.47Zm2.79,0l.15.47h.49l-.4.29.16.47-.4-.29-.4.29.15-.47-.4-.29h.49l.16-.47Zm-12.54,1.18l.15.47h.5l-.4.28.15.47-.4-.29-.4.29.15-.47-.39-.29h.49l.15-.47Zm2.79,0l.16.47h.49l-.4.28.16.47-.4-.29-.4.29.15-.47-.4-.29h.5l.15-.47Zm2.79,0l.15.47h.5l-.4.28.15.47-.4-.29-.4.29.15-.47-.39-.29h.49l.16-.47Zm2.79,0l.16.47h.49l-.4.28.15.47-.4-.29-.39.29.15-.47-.4-.29h.5l.15-.47Zm2.79,0l.15.47h.49l-.4.28.15.47-.4-.29-.4.29.15-.47-.39-.29h.49l.15-.47Zm-12.54,1.18l.16.47h.49l-.39.29.15.46-.4-.28-.39.28.15-.47-.4-.29h.5l.15-.47Zm2.79,0l.15.47h.5l-.4.29.15.46-.4-.28-.4.28.16-.47-.4-.29h.49l.16-.47Zm2.79,0l.15.47h.49l-.39.29.15.46-.4-.28-.4.28.15-.47-.4-.29h.5l.15-.47ZM-.15,7.61l.15.47h.5l-.4.29.15.46-.4-.28-.4.28.16-.47-.4-.29h.49l.16-.47Zm2.79,0l.15.47h.49l-.39.29.15.46-.4-.28-.4.28.15-.47-.39-.29h.49l.15-.47Zm2.79,0l.15.47h.49l-.4.29.16.46-.4-.28-.4.28.16-.47-.4-.29h.49l.15-.47Zm-12.54,1.19l.15.47h.5l-.4.29.15.47-.4-.29-.4.29.15-.47-.39-.29h.49l.15-.47Zm2.79,0l.16.47h.49l-.4.29.16.47-.4-.29-.4.29.15-.47-.4-.29h.5l.15-.47Zm2.79,0l.15.47h.5l-.4.29.15.47-.4-.29-.4.29.15-.47-.39-.29h.49l.16-.47Zm2.79,0l.16.47h.49l-.4.29.15.47-.4-.29-.39.29.15-.47-.4-.29h.5l.15-.47Zm2.79,0l.15.47h.49l-.4.29.15.47-.4-.29-.4.29.15-.47-.39-.29h.49l.15-.47Zm-12.54,1.19l.16.47h.49l-.39.29.15.47-.4-.29-.39.29.15-.47-.4-.29h.5l.15-.46Zm2.79,0l.15.47h.5l-.4.29.15.47-.4-.29-.4.29.16-.47-.4-.29h.49l.16-.46Zm2.79,0l.15.47h.49l-.38.29.15.47-.4-.29-.4.29.15-.47-.4-.29h.5l.14-.46Zm2.79,0l.15.47h.5l-.4.29.15.47-.4-.29-.4.29.16-.47-.4-.29h.49l.16-.46Zm2.79,0l.15.47h.49l-.39.29.15.47-.4-.29-.4.29.15-.47-.39-.29h.49l.15-.46Zm2.79,0l.15.47h.49l-.4.29.16.47-.4-.29-.4.29.16-.47-.4-.29h.49l.15-.46Z"/>
    </g>
  </g>
</svg>