<svg xmlns="http://www.w3.org/2000/svg" width="24" height="24" viewBox="0 0 24 24">
  <g id="Group_24516" data-name="Group 24516" transform="translate(-42 -304)">
    <rect id="Rectangle_11127" data-name="Rectangle 11127" width="24" height="24" transform="translate(42 304)" fill="none"/>
    <path id="_216514_warning_icon" data-name="216514_warning_icon" d="M13.769,11.667,10.161,4.906A2.325,2.325,0,0,0,8.171,3.511,2.326,2.326,0,0,0,6.182,4.9L2.573,11.667A2.839,2.839,0,0,0,2.429,14.3a2.229,2.229,0,0,0,2.079,1.216h7.325A2.229,2.229,0,0,0,13.913,14.3,2.84,2.84,0,0,0,13.769,11.667Zm-5.6,1.476a1.071,1.071,0,0,1,0-2.127,1.071,1.071,0,0,1,0,2.127Zm1-5.094c-.007.021-.855,2.38-.855,2.38a.146.146,0,0,1-.282,0L7.182,8.07A1.352,1.352,0,0,1,7.1,7.62a1.142,1.142,0,0,1,1.068-1.2,1.142,1.142,0,0,1,1.068,1.2A1.322,1.322,0,0,1,9.168,8.049Z" transform="translate(45.828 306.489)" fill="#ed1c24"/>
  </g>
</svg>
