<svg xmlns="http://www.w3.org/2000/svg" width="21.548" height="17.891" viewBox="0 0 21.548 17.891">
  <g id="Icon" transform="translate(0.084 0.084)">
    <path id="Path_7410" data-name="Path 7410" d="M13.146,15.445V2.533A1.775,1.775,0,0,0,11.591.6H2.155A1.775,1.775,0,0,0,.6,2.533V13.89a1.555,1.555,0,0,0,1.555,1.555h.5" transform="translate(-0.184 -0.184)" fill="none" stroke="#3e3e3e" stroke-linecap="round" stroke-linejoin="round" stroke-width="1"/>
    <line id="Line_581" data-name="Line 581" x2="3.143" transform="translate(6.553 15.261)" fill="none" stroke="#3e3e3e" stroke-linecap="round" stroke-linejoin="round" stroke-width="1"/>
    <path id="Path_7411" data-name="Path 7411" d="M7.869,22.515a2.043,2.043,0,1,1-2.046-2.04A2.043,2.043,0,0,1,7.869,22.515Z" transform="translate(-1.317 -7.254)" fill="none" stroke="#3e3e3e" stroke-linecap="round" stroke-linejoin="round" stroke-width="1"/>
    <path id="Path_7412" data-name="Path 7412" d="M27.23,22.515a2.043,2.043,0,1,1-2.046-2.04A2.043,2.043,0,0,1,27.23,22.515Z" transform="translate(-8.204 -7.254)" fill="none" stroke="#3e3e3e" stroke-linecap="round" stroke-linejoin="round" stroke-width="1"/>
    <path id="Path_7413" data-name="Path 7413" d="M22.052,21.476H20.073V17.554" transform="translate(-7.111 -6.215)" fill="none" stroke="#3e3e3e" stroke-linecap="round" stroke-linejoin="round" stroke-width="1"/>
    <path id="Path_7414" data-name="Path 7414" d="M27.733,18.2h.992a.861.861,0,0,0,.943-.754V13.615A3.091,3.091,0,0,0,29,11.86a.3.3,0,0,0-.066-.082c-.041-.05-.073-.09-.1-.115a.283.283,0,0,0-.032-.041l.2.238a.3.3,0,0,0-.066-.082l-.1-.115a.283.283,0,0,0-.032-.041l-1.984-2.7A1.6,1.6,0,0,0,25.6,8.354h-1.05" transform="translate(-8.704 -2.942)" fill="none" stroke="#3e3e3e" stroke-linecap="round" stroke-linejoin="round" stroke-width="1"/>
  </g>
</svg>
