<svg xmlns="http://www.w3.org/2000/svg" xmlns:xlink="http://www.w3.org/1999/xlink" width="18" height="18" viewBox="0 0 18 18">
  <defs>
    <clipPath id="clip-path">
      <rect id="Rectangle_1791" data-name="Rectangle 1791" width="18" height="18" transform="translate(0.001)" fill="#373435" stroke="rgba(0,0,0,0)" stroke-width="1"/>
    </clipPath>
  </defs>
  <g id="search" transform="translate(-0.001)" clip-path="url(#clip-path)">
    <g id="Group_11332" data-name="Group 11332" transform="translate(2.561 2.525)">
      <g id="Group_11330" data-name="Group 11330" opacity="0.87">
        <path id="Path_4368" data-name="Path 4368" d="M955.772,250.294a6.022,6.022,0,1,1,6.022-6.022A6.029,6.029,0,0,1,955.772,250.294Zm0-11.336a5.314,5.314,0,1,0,5.313,5.314A5.319,5.319,0,0,0,955.772,238.958Z" transform="translate(-949.75 -238.25)" stroke="rgba(0,0,0,0)" stroke-width="1"/>
      </g>
      <g id="Group_11331" data-name="Group 11331" transform="translate(9.819 9.827)" opacity="0.87">
        <path id="Path_4369" data-name="Path 4369" d="M965.746,254.63a.389.389,0,0,1-.274-.113l-2.921-2.91a.387.387,0,0,1,.547-.547l2.922,2.909a.387.387,0,0,1-.274.661Z" transform="translate(-962.437 -250.947)" stroke="rgba(0,0,0,0)" stroke-width="1"/>
      </g>
    </g>
  </g>
</svg>
